<mxfile host="65bd71144e">
    <diagram id="oduZ3OfM_AwTNwdZHd9h" name="Page-1">
        <mxGraphModel dx="630" dy="-623" grid="1" gridSize="10" guides="1" tooltips="1" connect="1" arrows="1" fold="1" page="1" pageScale="1" pageWidth="850" pageHeight="1100" math="0" shadow="0">
            <root>
                <mxCell id="0"/>
                <mxCell id="1" parent="0"/>
                <mxCell id="6" value="&lt;h1&gt;&lt;span style=&quot;background-color: initial;&quot;&gt;what is object&lt;/span&gt;&lt;/h1&gt;&lt;h1&gt;&lt;span style=&quot;background-color: initial; font-size: 12px; font-weight: normal;&quot;&gt;Recall employee systems&lt;/span&gt;&lt;/h1&gt;&lt;h1&gt;&lt;span style=&quot;background-color: initial; font-size: 12px; font-weight: normal;&quot;&gt;Encapsulation concept&amp;nbsp;&lt;/span&gt;&lt;br&gt;&lt;/h1&gt;&lt;div&gt;&lt;span style=&quot;background-color: initial; font-size: 12px; font-weight: normal;&quot;&gt;- It means to encapsulate (make a acapule of ) all the date members &amp;amp; methods within a single capsule&lt;/span&gt;&lt;/div&gt;&lt;div&gt;&lt;span style=&quot;background-color: initial; font-size: 12px; font-weight: normal;&quot;&gt;- Struct and class, allows that&lt;/span&gt;&lt;/div&gt;" style="text;html=1;strokeColor=none;fillColor=none;spacing=5;spacingTop=-20;whiteSpace=wrap;overflow=hidden;rounded=0;labelBackgroundColor=none;fontSize=12;fontColor=#FFFFFF;" parent="1" vertex="1">
                    <mxGeometry x="80.5" y="1860" width="440" height="230" as="geometry"/>
                </mxCell>
                <mxCell id="8" value="&lt;h1&gt;Programming Paradigms&lt;/h1&gt;&lt;p style=&quot;&quot;&gt;&lt;font style=&quot;font-size: 19px;&quot;&gt;Definiton&lt;/font&gt;&lt;span style=&quot;font-size: 13px;&quot;&gt;: A progarmming paradigm is a style, or way of thinking / viewing/ structuring for a software&lt;/span&gt;&lt;/p&gt;&lt;p style=&quot;&quot;&gt;&lt;span style=&quot;color: rgb(255, 255, 255); font-size: 18px;&quot;&gt;it is a paradigm so it can be implemeted in C also&lt;/span&gt;&lt;span style=&quot;font-size: 13px;&quot;&gt;&lt;br&gt;&lt;/span&gt;&lt;/p&gt;&lt;p style=&quot;&quot;&gt;&lt;span style=&quot;background-color: initial;&quot;&gt;https://cs.lmu.edu/~ray/notes/paradigms/&lt;/span&gt;&lt;/p&gt;&lt;p style=&quot;&quot;&gt;&lt;br&gt;&lt;/p&gt;&lt;font color=&quot;#ffffff&quot; style=&quot;&quot; face=&quot;Crimson Pro, serif&quot;&gt;&lt;span style=&quot;font-size: 19px; background-color: rgb(0, 0, 0);&quot;&gt;https://www.freecodecamp.org/news/an-introduction-to-programming-paradigms/&lt;br&gt;&lt;/span&gt;&lt;/font&gt;&lt;span style=&quot;background-color: rgb(0, 0, 0);&quot;&gt;&lt;br&gt;https://www.sas.upenn.edu/~jesusfv/Lecture_HPC_7_Programming_Paradigms.pdf&lt;br&gt;&lt;br&gt;https://www.geeksforgeeks.org/introduction-of-programming-paradigms/&lt;br&gt;&lt;br&gt;https://www.datacamp.com/blog/introduction-to-programming-paradigms&lt;br&gt;&lt;br&gt;https://www.cs.ucf.edu/~leavens/ComS541Fall97/hw-pages/paradigms/major.html#functional&lt;br&gt;&lt;br&gt;&lt;/span&gt;" style="text;html=1;strokeColor=none;fillColor=none;spacing=5;spacingTop=-20;whiteSpace=wrap;overflow=hidden;rounded=0;" parent="1" vertex="1">
                    <mxGeometry x="20" y="2450" width="670" height="290" as="geometry"/>
                </mxCell>
                <mxCell id="9" value="&lt;h1 style=&quot;font-size: 24px;&quot;&gt;&lt;font color=&quot;#ffffff&quot; style=&quot;font-size: 24px;&quot;&gt;Design patterns&lt;/font&gt;&lt;/h1&gt;&lt;div&gt;&lt;font color=&quot;#ffffff&quot; style=&quot;font-size: 24px;&quot;&gt;- The best practices for some repetitive design sub-tasks&lt;/font&gt;&lt;/div&gt;&lt;div&gt;&lt;font color=&quot;#ffffff&quot; style=&quot;font-size: 24px;&quot;&gt;- fatel misttakes: overstree study and overuse in projects&lt;/font&gt;&lt;/div&gt;&lt;div&gt;&lt;font color=&quot;#ffffff&quot; style=&quot;font-size: 24px;&quot;&gt;- some pattrens are&amp;nbsp;&lt;/font&gt;&lt;/div&gt;&lt;div&gt;&lt;font color=&quot;#ffffff&quot; style=&quot;font-size: 24px;&quot;&gt;so important like signleton, factor&lt;/font&gt;&lt;/div&gt;&lt;div&gt;&lt;font color=&quot;#ffffff&quot; style=&quot;font-size: 24px;&quot;&gt;- others are less faced from domain to other&lt;/font&gt;&lt;/div&gt;&lt;p style=&quot;&quot;&gt;&lt;font color=&quot;#ffffff&quot;&gt;&lt;span style=&quot;font-size: 12px;&quot;&gt;https://www.oodesign.com/&lt;/span&gt;&lt;br&gt;&lt;/font&gt;&lt;/p&gt;&lt;p style=&quot;&quot;&gt;&lt;font color=&quot;#ffffff&quot;&gt;&lt;span style=&quot;font-size: 12px;&quot;&gt;https://refactoring.guru/smells/long-method&lt;/span&gt;&lt;br&gt;&lt;/font&gt;&lt;/p&gt;&lt;p style=&quot;&quot;&gt;&lt;font color=&quot;#ffffff&quot;&gt;&lt;span style=&quot;font-size: 12px;&quot;&gt;https://www.geeksforgeeks.org/design-patterns-in-object-oriented-programming-oop/&lt;/span&gt;&lt;br&gt;&lt;/font&gt;&lt;/p&gt;&lt;p style=&quot;&quot;&gt;&lt;span style=&quot;font-size: 12px;&quot;&gt;&lt;br&gt;&lt;/span&gt;&lt;/p&gt;" style="text;html=1;strokeColor=none;fillColor=none;spacing=5;spacingTop=-20;whiteSpace=wrap;overflow=hidden;rounded=0;labelBackgroundColor=none;fontSize=19;fontColor=#000000;" parent="1" vertex="1">
                    <mxGeometry x="55" y="3810" width="470" height="480" as="geometry"/>
                </mxCell>
                <mxCell id="10" value="&lt;font style=&quot;&quot;&gt;&lt;span style=&quot;font-size: 18px;&quot;&gt;OOP Programming Paradihgm : Why&lt;/span&gt;&lt;br&gt;&lt;br&gt;&lt;span style=&quot;font-size: 18px;&quot;&gt;- real world objects and oops classes has close correspondence&lt;/span&gt;&lt;br&gt;&lt;span style=&quot;font-size: 18px;&quot;&gt;- help in handling complexity of software products&lt;/span&gt;&lt;br&gt;&lt;span style=&quot;font-size: 18px;&quot;&gt;- seems one of best ways to deal with software crisis&lt;/span&gt;&lt;br&gt;&lt;span style=&quot;font-size: 18px;&quot;&gt;&#9;&lt;/span&gt;&lt;span style=&quot;font-size: 18px;&quot;&gt;- complex projects: over-budget, over-time, buggy, !meet requirements, never delivered&lt;/span&gt;&lt;br&gt;&lt;span style=&quot;font-size: 18px;&quot;&gt;- why not procedural?&lt;/span&gt;&lt;br&gt;&lt;span style=&quot;font-size: 18px;&quot;&gt;- no owner for data, data integrity issue, many functions&lt;/span&gt;&lt;br&gt;&lt;span style=&quot;font-size: 18px;&quot;&gt;- harder debugging if data is corrupted&lt;/span&gt;&lt;br&gt;&lt;br&gt;&lt;span style=&quot;font-size: 18px;&quot;&gt;- on the other side&amp;nbsp;&lt;/span&gt;&lt;br&gt;&lt;span style=&quot;font-size: 18px;&quot;&gt;- some people criticize alot OOP iteself&lt;/span&gt;&lt;br&gt;&lt;br&gt;&lt;span style=&quot;font-size: 18px;&quot;&gt;https://www.geeksforgeeks.org/software-engineering-software-crisis/&lt;br&gt;&lt;/span&gt;&lt;br&gt;&lt;br&gt;https://medium.com/javascript-scene/the-forgotten-history-of-oop-88d71b9b2d9f&lt;br&gt;&lt;/font&gt;" style="text;html=1;align=left;verticalAlign=middle;resizable=0;points=[];autosize=1;strokeColor=none;fillColor=none;fontSize=12;fontColor=#FFFFFF;" parent="1" vertex="1">
                    <mxGeometry x="25" y="2810" width="720" height="340" as="geometry"/>
                </mxCell>
                <mxCell id="11" value="&lt;h1&gt;OO Principles&lt;/h1&gt;&lt;p&gt;The most important skills we need in design!&lt;br&gt;● SOLID Principles&lt;br&gt;&lt;span style=&quot;white-space: pre;&quot;&gt;&#9;&lt;/span&gt;○ Single Responsibility Principle (SRP)&lt;br&gt;&lt;span style=&quot;white-space: pre;&quot;&gt;&#9;&lt;/span&gt;○ Open/Closed Principle (OCP)&lt;br&gt;&lt;span style=&quot;white-space: pre;&quot;&gt;&#9;&lt;/span&gt;○ Liskov Substitution Principle (LSP)&lt;br&gt;&lt;span style=&quot;white-space: pre;&quot;&gt;&#9;&lt;/span&gt;○ Interface Segregation Principle (ISP)&lt;br&gt;&lt;span style=&quot;white-space: pre;&quot;&gt;&#9;&lt;/span&gt;○ Dependency Inversion Principle (DIP)&lt;br&gt;● DRY (Don’t Repeat Yourself)&lt;br&gt;● KISS (Keep it simple, Stupid!)&lt;br&gt;● YAGNI (You ain't gonna need it)&lt;br&gt;&lt;/p&gt;" style="text;html=1;strokeColor=none;fillColor=none;spacing=5;spacingTop=-20;whiteSpace=wrap;overflow=hidden;rounded=0;labelBackgroundColor=none;fontSize=12;fontColor=#FFFFFF;" parent="1" vertex="1">
                    <mxGeometry x="50" y="3570" width="295" height="200" as="geometry"/>
                </mxCell>
                <mxCell id="13" value="&lt;h1&gt;Data Hiding vs Encapsulation&lt;/h1&gt;&lt;p&gt;Data Hiding is not possible without Encapsulation&lt;/p&gt;&lt;div style=&quot;font-size: 17px;&quot;&gt;&lt;span style=&quot;background-color: initial;&quot;&gt;Data hiding (mechansim access modifers: public &amp;amp; private)&lt;/span&gt;&lt;/div&gt;&lt;div style=&quot;font-size: 17px;&quot;&gt;&lt;span style=&quot;background-color: initial;&quot;&gt;Encapsulation can be achieve by the struct&lt;/span&gt;&lt;/div&gt;" style="text;html=1;strokeColor=none;fillColor=none;spacing=5;spacingTop=-20;whiteSpace=wrap;overflow=hidden;rounded=0;" parent="1" vertex="1">
                    <mxGeometry x="30" y="5000" width="475" height="170" as="geometry"/>
                </mxCell>
                <mxCell id="19" value="&lt;h1 style=&quot;font-size: 25px;&quot;&gt;&lt;font style=&quot;font-size: 25px;&quot;&gt;Abstraction in c++&lt;/font&gt;&lt;/h1&gt;&lt;p style=&quot;font-size: 14px;&quot;&gt;● Public/private access modifiers to reveal/hide details (data &amp;amp; functions)&lt;br&gt;● :: scope resolution operator to separate implementation from interface&lt;br&gt;&lt;span style=&quot;white-space: pre;&quot;&gt;&#9;&lt;/span&gt;○ Access member functions defined outside the class&lt;br&gt;● Header files to seperate the written code&lt;br&gt;&lt;span style=&quot;white-space: pre;&quot;&gt;&#9;&lt;/span&gt;○&amp;nbsp;Enhance Reusability + Implementation Replacements (e.g. faster version / different OS)&lt;br&gt;● Levels of abstraction&lt;br&gt;&lt;span style=&quot;white-space: pre;&quot;&gt;&#9;&lt;/span&gt;○&amp;nbsp;The higher the level, the less detail. The lower the level, the more detail.&lt;br&gt;&lt;span style=&quot;white-space: pre;&quot;&gt;&#9;&lt;/span&gt;○ Whole system is the highest abstraction (E.g. Google Search Engine)&lt;br&gt;&lt;span style=&quot;white-space: pre;&quot;&gt;&#9;&lt;/span&gt;○ Designed by inheritance (later)&lt;br&gt;&lt;span style=&quot;white-space: pre;&quot;&gt;&#9;&lt;/span&gt;○ Utilized by polymorphism (later)&lt;br&gt;&lt;span style=&quot;white-space: pre;&quot;&gt;&#9;&lt;/span&gt;○ Composition also plays a factor in structuring the code.&lt;br&gt;● As you see, abstraction is involved in all OOP detail&lt;br&gt;&lt;/p&gt;" style="text;html=1;strokeColor=none;fillColor=none;spacing=5;spacingTop=-20;whiteSpace=wrap;overflow=hidden;rounded=0;" parent="1" vertex="1">
                    <mxGeometry x="40" y="5180" width="600" height="270" as="geometry"/>
                </mxCell>
                <mxCell id="20" value="&lt;font style=&quot;font-size: 25px;&quot;&gt;&lt;b&gt;OOP Concepts&lt;/b&gt;&lt;/font&gt;" style="text;html=1;align=center;verticalAlign=middle;resizable=0;points=[];autosize=1;strokeColor=none;fillColor=none;fontSize=17;" parent="1" vertex="1">
                    <mxGeometry x="10" y="3320" width="200" height="40" as="geometry"/>
                </mxCell>
                <mxCell id="23" value="" style="shape=image;verticalLabelPosition=bottom;labelBackgroundColor=default;verticalAlign=top;aspect=fixed;imageAspect=0;image=data:image/png,iVBORw0KGgoAAAANSUhEUgAAAdIAAAErCAYAAABq/QLnAAAABHNCSVQICAgIfAhkiAAAABl0RVh0U29mdHdhcmUAZ25vbWUtc2NyZWVuc2hvdO8Dvz4AACAASURBVHic7N15mKVVdej/79p7v+8ZqqqrJ3qAhqYBZRAQZJBJZSYMIoIoRgmONyZmuDG/zCYxN7nJdUrMTYyKhoAKyNh0QzPLJIMKyKBMMirQdDc91XSG9917r98f76nqojWxadK3B/bnec5TQ1efOtV96l1n7b32WqKqSpIkSZIkG8Vs7geQJEmSJFuzFEiTJEmS5DVIgTRJkiRJXoMUSJMkSZLkNUiBNEmSJElegxRIkyRJkuQ1SIE0SZIkSV6DFEiTJEmS5DVIgTRJkiRJXoMUSJMkSZLkNUiBNEmSJElegxRIkyRJkuQ1SIE0SZIkSV6DFEiTJEmS5DVIgTRJkiRJXoMUSJMkSZLkNXBlWW7ux5AkSZIkWx1rLcYYXIxxcz+WJEmSJNnqGFMt6qal3SRJkiR5DVIgTZIkSZLXIAXSJEmSJHkN3OZ+AEnyuqQCCAggESWAKGhEoyA4wCEISAQm1zIYQHu3JEk2txRIk2QTUwQVECJGFVEDakAMCoQYiKYE8YgonU7EmX5CGWk0cgxSBVoiopbxhSSVQAqmSbL5pUCaJJucsC6DrG7S+3yMChicq1P4NhKEzDh8CbWaQfBELRFTHVNTDKKymX6OJEl+mRRIk2STqpZwhWrlFrRaqpVIjIKIwZmcsihwpgEIQZV6zSAi+NDGZh4kML6kqymQJskWJRUbJcn/C0ovkkaUCAbECDEoqmAxWIQffP92vvJvX2R0ZCXGdFDtYkQZD8ivzG6TJNkSpECaJP8PjSeT3pdAxBgwRIwJPPv0I9x33xL2etN0LrvsqwwPv0jmBPWCaB1ivbe3GnsZagqmSbIlkHa7nX4bk2STEcBSBb3xJVrQCAaHoMRY8NLyn/Odi7/COR89kpkzZnDLzfexZnXk5JM+SKM+Ex8sKgax4H0Haw1G0uvgJNmcnHM451JGmiSbnGoveRTAgArWOhSPsV3anWVcdtmXeeepBzF9+hgiSzn08F2BNXz3u0soyi4awIgh+IDLLDGWpIw0SbYMKZAmySalyESVrgF1QEYI1fLs2NjLXHb51zj66L3Yfc9BYBh0mFptlHe+61BGx57j7ruvw8cxfCjIcov3BVmWbdafKkmSdVIgTZJNbrw4SFAMigWxdLttFi2+mHk79vHm/edg7RpylxFDgTUFmFWceMr+PP3cXTz203swrgt4jHWUPgCpejdJtgQpkCbJRtvQpdXe16mAWlCD95477rgFMR0OP+LNWDtGWQ5haJK5AcpylHpN6R/scNoZh3HnPQt58ql7iVqgKmSuvt79jz+WydW9r+YxJkmysVIgTZKNIR6kAHzvE653s79wiwJKRGN1xCWUbe679zpeXHoXp59xEPV6hzJ0ybJ+VAWRjHq9HxFP5gqmTu9y8in7cPPNF7B29XPUjUWCQARVT4gdxEYwApr1br0j4lJUjzVJkk0mBdIk2SgRISDjZzzV9LJN28s81/UwMgaMs4gIGgMvPv8Y9967iNPevT/RPI91IxgyNDQQqe7TUMNIHSGQmRY7L6hx0sn7cdklX2XtyqUQFCtV1a91io8dfPQEEVQN2vvVFiIpK02STSsF0iTZGGpRMlRt7xMBKEHKXhZYIJQIBSGUoB7vR3jqmR+x6JrzOedDZzA4tUE9q6EaMaJELXr3EyZ9IyFowBph1113ZO995nP5wn8napsYItbkaDQYYzE2gnRRU51RRR1os8pQkyTZZKTVaqWXq0nyqk3ehwSY3CRhXXERgDWW4DsMDy/nwov+jRN+7SDm79KPc6NY6YIGrMmJ0eOsAhY0Q6U6e6ri8aoIUyg707jp+vsZGxng1FM/RJbViUarpvZWiQSMCqI5xN4Sr4QqwCdJ8t8qy7J0jjRJNp7t7UMK64Lo+KgzM1FUJCrE4BkbXcnFl/wbhxy2gPk795HnbZwFIxZrMnxoYYzv7WdOzkqrxvYalBDGUFnN8SfuD+ZlbrvtqirzjZY8a6LeVl0IxaOUvfFrqbI3STa1FEiTZCNVJ0SBiX1IqYJrzBFqvazQUnZaLF58IXvtOZsDD9oJm68m6DBC1Yjee4+1ltJ3Ju4Z0V6Te3qN7QW0oF4ryfMxjj9xX55feh8PPXgHxgTaYwraQGK9F+Bjb5l5PKAmSbKppECaJBtBUbQ3cFslVgFVXbUkGzIkWlpjHbwvufbaK5g61fD2d+xPlLVY0yWzARGPQciyHGOglo/vZfYa0/faCRoxGCPUMotIFzFDTJ3W5dc/8HbuvHsRjz12H5k1WAwa66A1QoyoFKi0gLSsmySbUgqkSbKRVJQogYnUUS1Eh8ZqObXRdNx629V0i2Ucf8LBONvGaEkM1b6o9EaqVZ2Peu0Dsayb8NL7s4n2gtL72oBIm1qzxWmnH86113+TZSuepPRdRMCaGsZkKIqxHiUdf0mSTSkF0iTZCBMVeqK996tApyj1muLjCPf/6Aae/fn3OeGkA8hrHaCNqMGYDNHxRva9vVU1Exntul/LyPi+q6hhcqDV6BEtmbt9g/eddSQXf+efGBn7OcaUdDpdRGsINcAiqbl9kmxS6TcsSTbSeABVeuPRRHFOKXyLp5+5jx/+6Gre94FDmTajQHUUX3bRCLE0GMl6f3t8/7JXqTs5I5UwqYhJkGirm1qsqaMayLKCOTs4jjz+DVy28P8y1nmJWs2i0UGsEUJG1SgiSZJNJQXSJNkgrxymLQiigr7iKyJRC1at/jnXXv8tTjrlLUyb5oERYhwlr1lCtFjXR4wW0UlHaBSqal9TtbgXrT6eOGZjADdRDawRMtfExw7GjrLP3rN54x6DXH7F1+l0VqMxYI0j+hxVM+mxr99CMEmS1yrNI02SVxjfn5x8+8WvidECBmyHGD2Za9BteUZGlnPhRV/g5FP24Q27DxLDKLnrJ+oYQTuEMIiVGoExnFHE1BEtsLZDp9vF5dOBMUJQiANYyQixRebqCA5lFJFOdV7UNFD1gEHJ8EWTxYt+gGE2p5z8EYyZSoyOYAtsFlBvkJghCDGUGAs6Ph9VqqAt6WqQJBsszSNNkg22fmCNiJQYCqJXCBkxRALDXHrllznk0AXs9obZhLKNxeGLgMYanXaD3OxAUfSRmZkUZR20TrvbIqpiTYMYLGVZo+hMw8k8Ou0awhSiZnS7JUig9ApkQMCIYESxEqllnuOPO4TRkee583vX4P1wFSgl4GMkRiEEkGjIXd4Lmor29nljCqJJslGcavrtSZJ1Jv8+yHpv14naJnMGU9TIspxVa1/k2hvOY8FujgMOnk/UUfIsp+x2cc6wYtkYl17yXa684gGwSr0v8olPnM7RRx/IwECNGLsYmULhazzz9DD/+Pmv88Tjq8hyz5y5GZ/5m99hzpw+8kZAaFRdi0yXdY0bIuBp1HPefcZJfPP8JUyZNou99joY65oEb6revNYSfG/fVWJv6LiACKK26pCUevMmyati/+Iv/uIzm/tBJMmWYf1xZONvJ+9VjlfndiF2Ee2j2ym55fbLiTzLyafsA2YIZy2+ULKsydKlw5xz9md5+MGXOPa4E9hpp7lMmzqT876+mLHRFvsfsIAst2icxo3XPcRHPvQ55szaiQMPfAu77DqXbsfwxc9dyG677cAuu03H2QHAIaYcL3Wa9DMYsjxjp/k7s2jRFewwby6DU2eiISd4RTCIgUjZK2Yab2VYdWmSFESTZINZazHGpIw0SV5pvK1eL3hONKWfRCLW1AilYk3BTx65m5dffoT3f/AwXLYW1YDRat8xlPCZT19ILW/yj//0P1mw647U6tBpe0458Wg+/rE/Y9c3bMd73/d2li5bw6d+/184/Yyj+KM/+Sh5HRoNZXht5MtfWsRn/uJiDn7rnzB7DhgTJzoryfjjlkCkjTWOOXMH+ODZJ3PRxedx+umfZKd5byGKIYZQdVEKASOK0stIVSYVOaVrQpJsiPH4mfZIk2SCrvd28pJu9b6IYozgu4KVJg8/eAc/uPdyzjnnOJpNxcSMXOrE6MlzxxNPPMNTP32aM888lr3ePIu+wTVI9gJTpnY48KAFHHXUoVz2nZsoyz7uvuteBqc6fv3so5k+q6A5MIbKMFMGM8466ySmDExhydV3oqpEuqz7Fe49Ng1kNoK0UIaYOdty7HH7s3jRtxlauwyNLayNhFhgRKojO5MGgKc63iTZOCmQJsmvEGNVYGSdELWk1RrGuTovvbiM2+9cyHveexjWrcWiWJqgdYw4wLB8xSqGRkoOOfwgkDWUcSXIMFGX0xgYZq837cTTTy2nPep4+KGnmL/zAnaY10/QFZRhCGsDWd5h9vZNBgYGeO6ZIYpuRDUSJwL+eDBVRDxoF2MKMtdljz235+1v34eLv/NvjI6+hDEFIgFkvWMwUv2MSZK8eimQJsmvYK2h9F263RYhdmk0LcuWPcPll5/He993NLPnCjBE9CUaHaI1rMlQDaxctZrCF/QPOArfIjc1rDiCtlGGqNe7lEWk0wmsWtWmbyBH8hY+dnHWoUQKP4yrtag3I2vXdikLA+S8ImNe12oJIyBSYsVTywN7vWkOu+46wKLFF4BpU/oOYsaHkY9fAkKviX5a1k2SVysF0iT5FbwvqNczrFOsi6xc/RLX3vAt3nHMAmbNqSEEMicYU2Ctx5ediSYIu75hLlMG6zz+xDM4O4UQDBprEPtoj2SsXNFl1pw6U6fn7Lv/Al56cRnDawJG6pShBAIhKsNDHdau7bDLroPUajVU11+I7QVGkapkKAaiFogU5NkY7zhyLwanRZYsuRQxgeAVxaGsC6TVCLckSV6tFEiT5L8iissMPhQoJUXZ4uprrmTXNw6w15v7cJlHgxKDIcQOqkNYU2DEEqOy/bzZDA4OsPCK2xgdEUQywEKYwZoVg1x52W0cd/yR4FZz8KF78fijP+eu25/E0IcxJUqb6HPu+d5zvPj8Cg4/4mBsppRll8l7uaJmomiIXgt8jZGoHswYtXqLU089kueff4r77vshKuMFVaZa1pXxvr4pI02SVysdf0mSCdpbLXVVgkcXg0LMid4CXa659jz6Bzy/dsI+uGwVIoozGWiBMSXGKmIdMSrWGZrNGjvusDtf+sdLWb1qJdvP3YHR4cBTj63lL//86wwO9vMHf/xBps6MTJs6jaFVGRdccDVTpzZp1vsZWtvhnu89xd/+9QWccfoJnPG+I7FZG6SLtb1dThVk/BiLQrW2axABEUE0ohpQlF123Z3rb7iBaVNnM23adhgyQBHjq3FwmiETr69/8djP+EQaJtULJ8nrlbUWay0yNjaWXoImCQCRSNXwIMY2NhtGS0G6syDm3Pn9K1g+vIh3vfsImvXqCIpMCjDrinVeGYDarT6WXH0f3zrvRu656xF8CXkNznjvsfzRn76fHeYNgi0wJuPFpaNccdntfONr17L0xRWowoyZGX/+55/ktNOOYcogmGwVxrSreqFJVbe/nBB8dayl6nJUY/VKy3lfv413n/o77DR/P0IMmKxNVoOiqFWPX7XXT3j8GJAgEhBKRAqiGFQdKZgmr2dZlpFlWQqkSbJOJIqiwQGeqGupOUt3LOeB+3/Ik0/fxhnv35O+/gJrI9ZsWBDpdDyZm87qlbD0Z10Qi6uVzNuxTl5vkeWCDwV5VqNVFuRmDj9/psPQ2oIs71Krt5m/8yxEBGMCmFVkDqo2gb/qMQgaLT4UGBMJKEZm88SjI1y96Ed88IOfYrvttsdrBySgplZluL2MU3pN8sH0PucRPCrS219NgTR5/ZoIpKOjoymQJgnVoO4ieDKbY4gobUKxmp+98BNuuO7bnHPOqdQbJX3NDKTEmA351VGUghAt0Q9gGSRGENOi61dhXYH3ber1PgDE5EQ/AGEa4Ig6VDW077TJMofGApf3lnWlwYYEsrKMOOsIsYOxOZE63U4/zz41xs03PcBZZ32cadPmEpFJR2rGA+l4UwrXy07Hp64qKum4TPL6luc5WZalYqMkWUdwtgYilD4iWufll19m0eJv8f7fOIKBwTZ5Zum0O8jE8ZNffauanwSs9USGURnC2A6NOtW+qhG6XY+qRbSa5WJtSYxrMaaDNYZ6LcdZS/AlGhpoyPnle5i/eHPWVHul4lCFGDs0al0WvKHGbrs3ue76Cym6oxDNetNfxs+YVn18x/v6qlpI2WiSTEiBNEnGKSCGGA3O9DO8puSyS5Zw+rvey5ztdqaW9wEFzWaOxu4G3qkgZGSmH1Ehc5Y8t5RlGxAy20c9n049G0RiA4PBGhDa1Oseazr4ooUz1avevoEBwGBMkw0NZCKCqmIkQ1UwEilZiXEvc+JJb2HGdrB48SX4bgfUVqPWQh0JGajr/bsEVDzay1l1YtxckiQpkCavS6HXc1ZVUVWk1+kn+oAVpdV5gUsW/gNHn7gjO+/aIMRh0A7WBbwvsNauO27yK25ChqrBGEOV2ZXUajnGZAjVzZo6zjmgg0gbMUMgK7GuhculmjtqPUGHsFnv2Iryq78/vbxUAAzWWKyh+llMi8BKjj32QLxfzd13fbe3H5pjpIYvLUbqjDe0R2Kv0X06JpMkk6VAmrwuZVlGWZa9AFo1nw7eYyWiOsIVV/0r83cr2He/PkRWYYwQMPgQelnrqwkkVZEOUoJ0erey9zmtWvZR9m7jS7IBpSSq4n0dH5qEKHS6XTptxYcNXFpdL5iOz67JjEMkYrTEZR1OPuVwnvvZgzz80A8hBoqux0qORlNlpeMZqPTGr72iYjhJXt/c5n4ASbI5hBAQkWoSSlninENEKYsRvnvrlUzpM7xp93156qeryW0DQXBOmDV7Gq7uwWx4Via9ySyvHA4+6diMxHVdhWITtI+oHUTA+5xP//mFzJ0zhY//1rsx2SArXy5p1mHGdmaDHwNodZ5UDGARyTAqxKgYIoNTI2ec+TbO/9ZCag3LHm84GFWZyGTXFRcZ0Nj7uZIkgRRIk9ex8aw0yzK63S7OBn7wg2tZs/pJTjvt3Xz47D/guzc9SC23lGWgrz/n7z/325z5/v1o9nWqitYNNvlr1x0pqYwHUkGpQayPr8USfYPnn1tB9DkwQKuzkt/+5L9y+GE78qd/+oFX9wOLIlq1BkQtvizIswbt1jBZpkyZVuO09xzIFVdcwJTBAebN3ZtuV3GvOGWj1RxwTXukSTIuBdLkdSlGJYSAquK9xznL44//mEd+ci8f+I13YLPl2Czwid96F2eedSLWKRdfdDWf//x57HvAn7Lf/rNZN7sUXpltwit2TTTvfXq8+1B1nIReP16kAFMAoRqPJq63DOyJpiTESIge5yL9Dcvnv/QJpjT6Jn2v9Sa5vOLxMOnzAlhELRqFzDXwhSfLBojawsdhdthpKiefegBXXHku7zn9k8yetSshBqypHnscn9UqIGmWcZIAKZAm27xqSbNaRLWARTFYY4CIaolzyuOPP8xNN17JRz96GlOmrkRMwGSBwWmW/Q/cGcWz47zf5dab7+HlZUMQd+WOOx7k/h/8nKjCXnvvxHEn7INxo6COH/3wBR579GlOP/NYliy+i+3nTeXQw/dBy+nc+8NHuOuuRxA17LnnAo4+/o3YPOBcAx+7rFxecPGFN+NyeOepRxI1x2U1ilhCaXjwR8+w/Zx+Zm43j8w1iXGQu7/3BPf+8HHmzpnNUUcfxMKrruKkkw9ixx1nMLQWLr30ek455RiWLR3lrjvvY8f5sznuhLfQbM5k4eW38MyzP+fgQ97AW9/ex24LtuOII/bg2iXn88H3/y6NxjRiNIh1FGWBdQG0Oksqv9BZaXLZRVr8TV4fnKZXlck2TTGqVVceAcWgKkRVjECeG5Yvf5Kbv3sJ7zz1CKZOVVTaFIUQAzg3CDqIxjY/fugnoJYZU/u5+uo7+MJnFzOyWjEm0PUln/vHj3DM8fMRzbjtu49z8beu57lnW1x/7Q84+yP7c9Chb2LJkjv54hcvZGRkjKJj8UWX//uVD3PccXvjfc6TTy7lL//iWzzx6MtYZ/nJT5bxwvPLmb/z9ohAUWRc+M2bOPig7Tn00N0pikEuvvBWvvDZK1AiU/r7ePKna7joosuYO2ce8+YtYM2aFp/5zMWUxUxuvOFOnnt2OWoKlq9cTbNvkHP/7SrWrh7lwgtv4yvnfpQDD9qPt+y3C2W7y+JF5/GeMz6OMoWyG6k1G3R8i3qeoz5OGgc+qZGDTs6Ox/dx03Um2faMx8+UkSbbuKqVnY73wpUu4LHGoepZtepFLr/8Pzj2mDez++5TMGYVZRgjMzNRL9xz5xN8Qc8DU3DJxTfy4bNP5I2770jeP8Z5F/wZu+78VtauafGpT32aF5e+hMiOoEIIhuUrOszZfjY3fPefqfWP0C5fZP5ujm9887fZaf4CfKfJxz/yGZ79+ROoWUDZtZz7tWupNfq5696/p9knPPDgw3zy4z9GzTDYNeBbiFE0NCnbU3n2qcC5X76R3/ztk/nQx99Blufcct0TnPfvloHmjmjMiDJCVLjzzh9zwYV/T72p/N3fnct5513Dxz7+Lm645fOsXFHwW//j73nwgcfYf/99sK7DWw/dhaUv3smtty7mmGPOxmVNxlpjuIatjgBpNby8sv4y87jU/SjZ9qVAmmzzYu+M6Pj5R5GIUtBpD3PdkovYf/8d2Wvv7VBWYIzHYCgLg6jywI9+wvNLn6M5EPib/3UORx15BPX6MDvO3Zcf/mCYc37917HieP6FFzj8iD1RsSAd8qYye4eMsz98OJlbS6BNXz6LnefN4+EHn+RjH/xjojesWjHGUUe+EWMy2u0xHn3oGX7zk++nb2AEZJS9957LLgvmYo1HpAN41EP0OZlr8NLSJ6jVW5x++jtwWQHqOfCQPbBZSeHXIKZAo6e/Dz76sRPJG6uxVpkxzeG7Y7zvfceS1dbS6Ff6+y1LXxwjzxt0yuXUcssp7zqESy+6m3vvvYMDDjwaZzNyEyl8YGIM24TxauTJ2WcknbJLtnUpkCavA+MXdtt769EwxndvvpQZMzxHHL473i/HZIEYc0KZV40IJON3f/8MPvUn78ezHCd1ynbEh4zPf/ZrXPDtOznnN04nBsf3vtem0y16sUTxoaTZV0OlIEoXiZZOV/iH//0vXHLptXz4Q6eiYYBbb/4R9Ww6oejDoaxaUdCsTwWtlpZFG8QgVMVJWVWoFC3W1oAua4dXsWpNi3qfwTgPCjEYVCJRO8TYxZk+RB39/YJ1XTRaDE0sNRqNKSBrqeUZMSp5bvChpJYL3g9Rb1rOPOs4vv6V62n29fOmfQ+m1WpRq9XXqzxe/9978vGgNHIt2ball4rJNk4J4okGVDOIdaKHO26/nrJcygkn7ot1Q2TOY8Wg0ZK5AUQcxkS8vkxgBdYOo2Y1eS0ysrbNddfdyV//r9/ir/72t/nI/3gntaZFrMOYOsFnWFvHlwYr/RCrTkGdVuSG62/kr/76HP78rz7Ghz56MlkWaI0WmNiPcwPM3G4Gjz36NJYZWJnH2lWOsVGPeotoH0YHMTisBIzrsu9+85k1ayZf+8ol/OzpNo8+tJovfO7blF0AwboMDTmhjPiyxAgYk0GwZKZJ2Qk4MjRGNERCLHEOYoxY6whhhL7+Du8563BuvuVCVqx4ikYt6x0l7ZUaKdUM0/Hh4pODpqS90WTb58Y7uyTJtklBSoJGrNYw0fKThx7mmacf5tc/eBi1+hjQwRkHWgOBGAPBdxERXBYIvo2REiQgpkOzIey2ywJuu/ExVi+/ku//4IeYUOe6xXex55umc8Th+1UHRUwXpEBMSfAZjfp09tp9D25c8gjDq5vcc9f95K7BDdfdw5v3n8XBh+zLu04/gK989UJKD5mt8eRTT/Li8y+yz5tnQrAQHMaAmjVgRtlp56n8zz84iz/+w3/l8/97Mbvs8gY+/ek/YOFlNyFGQQ0aS5xRrFEMHmMChgCxJHdC6Udxto6zYF0ghA5Chvclee5QXcvcHabwgd84kvP/45/4wPt/jznb70ZUj5jqOA1Ir+2ieWXXo4n303Um2faMx89UtZts20QJwZM7R4wFT/z0Yb7//Rs4+5yTmDZ9jLJcRpbViFF6vxRjqFqMbTJ37iCDg4M424exYAiEcpj+qTX+vz85i8/8zWUsvvoRPvWHH2Dn+Tvyt3/3ZR544EEOPmgXBgaFufMGKf0QxrSo5/1YW/J7n3ovf/8P/8HiJVfyid88izft+SY+/el/4vv33seBh+7I+8/Zn054nksvuhZCjX/9yh9gbJeZswcQ2yWrGXaYP42BaQYfX0ZsnaOOPohFS77AmqGXmTl9LsR+rHP09zdQHaPe7LLDTrPJai2MKMF3GZxWZ6ddG2BWYgRiHGPOvAaNfiiKFo16g5qZSvDDFL5FvS7M2X6Ak04+mEWLzuecj/whLqsj1AjBYyQjyzOCX7+Dk0K6xiTbqPH4KSMjI+lZnmzDFDUlGgtWvryUyy45j/eeeRTbz7NYuxqRFsY4gjcYk6M6jGqGD3042weSI8ajtBHaWBMoixYum0mr0yR3/aiMEIIHzTAiiGlBzBDJiDqCdW1iLAjBYt0USu9xNgcghILMWTQGnCsp4hAh1sllVzRMIcpLiCg2C0Qdw2h/1bRBR3DG4P12PHD/U7xxj32o5Y6ohgvOW8RVC2/i3K//GfN2qhFDpNYA1bWUpWJkAGdqICVFWIMvS/JsEFXwsQqKuctRjWhsYx10yjbOTCHEGXz/7id45NFVvOe9H6PRGETIqn3ZaHAu7y3n9gKqhF4DipSRJtuePM/J8zxlpMm2z0qNl9cs5apF3+Ckd+7BDjuVWDOEMYKGBjFErBO8b+FsnRggcx6VtdUQbq1hjSUGIWrAiBB1lMwJ7ban3mxhbYFhAI39CBZMG2M8sYioN1jXIMRRxAzhshwrUnU0kmGCgjNTqmCEq/ZqzRBCiZVRFCH4aqZo0IBIIKql26khpuDBh+7nT/7om1hTytGexAAAIABJREFUtTwcHlnD2R86hLnzBhA8Wd7B+xFUDaI1QojYWptuMUStZshdH94L1mSINcQYEBOqs7fG0Om0qdX7qwk2tuCgQ+azYvUabrjpas549weqozCugTUZ3sdJXZwmZ6Wb9SmQJJuUDA8Pp6d4spVavwXeL9dttzj/W1/kiHfswP4HDOBoQyyR2ATpI2qBcV0gEss+RAw+DGGzkkDA0MBKHTDV3zOGqAVl8DgzCzUvg44B/Vi2oyzWktXavUfWoCwMxlrEenxQjDQRqaHSwvuXscYhsR+hTlCl60do1PsJXlEzirNNysKQ5xkaMqIMAx4rdbyOEGLOFd95kMcfaSGm5F2n78eb3twgd5EYMpwrCIWDOBNjFKSNzYToFaWDsYHoG3jfR1YPiHigOkojVGdFY7BEVbCRGD3dcjsuvfR+Zs96A28/4jicGyB4QcSyrmq3NyVG0xDwZNtUq9XI8zwF0mQrJaGaRqJV71dRQXV80or0MshIKNtcetk/s2CXBocdsRf1xhiqo4holTmKAw1UI80EDbXevLESpapyBVdlcxNdegTtLV0KGUoXkQhYNOYT51SrP3dAVs08NVV/X2NqiBhUS1S7iIyPKrPVvUtAxBBixJgIanvN+Mb73PoqW1R6w7YNov0Q66hGxLaJjGCE6nFLQDQj+hzjTO979gaqqUcMvQHeea95fqiWZzWCmIl/44nsUpQy5AyP1PnORXew957HcOABv4YPgsshhA7GBCyO6C0Y4VX190+SrUQKpMnWTSJRYhVQoBqgrQ5nMnxZYm2kKMe4+aaFCM9y6mmHEWOHLPf40CLLDdX8z8kjzf6zc5HJ+rz3KP0sfREWLfwRR779/SzYbU+ieowtUY3kroFvC8ZZYjoGk2yDxgNpumokWyd1SKz1sqXQG44t+MJgpY5I5IEHb2PV0GMcddwhxNjBZYKYiLVVkc9/3tYu+VWMMcTYZvvtp/CeM49i8ZKvs2LFY4i0sJbqDKqPaMpGk9eBFEiTrZSdWA6tmgIIRi2ZdYSy5KEH7+GBh27ig79xJPX6GFlNCHEMCET1OGv/67tP/kux18ABHWL6jIIzzjyY71z6j3TLFSglqoJxOcbZ9Bol2ealQJpspWLVO1cNxLyXnUKMXZav+Cl33bOYM997NFk+SpYrY2MrMUaI2sFaS4jlevc3vrSbbAjnMmq5QaRF1JfZeed+fu3EA7jwoq8xMrKaEBSwxHSMNHkdSFeOZOskHjFl73hKE4k1hMjKVU9yxVVf5r1nvY1Zsy3ELqotBgZqiOlWhTUSEDN52HWqKn3VomBwiHqaDciyEfbZZz677jKLhVdeRLORUxTdamBAr/uLqqKqOOeIMU2FSbYdKZAmWyWlQEyBMxbpVbuOtV5m4aKvctSxezJteoGhg0YlyxxKwBh6ta/jFbBpb3SjSfUCxGU1BLBWcbbg2KMPZcb0jCuv/CalH0NDQfAeEcEYg6rSarU296NPkv9WKZAmWyFFBHwoMFYpyhZFuZqFV/07+x0wl733nUGt1kbwOJOvd45xPAO1vdt4pW4KqK+O9joYSVX4pQahJMtGePe738HQ0DPc/6NbEDpYW+2plmVJrVYjyzKyLNvcP0CS/LdJnY2SrVM0xAClaWNcyZJrvs2MWZFDDt0da4coihIDZDYDO/lYi6z3NtkoEnvneA2itneONiAyAhI49bSDOffcq5i3/fbMm7c3aI1Go8HY2BjWWoqiwJj0Oj7Zuo3Hz/RMTrZKwRusqRNim1tuu4KO/xknnXIQYluUvkOe5WSuGvelPvT+1njm+Z8F0fSicsOVRIre+xbUIgSUIaKuYOrULr/zO+/lmmsu4pmnH8NaS7fbxTlHlmXYVDWdbENSRppsWSRSdQ4yvYvz+DnRbnVWtNf7VjSj02nx4MN38tKyR/nAB49E3AhRuziXY8QQfIkPBfVs/Lzp+gOm9ZXvi5AOPW4YFUHQdSdxtSoq0qgISuYKmo2C0057G1ddeQVzZu1MX3MKLsuJPqDqQRQVqUa99TooCakIKdn6yNDQUIqkyRZCiVL1Z1XNkFjvzbps47K1aBjCSR0Jg2jMeeK5h7j2+m9wzkePZdqMDsYWGKn27KqlFo9QTWUB90u+33hwTTaO8sr95fGpLwAGVQvUefzRUW649nHec/qHmTN7VzR6unEUk0HEomRE8uosMH5dt6ok2cLVajVqtVoKpMmWQ5EqQ8FjiBgVJBoM1RiuMpaYzFCUJctfeoqrFp7L2R86jplzPCJrMCYAGaJ579LuQcoqGGvaxdgcFKGkxs23PMmLz+Wc+a7fJ8+biCsIMaDkoA6VAOIxaYUs2YqkQJpscVSqiSGiBqvgtMRoIHiHyiAdb9E6jBSrOf8bf8VZpx3Egt0GMW6IGEcAyEw/ojlVllQF0onq0ld+t5SMbgryyn9nRRkNowQ/ixtvfIaR1bM49dT3oRLJMovEHNGsl4WW1fzS9B+TbCVSIE22PFKCdJDYwIUGRiOWDuIc3SJDshprWqN885KvcMhBcznkLTsQwlpq9UC3O0aeNbE0QWu9++sFUhN+6bdL9QH//UR+cY9ZMXSLHB+m8J3vfI+p0xdw9LEnYQwYAkYNxBqiFjUFpH3SZCsxHkh/2cZRkmweKhgEUQgiBHK8CNF3sbbN8Nqf8cXP/Q1Ll/2c/ngYj93/ADGCMV00AmRIzJgoRpcI4omik8piftH6O6Xp49f28WQSDa6bY72HBgx3hYUXLWRm3w4ceMhbwa4G2wFpQhj4L+4pSbZcqWo32WKIOkQHCJTEbAyPQahjgsW3V3Dld/6O7bJ7OeXdc3B+CbktiDFWw6rVoFpV+lYiGI8SqgpgqRYPZbwqd2Ksl/SKedPHr+5j1pn88bqpdtVXq0DMcY2CFkMUMpVibYdv/POnmT/3S8yZP5syRKyLBO32Zr4mydZF1q5dmyJpskUQtbiYUcoYXdcFlxG9xRZD3H7tPxOHb+OYt1j6s1Xkfi0Yz7plwN75UJFeJlploxDRaInYia+CVw5QSx9v7MfmV3+9gqqAKymki+b9jLXfyN3fn4Lmb+XE038PtTUKI4gxaEzHj5KtR71eT0u7yZZFCQQJiIVc6gQPLo7y8INX8fJL1/Guo2o0eQYXSoSSaN3EBbvKgBQRrYqWJKJotewovGJpd3Mvfb6aj7eswLn+x7IBgVRwwSBBsLZG6HYReZ7D37IHN95yI/ffsQsHv/0sfLB44zGpT0OyFUqBNNlyGI+XNhoynG9S14JHHlrCo3f/O6ef0kedpzDiCS0wziB0J4pEFZ1IStctOwqiUjVy0F9ecJRsYgLRClYy8BGRQCNbhZEfc/Lxb+SShd+g3ldjn7ecijMNSi1Q0V99v0myBUmBNNliKBCtwaijrpEVz/6IO5d8lVNO6KfhX6BWyzClInWDxk515rC3sjvRlGgiiFrQvOoDSxfwm+Vn2nbJem9/eU6qQFci1nkcDhMNxIDTUWx8lhNO2Jurb/wSc+Ztx/Q5+yC2v9rT/oXvk4JrsuVKe6TJJlXFtup8qEqv9R8O1Wr0mREFLVFKjBUCYDqB9ks/ZfFFf8kJR0WmTXmaZt8wvtvCmhpiLFqMkZleFJ1U7KK9b6rqAFtNJZGSdKRiE9iAdooqitYiZRDEZ2QxAzqoicTM0QrzWLFmPjffUnLqmX/M4IKDKBBMlhGDq45BBTBSghR4q3gyVAQbIynAJpvTxB7pLzv3lST/fRSj1dsoEUWIahDr8GVBLQdfluTOULQLMpsR2iu4+srPst/enjmz1qC6khgLnAPRTnV/Tn8xCZr0rogHQu8T6WK7SWzApUMA9ZBpNQic6MA4sN2q55Fbzcy+KRy6zxxuXfw1Tvn4fGgMILafohvIzEA1xScGooFAJBoFTFVbtiEPIkk2sZSRJpucjRbEE4wnjp8PDdCoG7qdteSSEbqO3ORouZyrLv0/7DD9YQ7et4N0nyW3Wp0vJSLSQUyoTmOkJHOrEA2AYEIOPq8KwVwHrwGT91OE7ei0t+fxJ5UnVu3Ouz7w+1CbAa4PX0KOkPeyX2+gNIAoNlX4JpvZeEaaDm0lm5YKikM1QzEoWvVVNSVBOzgXUTzWOGLZ5vrF/8qU5o/Za89VBP9TmvUSFx3GN5GYAxuUCCVbiImqahQlgIRqSbjMsDEnhoBjDVn+FHu+qUVTfsqtiy+gHiPFaJe8Ifh8jG4+Smk9isNGh43p0pVsOWTNmjUpI002IekFQCXYgmBKolTHUiwCvqRmLHjPrdeeT2vVJbzjsIzB+rNYP4yNBuPrYCwqXcR01/UGSCnpFk8Zz0irozASLBId2Jxut0tWd0S6RBMJ1On4g1ly0xjb7fwe3nbiRxmSAsk7GAnYUMeVg9hQQyUSbJe0bJ9sTvV6nXq9njLSZFNTEI8arQqNFIx4jES0NLjQh5RdHvjhpSx7aSGHHRzot8uxhWJiE7wgtovYYcR0qiCqGagj5aZbCbXrOk4ZD6ZL9G1clkMRMRgckbrtUDePcsKRDV585hruvety+jKLkKM4okQEj0Swatd1qUqSzSwVGyWbmIKUaDQIVfCrRqQplgZ1qfH0Y/fx0H3ncfwxlsHmz3GFwRZNLBGsB9MB2ysuiq6XhKSKza2DgOa9auoO0tvfNJS90aU5eAETIQZqbjXKYxx31B5cdeO/MHOHOWy/4K1408SaSAhVQRoq1X2lF1PJZjQeP1NGmmxiimqJsVWFpTM5BMWpksUWy5+7n1uv+ypHHzaFmQNLyRnDEXpPTGV8rJaqQWPeGxZd9tr/JVuF8TNJvX7HWq3rg41gtMpWQwMN1RKZmDVMn/oEJxxluP2az7Py2UfIyhpZbCIIYlsERkhL+8mWIjWtTzYxQaPgrKX0JbnNcFLHhGFaQy9w9ZWf5dADlLmDK2joWmwAS0BsCwi9xvNCVIeSYfBI6nyzdRFfdaDqnfedOLVkIyoeiVqdK1ZLKAPWlRi/gnnTA2/du85NCz/LBz72VWjMpFbPaXdeptbow/tIygWSzWk8fqZnYbKJCUYadDueWp7hC4+NNbpjIyy8/AvsvscydluwkgYrsV0wKojpQjYKroUKRHUEIEiBSolOpDXJlk8R4ydWEFQzVDNitXCPmpJou4jtgvUEsVgx2FKo+xH2mNfiwL0LvvUff4UvX6Isu9T6BugUaUUi2XKkjDR5jSZ3RTCTPjeefghohjGCqodQ0mm1uebK/2DurGH2368F5c+wCkb7QEaqJT8UoqDRVR2RxCMSiAFE82pnTErSPumWrWrduG62mmpO9TwpqypsUcQoSgQ8qCV6V83q6QacfZHdd8lY3QpccdHfcPYnPs/wmFJrTMH7gGislnt13bKxSrXkKxM9I9NzJNm0UkaabBRFer1tCwxl1W0o5kStob2RZSYaXHR0TYuyVhJCII8tfvjdrzNFf8BBe4xRjy+QmS44UAlVgIy9G4pIwKjHxYiN1daamDCxd5ps4bSqIzIKVYPIbu9WYlBE1029M1HJ1WNNSZQSzSG3bZphKYfs5tlOHuH2675GLQ+MlC3KXnek3Cu10uG8QzGUNlJaT5SAjRaj6TKXbFrpGZZsFJVIlAA4RLPqQikFiCdiUHqZh5TYPKLq0WKUh76/iFUvLOHIQw0D+c/IYxeLIUoguE51RR1PaBWEgCFgVSdqU2T8YH+ydegFS6OKwWMoMASM9v4/J/9/K4hG1CjBRTAlmR2lLss49tAZ/OzxJdx5+7dp5EosBWcUoYtGjzV1Io4oipqqIE1U0jZAssmlQJpsHInV9SnWQGtU2WMbkTYqEHAEo3jbhq6nFiIvPH0vD9z7bQ4/op8sfx4rY5iYYWLWa/9XIinLfP2aCKjrtglUIj52cG6YLFvJ0W/bnscfupLnfnwHU+iDKJSmJDahpSVgsdFiY9VDMpiY4miyyaVAmmwURaqCERGqA4GhFwQF7TWo99YTjafPWJY+dg+33/g5jj/WMTj4HJYVWC0RjRgNGI3pyZiAGtBqiTZiiAK2FkGHEPsSU2pP855fG+TmK7/ISz+9FwmeUizDBLo1T5CIDTnONzGao6YqUEuSTSldu5KNo3nVXci0wIxVR1JiH8S+ap/TdEAKBGF42VPcecO/8Nb9C2Zv9zNsXEamBhNNtRxsqkxUUhPyZNKcUxUIAkFBBgxldxVT+9bSr09z0tubLLz4LynGlmNdE3V1gvHVnn3MsX4QCU2i6VTLvEmyCaVAmmwclWqElRRgutWKnNYJZQ2iwYlHQovO0Etct/D/sP+ea9l9wRpcfJG+mkBhkZBR5bYgaiBmaT/rda+qPBKNSNSJ4u/YKmnUBFOsZtANs/OsZZxyPFx4/l8ysup5og+IKrk1xCJisUjMe8+uJNm0UiBNNooQEUpEDaquqtQVJct6F7GyQ1au4eZrzmXWjKfZ4w3DaLmURiZI4bGm6rtLkOraqeNDwNOF73WrekXVe24FTNSJil7nBFGqorPQoW6XsdO85ew0dxnXL/4SeVhLHhXf9jTqhtJ7xAgaciDb3D9Zso1LgTTZKIYCpyUm1lBtEkTwpk0RxsikoO7HuP2a82nqvRxyYJda9jx9Toltg4YI0gZTVoVKsVZVbJqC1Pbt9U0NRNGqF7NGbBREXbWNoK73RYqlRew+y9veqsxoPMSti/6FehglAyIetaOUYZRcBoil3aw/U7Ltk1WrVqUyyeRVq46lKKo5ESGagJqqGX0tjHH3Teeydun1HPM28/+z9+bxslXVve93zDnXqlVVe+/TN3AOHHoBQRDFBgI2sYlNPlejMYk30SQ3uZ+85L13bzSJn3fv02tucs3VJC8xRhONisYGI3ZIoygKAoqiKIKIdNKcczj92Wd3VbXWmnOO98dctfcBNUoCnIb1/Xxqt1WrVq1urDHnGL8fHft9urZGa0uMgayjaBUw4iBOJN0Gu5DmSlst+sctKhAxqd90PKwLjYWe3a9FRlEbic4yN+wwikfy5esnWbb2BZz3oj8gaE5A6eRd6qEilnaetOVRodvt0u1224y05d+GiTkmdBAimIog4NVgbORbN17KfT+8lKc/ObDM3UuhEV86rM1xTog+YsbToTIWdoitkcfjHkGxi3Z7S4/0QzSRaALBenyAMDIs6wxY09vOs88esePei7jl25cSpcRkBcPRiDxLbVUtLY8mbSBt2Q+ThtFQkAo1JSohya41z0hybA6JBaIdVErUDDFUZDFy/w9u5MbrPsyzz51izYo9GKYxZDhTUFUlajwqumgIoqYEM0pScQ9jTcd99irjnkOTFtiowqlAHK+3CmhqpQjW4k1OEEdAGm/T/d/ZETUnkhMkI4gjiiHGDLRIbRnj5SMESW1AqqZ5H0s0Fm9Szp7UnnKiZIuFL2kZaTnRQBBDaS2lGw9s28UNrirjOPKg/sooEEWah0l+nbjFZS79v9lGOn5RgWIJktxYxqSheYsnb5ZjCJIR1UHMk30dBi+OYNJyY2PPnvxGZWm7Y4nkiwpXD5clab/xt+RDikZUQrJhswbBQDSIn2V5bxsvePYUN17/Pu79wfXJr9Rk1DJPlGpxyy++B4KoWXyAaY6llpaHjzvQK9By8CDRYmKX6PahdpZoFI1TELMmV/DpOSEnBocUireK9yV9q8xuv52vfuKvedn5fdb378bEndSiZDLEALmLSGiqigLNl1HKOMZ//xmHddO11kC0xGiS0m+jtqRExDaOpQFcdNR1h5D3GGVdVCfJdITxAwr1GNnXXGwNMfYYjPrYYhlePU4Mxg7RWuhgCGYHkg9TgAtAZjExw1YBCYFguyyoJdgC8QUTcYpKApF5CjOLhlnE5IjLUAZoDNTqqLOMipKpINhokTpiukIYgViDhICohSwj6AhyJWDT9sQh0SHWoGYBcUqoQXAY47HWEYYR4y3RLyf05ommxKhC8GAN3maUarHSI7cVvh4RJCMjI68NsR6gvcjAODLxZE5RdfhKyQChAqdJT9d3IXZRhlgz/zPvV1HFim/apx7yAlXMfgtRaqyLSEwG3x2zh9W9Ec9/6vF8+bK3sW7FJiaPOJ55U9GhwNYBjGJdhq8jVh02phWLRqlFiE33aisK0vJwaQNpyyIqShRPCnAGiRaNebpIS52cV0yNqsFmgWFV4rJlZKFgbu8P+MxFf8F5z6xYPrWDvFOmIg8RFI/R/YqIdP8f9Mf8/acjjEf8dJyLpgWoYmwTl61Fg0Vjh/nZk7noygEXXX0fZZhldRH5/decylkn7abbn6Uz2aEaGfDK7rkT+Nu/uY07flhhxbBxI/zh753Kqs5OVq3pM1CPmpo8I302Isam9RmEjM07n8C7Png3d9w1TcfMIRp5yfOP4BX/YSMre7dQz4/I6oKgBlcECgG3x9OzDrU1ahXbyanLGslJpua1I9QOomK7GT5GylrpZoqpfGoR0UgIFrSDMTUiJcEbBiFiJSMnw/ZgpIEMg8YuWtaIqZG8ptMFUy7gokddTcg8lVekDrhJC7YmjwZTTRICeFdSdEq0TmIcWgpqkrsLKMaEJI78MOrH5F8x0ZD9jhEV03jTyuL/rJYctd5z3jPX8PGPvoVf/U9vwC3bgDUdVD1ihSp4RPLkbysBkbIZyMgQzR7eyra0NNg3vOENbz7QK9FykCBpvjNV0zqIfUyYQLDpgmNGqHiiUbyW5C7D+AniaJ5PfPR/cPrJWznhmPuZKvZCPUJMTowB26jvPqKr2nxdHARs+iTUmCSorxlllSFmPZsfOJ4//O838e1bd3HamRvYsM5SOOHij9+BRsPJp60jilL5I/jK9QV/9D9uJu/lnHDsMo4+MmPvzJCPffQeTjh6HWuXVdgsICaQO4NUgqkmqcspvFvHV75ueMP/czsxFhx/0jpWHRk4Yl2PG2/chrCF006pyaJC7BGLCUbZAF9HurViK4spLNKxDGqw/R61GyEdpdIM8inQEaJKqAVnM0xdEOuMEALORRwOqW16Tqk4exQhClmnAwihnAdb4jKIPmK1B2WOuA5BK5wKhIDaPjffIdx65wo2bHJYM6D2DpsJUhls1kcKR1kNscal6mvNwIQ0/NoYDoht7M4e4SRPyUE7jaxkbDR1HQFPbxmYLHDtV77NM57yUvwoR3KHukAZKjJXoKEZ2ZZm+qJxL2qz0ZaHQ5ZlZFnWZqQtS6hEoqlTcIodJPSQmDfzpbHJWBVVxagjdxmD2W1c+bl/ZM2y+zjxmAET/Rni3Igsy/F1hcsthEeh2EMlXfQUxk38GMWIofJgXB80ZzBawVvefT/T1vKnf34CT9gwR7eI7Nur3PidTfz1X23m2JPXc/bTNrBjZ5c3/c13Of/8I/nD/7SRldl2sk7Nlt1TXPCBZbz9nffynr8/jrXRQGUwMWKqCsIqajPF/bstf/n/fZ/znrmO3/jVjWzc6CHfS/CGhbl1aNiN1XnK2uKKI7h/d5fZziRdq6yWeVYWFWoXiLFg4Nexc6djxdouu3cNmJ+dopN12bgu4Kth+pxVh7nBRoYLHVxR0al2MlHMIJ0S9ZY6HMd992zCFYHu1GYme7voFRbJO+wbZizMFqybXMH03h71/CRM7mbV1DSUC9Sj07ju2u1843vK6nUbOXr1Dib7QllXoBPMbLUEa1h/5DLqcg+5zUBrxI1S9XWISf0qSjN08EgjjQNRTFms5hgcRT6g8ndw6gnHUg/hsx/6e17yqtdTx4zgPd1+xnAwT+Emid5itItSgxlPMzjaqreWh0tbbNSyH5oKgdRB7CDqGsXTpIlLdBB7aOwjsU+9sI9rr/lbgr+Y5/xcZHlnmjDnyQ3gazCeGEoenRoObSpbYpoIbTwvNSpgiCHHyBQ/vGcvd+3czvNfuYITT9zMSnmA7sIDrOvPce45Kznl9PV88pI7GVZHc+PNu4hTkZe/bAPrOtuYjDMUcS+bVgde8bKTCNZx5Te3UdcFNvSgNkisibKD2NvJDT+4BcmFX37FKk7YeCdT8Xamqp0sly2sLh5g/UROLFcQesdwyVeF3/o/7+DFv3AnL3jxXfzfbxnwzenlVM7g/XI++uER//l37uaGq8/iv/628msv38Kb37yTB7b2KMsOvljGD2c7vP6tO3juq7/JOb/4Xd74V44tc+spM8cD5QTv/HjFz7/mSn7+ZVfxhjdu445tU8x3uuyJU3zwki6v/eO9fOzLK/n1P7qDZ/3ytfzOG7dwy85Jhp1jeO8/b+bt77iHq75yP6965Q386f/cx8xwGXf88FT+y+u387JX3MbvvOY2rvtyhnEdqnqeGDuIdhGR5J2mBnyWvj/iez82ZuGRNK4tSDRIKJnMa7pmK2ed4un4b3PV5f9ILiUSlFgHVEvE1UQRNEyhcRlgwAzTDVlLy8OkNfZuWUSBqBajDtSieFQ8UGKA0RA6vUnUC1YH3H7rF3hg8+W8+Oc9PfcADIbk2oNQYVyJlTrNHT4qjmfjqk5JQXQsJQcYk+ODABkz+wIyZ3n6Kcfh7H2ErqceeaS/gnKUs+HEo/jSNbuZq1fzg3sGnHDkao5eVpBlkVEuzLsO1kSWHQG9dQW3blNeEBU3qdR1Sc9YJHhs7LLlzoJNmwomV5X4ToURoTSQmwwbA84sMBv6fP+Hy3nL393Ei3/hCbzx9DOwWvCuD32Dt/3lNt73vzdRdPdhJyJb9tR8/opv8tu/t5G5OMV7L7idK6+o+I1Xr2f3zsAH3r2DuT2Wt/758+hlGXfeejM7ts+ycvUqrr5ylm9eV/L3b/8lHBVfvPQWrvxM4KTfXUfXzdCXih2bI3fdOs1//6MnU9kR//TpO/nH9+3mv/3embzkF1cy4wfcenef1/7yEzlm/R560uPaq/eyZWaBP3vP2fSzPdz+vds5xzh6Ezl+VKairUamSlXTNMF4/zySe98ko/eU7drGQTxZs+GhS401D3DO2T0uueYz3HTDOs582otYGGbYIbDfAAAgAElEQVQUhaWs5shEiXQhZmhMFehL7TYtLT877dBuy34YTLCIuqY9pSLKKFXDBsNEsYzRQkknF27/3mf56tVv51dePslU5x50YS+560NpUMlRQnOhexSHPX5MpmtQyIS6DsRYMb17gAwMq7KVaL2NKgctHJ7IwM/SX96nrJWRX2B6JrAs7zCBp/YL+CnPCJjMFGUGVygzQ4dkBXW5DTKPmowYa6oB7N0CXVNgTGqBKbGUdU6tGRN5B+p5JPN85ev3csoZk/zHX/GckN1LHBR0fvN0/uc7buKBLUPWbRwyjEJvufB7v3cq69bvYHvlWH6FY2Gui8YpfnD3Nr5584C3veXJPPGEXWRxyDlnThAnOsyMJrnsc5vZsOIpbL5pB6Ms4O0U1371Tv7za1fR72VU+2bYsNrxf/3umay0N6OdefrLl/On/3sPw72GE46Y47RjlN3bA888Y57l3Vl0MM+aSWHlCsve+ZonnXsUp5/WpdbN1GEOY/pN9rlf64oa0EdDZSOmAytIqt4eZ5JRMJqhYumYaczULbzsF0/lAx97N/28z/GnvZRqWFN0LdHPg8lR7aKxaNax9bltefi0gbRlEVGwmNQTSUgVulITAuSmQyxrpjoV92/+Jjd89W951jkjluUVOhjRLfqEUYl1kSCCSOpJNTEVnjw6K9x81/36KwTU10BJlgU2bIS8E3hg606OXS/Y+RorFnElU5kwvX0361fA2skRpxwXufLavcwNVrGyZ2C2ZEXfobVC2aPaFzj69C4FHbLQQUyFj55glKynnHgCfP3agKlXIPUD2MozZTZQhgVskUENRkdsvXfA+tUF61buhO2z2LzP2jWTTC7L2De7j6PcSqwxuGzAxrWOMJpnons0We5QNcSYs2vaEHJl9boFcu4jpyLrd5nLLXt259z/AGy94w5uuyUwYyMLFo5eD6O4g2whkNspYl1iZB9W9kFZsqa7Hr9vK37fDN01ipuNdNXjwgyZ7sUa5UXPP4q9g1V84B/u5Yuf6vNLL17N+c9ei+sPoSzTvChV2h9KKkJqDN8f6X2fBiGSMq+RmMze1aCaI8YiZkTmBmThFn7xeadz+ef+lnVrn8Cy9ccyGAVMVoOdBQ1E7YH2MDJIxvEtLQ+Ddo60ZRGB5A3aFO9EUaIIPloy10PiiL27b+SKy97MuU/znHT0iLiwi8L0iEOwTgn5kJCNCCagMbWfPBqOLiqaiqMadaTxlTUGiNFTFKA6z8aNGb0VwhVX3cvs3DKsX08oV2OH65jd2uXb12zhOWevZJmZ4czj+9x77wxfvy1SxRPJRusoZlbDwgl86xuemW1Dnn/GamQYyLSPHQrWKNLJ8DLL6Wcs47Zbt3L11buo4jqsLZA9HXJZTlnmEFaSs5qNawrmp2F6boqwbD0L9HlgENk1P2BqhYOQMZz3FFZx5Yh+dGS1EKNgyDA41kwa1hQGnV2GVEcQR6swC6vpLnRZn3medAL8wf9xDh/95C/x6Ut+jos/+wze/76nsbo/ouMNufbI8g5iIxpWUpZHMjfvWL6soN8dYI2lqgoqySmzHuWoRO0EE929vPa3j+WCD7+Us595Ku/+h7u543sF3vcINiZxDdWlemp5SIvTI8RYzJ6YRB/UKFhtiuKSPy4ookqXWTas2MKLfr7Dxy98Pbu2fYeu6SKhB1KjZh41Q1TaId2Wfxv2T/7kT958oFei5eAgiS6kVoIURCPRGDpuknoYiOVuPn3RX3DqKTMcs2EGV+6hJwYRIZbz2ELwNhBMuniaaDBBmjj3yF6kxkJCS2o/6X3EGVCl9h7vPf2JSVy3z4Wf3Mne2Q5rTzqLmXAMt9+znPe8+1YyW/Frr17N+rVzLJsq2LK95hNf2EVv7SaWrTqZmdkNfOm7Q971wW/znGdM8MoXFMT8HsgXsCZQmcgoJFPyFZOruG+r49Nf2Ma0Xc7EUccwH49mx3A5X7xqhq0PLLB203Lc5Ab++cL76XSOZdnU6czVx/DOD36bhTLwW686gtwKN97q+eF9M/z6i5TM7mJgO1zx1WmOnuhx5hk9ir7jm98a8o3v7GPFpuNY8OvZvr3PwvQ061f12L2n4MKL72bZiSvJ3QSmXM23vnY7R63eQ1Z0uOb7kc/csJfOqg5rVh/PtvmjePu/3M2m45QXPEsQmeb2HSWXfTNw9AknsnJZn64zXHnlArvmpiglp+iu4OrP3cT556/giCP3kDuP+C5iIhBBYxJqeKi4wiNCUpFK+15TNirNcWEiKkleQaLDkhHrObrLPDHL+PoNt3PSiT+PsytT64upiMYDgtHWeK3lZ2fc/iK7d+9ub8MOa5Zk5RI/OUMwCq5WxHYopSTmNUECYQhFGHL5RX/Dmv71PO3MEf1sG9QLdIwjVh6xCi7grS52pJhgsEEQo494NWQcN5Bq42VKsnYLCtYZVAVwhNhhrl7NF6+OXPTJbXz3jpLcJRGeZz9jLf/l9zewdt0uOm6WUBdsn1nBxy5b4LOXbGF2JxQmmUr/x1/fwCtfuJz1vfugN4+vI5kCOfgIhpxQT7Fr5hg++ul9fOpLd7FzH7gKcoVzntLjt157FCc9ccRCNcGVV9Z86H33sXNLie3Amc+c4Dd/+1Se/oR9aFXz0U8tcNkVe/jMBRvQcjczspo3/eVeTl41xWteu5JgS7bu6PLWv7yf7922D2p42pMm+aP/uowNR1UMqiO44CMDPn75nSxMp8/x0het4U9eX1JL5L2fWMaHLt3Jec9dzfWXbWNuN5x19hre/MdHcOzazWhcYNvMEfz+67dzzx0lL3lulze8bi233Fzwzn+6l7s3p7ny3371E3j5fyiYWnE7RksyzTDjalrfaOaa+IjfSKXbvvF87NiHr6nchmb/G1CHVgHpWVQi89Vx3HDjCqYH5/OCV/wBvlsTsxpju4RhQce6RcnACKgJRPFE4xEVTHTYmGzZUrBuL5+PZ3q9Ht1ut3V/OfwZ37nvP4/444OaU0MnZiwMB+QrHLPVHoxV8uC55vL3Mdp9JS8932Cr++jkCwij/e7edb+vi+98gEkX2zL0ibqeHdsdu3cvA2MJcYYTntih77aRuQWoB8QgRLuCqlrJ5vscg8EkYhV105x2ZoGONtNxQ4g1hBpr9UGj1gFHFZdT+dXcuzljbmElUKDVHCecsEB/+R7U7sC5CeqFo7jvrh7lQp867mXDcftYuz5A6TFq2DcDO3eOOPmkAmKg9JEdu6CbZ6xYETGdEhHLzi1r2L1jDdELK9fs48hjdiHZbuqqQyw3cd8PJ1iIHcQOOGZDRX/idmLW573vs3z287t5x4efy96t07A3csw65chV89j8PoKUYNaw+d4j2bUtY/maedYetRfrumzbvJLZ2Q7VaDdnnN4j6k4mJgfEuIAjsOgzG1xqmbKpFepAoAjYjKqs6HSEejCJ50lc+hWle+R5nPPSVxNsgYYOuZlAYiPFqC5Na1hPMBXR1oiC8x1czEGT49GjNv/fckgwdn9pA+njgcVKSv1Xo5sJkAehcgPqjhIwFCHw9S9cwI47LuQXn7+Cjr2HLK+gmiETf9ArwShCdD3qUYHoKoKupPYRmw2JsgdrZ8hNRQyQW8FLl1D2EFlL7QuiBmy+gA876PZr4nCeLM+RusZYA/jFwhcVIdgJqrKDyhoq30M1I3d7EHbinAfj0WhAu6nnkpwQSsSl/kbCUrdIljkEIQSPWEtd1akIKc8pqzlsBkYnCXWW5AZdjbELiKkaEf0e6ASVBEIdyCJknTlCWMn73x+5+PPbeN9nno6OtrE6s0i5j8yUqMwjTvBVjmEjPhZEGWDyIWJs+nx1Rp5B1HnyToWwjxA9uQ3NtOg4kFqw/pEvNnpYx4BJ88vWEr0S3Arm4ylc+uV5jjzutTzl3F/C9rrMD/dQdAoECzGZ1UexjfB/CppWFRMFGR/5rdD945pxIG37SB8X7FeFqPATa8wkEm1NLUO8FqhXvv+da9lx5+W88NxJpuwWSj+DzyNZB6gO/mNHULQa4GwkBiFzis0NtZ+hKEqIJZaANUL0gMzjXCQEoSgmqUINZp5ep0biEJcpEmpiFDCGZHYZkUbxCb9A5mrqUNPrThBixNm9WC2R6FCfE2PEuFl83IfrCYzAmYK6VJxTRCCoInlOGI6w1hJV6eSCGEMMQzoOytqTd6fB1FgjGEzSpogOY5Sg0xi3F6eWIu8gFZg4gjjN8okOR6/PyPUe8mIBhgHrAsZWgMPXBucykD1kGEIUNBhEA51sCE5wrks5nMNXJcbENDe6X8uoiIKNj/iw/sNGIzbrUg5qXB8k24Mtv8vzfu6JfO4Ln2Oqu5aTzj6PvFvgUdCAmIjRNMxrogOSfnDSnK7SkK66NiFtAWjnSB8fjC9k8pDHQ3d9jZoRUSxozta7buaai9/My5/lOWLibhwLaJExxzxFFsmrR2Hq69HAgvdgpCDSwUfFZB50RIyR3AIjkE6OakUMgrF9ai9gBUwJWoEquYE4EmxRQAgsyhMSm2IXSUHQWbxPCj+GiImC1qAxx1hBbY3NIrFWTGapB4rYHOMCGgIxJCH8qJZx9SnGoJp+VgVX5IS6xBUO7zV5wwabWkCa9RKbAqDVDKqAyUtUhGG1AZMdwYK5kcmiA/sgF9DuiFBbrF2e+mPDLM4qhgJCHxWPyQZEDUjMsNbgQ4BMMBqSmwwwPsYM8ij1kT4MImAc0Ti8rfExYK1Fwjru33oKV1w74Dmv+G+sOf4MgnTSdqNu5kQ7mFgkqUyUaEvUjFA02QkeBBMYLQeOxTnSXbt2HQqXwpZ/M/sV+ixWuC5lpCKRGCMiEG1NZYYUcYrp++/j8xf9L55z9m5O2ngPGdvBW6LJCUUJ0ZP5g2Ee9KcTaQK+CGrG7RKpqtQ6CCMwkhGrCC5ghOQugoABMamoxCjE2mAkQ0PAOFgKEApEggrG6P6WoqCGWAnGuKRoGD1iGx0BXao+lvF6ETFG8LUmI/SoiDGNWpPijCJGCF4Q4wh1xFkLooTgsQ5iiElMXiwhBow61Hts4YlR8UyA9KC7EyrBVRMYHwmdAUIHrYukmesGKXiLg7pIQhvZCEzKnCUKIaZ2l6hg9j8gGoUjeTRqjR4OzTb2xlChyWzAByyOkT+SLfuO5uJrHC991Z+y6ogzCUQkS3PhNlpMKLCxALUEW+NtCRIw8d/mt9py+NDv9+l2u20f6eODH38V0yZTMFZRaqJ6MIbB9E6uuPCvePZpFccdcR/O7EBNJGQpw8oqQ+7NIRFEoWmOkUbmPHpQj8TUskKdRCgkCNZarIyfGzEERJMM3bjw2IokfXwrTctFU3CigqpN/1dBPEjdTA36DDFdFEFswGQGMRlCF+ghdBCzlL1aBQlKZkBissc2MZJLIJeYWjRCss+23pDTx/guJmSkXRRwAhIsUuep19WVmAw0GFQzJOaIpnlxaxSxC2hWpkCoijERi2JU0vuHgElaTZigqRA3kGzdSIpS7iHH2aLa3oG+VR/XCEjEGkW9wYYMCZ7cbGXNins492y49BN/gSzMUGCxatPNUwaYEqFMrTwIqh1Ucw6N28iWx4I2kB72jJvrxsO5412ernBKIGoFUmOkhuE+vvTZd/HEY/dy/HF76ehOhIA34G2NmhKpHfgOh8yFRGV/4aPFnDwVxRiSVqtJD8xiTZZI81xNmVeqfm6emxbcLD4JV6gYIjY9L6b5NYmNfJ2twYalBZqAmhK1Q9RWqAnN5nzQGu7380N/J7UVmRrMCGzZ/KxLH8749HeJjbMPRClQ+oh2kim2z1LfsIlE60Fdk0jWjVKQXar6Fr/f6AY/NkDu3zIqmm4qDjiS9nHyLAWjsfGzdSCGbuE5eu02nn76Xi7+8FuIs/cj9QLWGEa1B2dQUyNSNapHybKtpWVMG0gfFzz04iwYY1AC4Ol0DFFHWJ3lqk+/gxXZd3nKmQsU/AC0BslQcSymZWhjj3UgP9PDwTQBgaVHFIg2qS+RBChUdKnJ/6HPVYvquIKzmRddDCZjQYC0bbQJqjTi/yIeMWX6TkwPaQy1xSOkvwP7VVgvCU385N9JwdKUjXNJuRTopPmfVClhjrZZt5QqixkiDJG6gDplV6kAVRvR+f1aO5q7CjWL6Xqzrjw4oI4ldvf7u4kc8HnEdKgKJhpsBEsgiMdHCNInDIesLvZw+lG72LTyDr742f9F102jscbYPpU36fgwddp2NHPiLS0NbSB9XLDfxVfTI8ZInjuiBqp6SIgV37j2Usz09Zx3VqDj7kTNHOSpdUCUVPavgK3AlYdIpRE0E53Ng+aCb1AMKkI0Ctaj1jeBwiy1NYhA0ntqgqii1qegG/cLaDLOMsNio37aOimMmAhGFaMxPSKYIJjYPIJgYlMw9KAI9a89xjwkuD4Ii4QOJmZARKTC2AHGzGKYxwSThoCjSR9dmgIqSEHZeJCQPjeWKC7dKCApo8M+6H1VFVQXj5c0GvLv2Xf/PhSIJhBNRKJNn3es3NV11Cg2c+hgln5nntOfsAfx3+Cr115EXQ2J2kXMJBFHNBGVCqRsttOhcvy3PNq04xOPC5pMJjW+pZYQoKoqbA4aK2656VruuuULvOY5U/TzOwlM4w1Y24FY40JgnKmpC+nSeajclMuP9s8qSlRt4mUKfim+/mg1c0STUs54YnDRFqwJEqKLNdBJrzVlp2oMRg0SHGljhaX1UAONQs5SRhuaUfiffoFeDJsxg9jM10mdstPFlbHpfyqIKTESUTPeHCngEbRZVthvW8XU/9lk6ZI8DBazZTVp/6dsfny7EJbWabH+qvmL/LgK8ccI2W+fQBoliIrkgVEoyTIllpEOhrB3hpUrlBc+92jef+llhM4mnnT2sXifYSVDGYH4ZvPuf+PykJR8kfgT/t5yuNEG0sMeSQIAoigeGx25GMpQI12opGbL3d/ijq9+gJf9nGWqcx8is1jRlImGCtHQDF3sNz92SBGWhmAbBE2OIQDEpWue7p8Rptekodgmx1RdnEMdTwguxlVdGuKRplpafpIXp6QseNG5plkX4WEm+hLAVM0rH+JaIrH5X3re4ojtGKOQjZaGqRc/ejP3ii6O5Isq4JtNlFYwSQE222r/WDKOpjrObA/cATNuZQUQiUv7LER6BrQusWIQF8kmhDjaS2/K8sLz1vGZL/0jm444nVVrnoTN82RYrhEbkvSk2pgK2BYPnnG2CyohjXQQ083Uo2Bu3nLw0La/HPYIKhm+qsldIMPj64jJCwY6YseOm/jCRW/kl8/P2TBxHx27hwOpQtPScqBIIwpCrcKQDQzCqbz/wiGves2bmFr/BLLCEX1Nrn2UnNr4JhOPjdSvQVOtcxpOloCaJPloYhtID0fa9pfHCQqUoSLvZJgYiGGB4Cqq4PFzs1zzqXdx/hmOlSv3EPMB8UCr0LS0HCBUoHQgLsNWQ1aa3TzvGcplF78JH7bgFXws8LFE7HyqujZVmjc1JZgqVfZKnUY81CAxa4bEWw5n2j18uCOKuMionscZgzFdXF4wHG7nsov+grM27eKMTTPkdhvqhktVny0tjzNUIGSGkVcKp5jB3Tz15GnOOWuBCz/0ZoaDXYDDZILXQZqTJhVjRQlEqVOVtNTQ2BHa6DDaCjcc7rSB9LBHcRKxNhLEMBg6qoWaL1/+Xo5ZeydPP2MIo63YUOLaooiWxzmKYi1Yqcm7JX7hTp6wYZbj1s7x5Uvej9F51Chqs0WXGDRr2qZoRnQCtulVNYs93C2HM20gPdyJivOKVahioOh1uPaKD9Grr+Ppp+2GcBu9fo0LDlvqwdFA39JyABBt/GNNhuoIlRFFt2TK7OS5pxmy2a/zjas/wmg0TekFK10IBYYexAI0J7VaRVTC2NGUg90hqeXfTxtIDzNU9UEPUTB1pGsK0Irrv/oRFnZfwfPOzplyO7BOiQpWLTbYA94839JyoDAqdLxFvCc4JViSQb0fMRk389JzJ9h212V86xuX0ckMoaohGHxpMPQIPmWmqWgpkqqcYxtGHwe0NmqHGQ/dn0aEjjH44Rz33/M1br3x7/i1F/RYlm3G+kDtukDEqcfEpCvbxtKWxyVjEQkT8U7xYlP7TIhY9lBEzwvOPY1Lv/ZJVixbyZlnPp+6VKALwWAl+demNqRxAN2vbarlsGN8vW0z0sOU8Q5WDYz8LLu2f4drP/dOXvm85azq3oeRmaTsEztpDkf8g2XhWloejzRiFamtRdM5Yg11NaQoZlnd38aLz5vihqvexQ/v+DLOzCAyQAmEGKFpf0mPtKT2lDr8aTPSwxRjDDFGaq2ZndvCJZ95Oy95hmNDdwsmzENhkr0WNTamzPUham8tLY8vxkJMKFlUojQKXk6QnhBlREc3s7aY4blPO5LPf+7d/OqvrWTFilMhZqjJiApR0oJkUYjhoZKOLYcbrbLRIYyopAbwsV5fozQjYohGCVIxGOzgkkvezjPOgqPWTON0QAipkjBaj9XQNJKbpEd6gD9TS8sBQwWsNtW2SXFKiVTBYPKcclRSdCtstYNN6/qc//SjuOjj7+fVr309tuiCRIx6bPSpohdJxuxtS9lhj+zYsaO9VToESWoqhqhdVCwqQ9QMG81WR9SSQb2NT3/yrTxl9Q942rEVRVZCWAATCNRJMm1xeTA2l25pefzyUP3c8U/yoP8GCkZxHV+77Qju3H0UL3/NGxFTUPhAES2mzlHXZ4BBxSNSP4afoeWxYmJigl6v12akhyrB1KgJOF+TRYuJsXHwsJhYY8Jebv7CBzl+dCdnHeXpdXYSYo3Jkk1WDBFjHzKSq7JkgfWT9Ljb39vf299BB3TNHp560noW5n7I9Ze8n2f/wm8S3XKmVTC9Dt4ItSrdKOQPkUFuObxoA+khShCLSiSXEbkaJBQE+qjLKevtfOe6S5jb/G1e/rwjyeztaJWE2Y0FsZKC7oPGIhpPC22HoVpafhrGWgb1kGV2Cy99ygl89vPXcdPlyzj7JX+A7xSUpoZY0VcwsT2nDnfaQHqIIrGXzD3iAqqRSEElPUZxxF333sSNt32eVz9/JVHvQWOFmB7WRIg+BdTxrfViMBUW51kPGZ/RlpYDgyI4A1nYAUF4wdNO45KvXM2dRz+ZI085i05h6fiSiVqorGVk2waJw5k2kB6SCDYUqOZ4E4m2BKNEnWfz3d/gus+/nVe/dD3LzG3k2QxelWCK5rWN5ZVIEmx4UAdUO0Pa0vKzYLTESpls8pinP7WH577wJC74wt/x3Knf5ZjjzkCMRY0lqAL5gV7llkeRNpAekihOS6x4RjKkzsDXJbO79/KZiz7MeWedSjW3wE5/HHuJBCNEY9McqMB+ppHwkEDa+ia2tPx0vIkEAg6DjRaloJYOTzrpSD55wd/zB6/7M2RqDbHXJVSQWUsIYamB35gfEU9pOXRpq3YPUWxwWGOY0xlsR6hm9vLW1/8xC9+7lhOXT1L4heRnbQvUeJZMn5sgqjSKK0vLFGnmSNvEtKXlX6USqBDQDlYFFz2WGpdZpmOf0cqNvPb//Qv6J59Cx+Z0oiGEgDEG5xxlWWJt6wpzqLNYtdveFR2KCAFDCIbCTZDVs/zg6ss4OdzPs85fz3Fujk6toDnRdYEFhIoUIQ1LpfxNs/hiqW6kbRxvafnpqIlEgaA90IwsRmwMoIYyW8U35qf44nvew6v+/G3kkz1CqMmyjLquFwNqe+099BnvQ9m+fXu7Nw9BhAxq6FGx9Zav8LV/+RuevGLIxnIHK0JJ8AHjLNEJJgyw0ZMy0RRIl5JObRrGI2Agdloj4paWn4LaEdHUVNYQxeE0kvuAVpZKO0z3T+B2VnJXvp4X/e7rsCs3oqqLAdRaS2yreQ95JiYm6Pf77RzpoYkSmMe5kun77uH6i9/PyVMl69hFN8wS6ojJOvgwj+Sxef6YwHhodzH7XKzSjQiRdmy3peVfx/qI9UJeRMq8ojKW4DJyawgLI6bM/Zxg91HP7uTrF3+IZ/zGH+FchrUW71NWKtKeZ4cL7dDuQUQUiAZcDLgISk4lGUEiuY0YPyATQ1krRa6Uuzdz8Xv+ijP6sxwlu+gPdlEQUGMgBnIX0FoRA+NR3IQ+uN5oP8S0d8ktLT+VmE4gE5UsgNgkdBJ8SW8CfD3NehmRd4Z8/ruXc+OKNZz/C6+ktgWuKIgCPkQ0dhCxjcpYnW5k20vyIYdr74oOIgTUBEQjIik3VMkQCyEs4GJAtabXmYDZ3Vz2nn/gics8G8JepkbT9AWMKtGBSrJusgq0qiotLY8sVqFQRMBFcDqeHkmt2Bmg5YjlJnLO+imu+donuL0QnvTCX2Eh1ERrwVjEOGK0iAaMKELbx30o0g7tHkQ4jeS1Eoxl6ASocXEG6w0Zjhi7SAazc3v4+kXvZl21mSM6C0xVe5i0Hqk8GFCRxsKpLR5qaXnUkP2+/ZjTTFBcrFnvp3nKlPCNz19AvmY9xz71hdShm3pQ7QjBY3HY6IhtecIhSTu0exBhVHFR8TiCAUOJ1RIXDJEJvGbYesj3r/sCgzu+xkmdvaxnxIQM0WGNWJoAaogIiEn1ve0ubmk5IBgi3XKaTXmA9au54fKP4HpHsO7U84kEtN6H04rMTeGDafy/2xP2UKO9/zmIUAQvFtTgAuQhYlQJuWFoPZEh37/6Eu6+9EOcu0o5xs3RL3dhyyEmS/OeKmYxI22LhlpaDjxWI5PlHMfGfZys01z1kXcw/cDtEEf0xNBRQYhUJBvElkOPNpAeRARjqKwDlCIEsmDx0mNgOtRUbL/7Br532ft43nrD6rktdHQBqQLkBq1BdalP1KDJau0Af6aWlsc9GVgik8MFTjRznN6b4aoL/5rhzjvJyED7VNEs1Ta0HHK0gfSgwqBikVBiiQTTYWSnqOkwfe/3ufb9f8YL1g/ZOPwhUzqD9RWSSapxyB1qMyIWUbAasBrbuoWWlgNMUJOKi4isrHdzqt7PsSWGvWsAACAASURBVDPf5er3v41YVZSmB67bGIK3J+yhSBtIDyJEFRcUZwy1VWb9iIBnsPkevnPhe3hGb8j64WbyOA14oliCZNSS4yUjiAUEoxGjkUXf7vbcbGk5QAiiGZ6C0josA1ZXO3iynebowf1c8i//RKTEVyVdaOsZDlHaQHoQYaLS0UAVAt5arIvo7nu46cK3c+LCvZzq5un4OYzTxSEgbWT/lGTKbfAY/IN9Rdvx3ZaWA4aJaYolWIhGsdGzqp7mtM4s/o6ruPGy99L1s7gqtKfqIUobSA8iVAJeRxQTE/hamfQVt3zqvSzf9i1O6uyjCLMIQjAZXsGqx2rAEJqh3BqjS0FURZIBeHt6trQcIBTwOB2SxwrUECVHUKbCNGdmO9h19UfZetN1iGkHjw5V2j7Sx4RxDa02JUBNBglNQVCTXVqldsqgKulF5asfvQC9+Sqevm7IZNhDqSWS9wi10DU1NpYkM24DmgQYFhGIYog4hHrxPVpaWh5jRBENZHVApcvIdQjUdMyQJ4SSVauP4lMf/QeGxXI2PekZzYsa7Wtsc61YEnxYkiVrz+mDhbaP9DFACDitcerxkrNgpxhpRjc3uHIGF0eoQMwmWAgZWZzj+9d8ksGtl/Dc9crE/B6c89QmA4RujJjoIU2JsniCPSTxNBrbINrScqDZ/7yUikwj1kCoPHl3gk41w3mrc2644M2se9MHyZdNYSkxtsfQr0ClwMiIjFkMnqgFUSxJsqw9tw8ki/6yB3g9HgcoY5MypWlRUcGIJdYBi2KdIYhQVoG+GDZ/82q+f+n7OGPZAlN+Jx2pISomgg01hhKR8JAT9EcfS9IM7cnW0nKgUAQVATO+qS7JNCDGUEUQaja5Wc5ZvsCl73wTox13keeOQR3IDOTN1E0QS8Q2wi2hPa8PItpA+qgjKI7KdBjaPrXp4NTTC3P0dAGJNVU01KZA65LZ277GrZ/8AM9cPcnyaoCVQDQeI5Es1FitiVkgtoPyLS2HDD8S8mLAiiLRkxulGsyyKvOcHO/luo+8k3KhxmWTmDhLJ2wn0wUiGaX0ATBUP26pLQeINpA+6ghRLKV0GZoJaslxWtFniK0XwGTgeqhXdO8WrvqHP+PciZKNC7tYFQZIGIJTEN8UF0XUpArA9jRqaTlEkP3yR6UZYYqYWJFTMZnBRJzjFLayauf3+erHPgize7FmhHEDREYYVYw6okgyn2k5aGgD6WNARIjiCI2XmVWPIVKrJbg+MUTM7HY+/5638uRlQ9b6nfTCPpwJ+DI0rmcCRpoh29Rv1p5LLS2HAvKgb5DqA41RTKihHmHCCBcGrJCKJy+HePOV3HLJBYjxzJAUz/JY0wkVAUclnbYa/yCiDaSPARqTyIKNNU4rUE+NpcomGWlGnN/DVz7wVk63mzneTdPVPeT9SPQlndxivBCxBGNREawH6w/0p2ppafnZeHA1/eJfg2JFyK2SUZMLEGH5aA8/N7WPma99ghuvvhzt9BiSY1GcLzEuY6RtW9vBRBtIHwMMShzNU+ApbMQ6xyBaNOtSD+f52mc/wtSumzletzHhp7FZRSkjYg5aRUwwoIbapGBKkNZjtKXlkEJ/5FcZ+6/FiNGARk+UHBtLlsfdPPNI+MGXP8Xt37yOjnOpnU0DGmoy1166DybavfEY0HGWwig5FdVgnjpEnHMw2MOtX7yQ4a1f5KkrRqzxu8l0SJSaSpTKgBppOk4hiqYeVHW0u66l5dDhQZrXDzVmakr6jSomBjJnkHpIb7SDp/bmuPVjf8e+228EAnRyJFZkftBW7R5EtFfjRx2lqoaI1sTg6U1OEVXI/AI7b/oSu6/7KKd29jBZ7Vt0a3ERXEiC89FE1AYEj4s1EiNYAdPuupaWQwFpXIJFoel+S7FT0n8X29VUcVoRJeKJTBVwrN/JuRMDrv/Q3zLYfidKSSaevFluy8FBezV+DHDGYI2AscwOa0yWsfW2b3H9R97Bc9bMcTw7yMOQIA6MkAWlW0MWI8EqtYuIRLKgGA3UTvGuPYlaWg5FVMeh1aQK3P3S00w9MVYUkw4th6wa7eG40TZOZidXXPA2GO5Cfd1YJrZzpAcLbSD9N6ONbJcylj4YP2gei7/HQFQlGkNU2LvlHq76l/fwzCNrVo/uZ1LnUr+oNu4tEWxQXGyEwJq9JM3wT5RIlLb9RcfXEU17IzWsO5LDOUu3/SoPetE4I0CFIIIXk+afRKilk/ZZ8/ooQpBkT5dIrwmyf3axlGaoGqLY9Bg34qeXNfss7WOVtOylnSgoFtXx8mX/VV5c3/FH0dTav/gxgeYNclC739940IGiAtFAEEOUDkTXvK4xg9fmNePXLb7BYl61tKwfYx4/3h5tIcxPQJuJGmFpvHd8DIkSY8BYQ1XWWAMZkRU6ZFM2xxFxJ5f8898TyzmMMU0Gm9riAGIqR0LUYDTtyNAcdy2PLvZ1r3vdmw/0ShyKWNIBrGoIuEXVkfFFS8cXRixZqBCjDLViNL2Va973V5wp2zmObfTjPhxN4FRNgvPJmxuRpAJo4pK9khiwqjzea/aaaz+mueAH46ikRyRDQo1RRSvBZx00RIyTlPFTgI1oBNQyFCHYHqqKGsu8rCSnxNRJOarMHV4nUVWsCYCjMhZvzf/P3psHS3bVd56f3znn3puZb6tX+6LSLiSENhYhBAiQkDEgDDZtwm262+62Hd0z446ZCdOeiO6I2cITjpnxGO9tu7ENXgCxGG0YbSAkJASS0IIQIAmttaBaVFVvy5d57z3n/OaPc/PVe6UChKyllvupuFGZ+fLl9m6e3/lt3x+ihggEDGKFWBuC6xBNB48lqOByCyGgDrwVjO8gBIKFyjhMHRELUS2eLqKBymV4NZjY9AwbELGICEEUiRBMQSUdjPeopO0b0eJ1LRiDjyVqwNQ2nUQ2fV4+Sz3IZczAbsQsRiRGPAIuw4Rw0PCOjKgYVDKiZKgm6UlFiMYiqkuqr3Gk7ywOFdPYioPGouVwAmQrtyNiRvrbFmlUjIxRjHrGux1+uHeGXftnOO2s8yBCQQWhRPOCUgui5mkUo1YogdLZ5m92vG+7XxqKoiDP81a0/oWS/FFLFDOSnF+S5EsLjSbPRgymGKccHqDnD3Drp/6ErWEHm80M3TAEDKGR8VsyonCw9Wx5v+jydrTj/HuRvP1l/pgCRpqduqUeKnasQ1lBLhm1KovkCFN0ZB4bFhCETowYETRkxLqiky0QgWEoMNIj+hIXa4xWYJUwH8i7BdFkAIgJ1KGkFCVkQpSI0woRhwRDnCsxHfAiSHCYOpVrxqzDvMnoFDWFljhb4GIHiX1MNARRgk1y5aLCaLisakaQNPwgi4pVCJocS7HKEAM4TDFBDIaesUhdolJRZwHFkNWCxJySkoWxSXzosarjoZohZHZpaTeNkRQ1yZOOBgkx/S8RYwIyOkENqDgqyVAsVlNZudMVPnPL80CXPlADRIiBLotMlPt5zfQEd9//Fb635WRe/dYrGHoQMlwNHfF4amoX8AgGQx7iyohMy0tCa0hfIJG061ZGIgmphN1oxDRxsaSta5mrYMoIt/7dn7N+x12ct6ZiVewjvka1QySi+KSf2/I8kbTQqF+qeLRaN7HFiOlkDLxjvruWOTfJfU8+w4FBTvQ5WyYqLtoyxeq6T8EMMuijUlDnYzwVutz/9JA5pglBOHdz4MyOYWPcD/OzOLEwMGjHoNYDirEFj8z1eGCmYFAnb7iwhtPXFbxuYi8SakIQrEbQAKIMg2FOp7nvsQXO3eJYbStyrcAaMgVDCt+L2vQ+pSYaUF/gJZJRpZ5kEwlO6EvOsOrxjcdqzjljgqlsL4Kn68aQahx8jaFGosMEgUwZZDVfuH+e+x8Y8tv/bhMbOhlZlcbwiY40moVohYAsvfagEKQgSoGjwmmN0YAQyAAlNCo8h8SVW54nBnSUSkhTnVz0TIRZVi1s45JNG/nqFz9O7Tqc86b3UoecTAXnF5C8ZmgdgYIsWHq+TikLY3/sM7b882gN6QskknJh0nhFadJKRCUueUqj0UdWhK9dcyXmyW9x4apFxvsHKDKP1wzVbrPgRJBWZeF5oybFvpcihxGrnqiRGJVY5AyY5PH5jL+/awff2T1LVSqiwnSu3LWlwy++fjXnjC2S9SwLYZz7nqn59L0zPDZbsS/OEwROHXdcsqXDb1y8iUk/QKyBvMCbEheHhChEO8nd24Q/vXMX0jFMF5b5sua0VRn/++UFJ3UKjHqiVKjVpZzYsK989esH2PSOjI1bUz9hLQUZIb0XMagYTDJjRE2i5zI660TBCt5mDMMYs+UkX757O5vWWtb3BjgTwQfEdZIBrYtmOpcnUOHJoBijdiWxM83i4hyrQ8SNZto24fMAzZAEJdhAQCjp4mWSPA4owgJFHGCiYkxg1OS81PLROkQ/HSv2HtLkq5XcVqyOM5QDz8UbT+aGT/8lJ570GnpbzqIfPZ0cDB6nks6NpdWp5aVGdu7c2X7OL4BIapAeeaJCbBa3lDEyzcLu1POtW29k242f5F1Tc2xZ/AHO1E3uyyJhDBMjYoao8Sv7zVp+JIEcxeHCYhPWhWgMKoIGZZitYoef5q9v/CHeD3n/O1exZd00IZvisR8e4HM372TVWMZvvmsDnbzHPbscn77pYd50YsEVb9jA5FjB0Bbc8uCTXPutWd75xjE+cL5lop5BMke24JmoBJ9NMpCCv/2e5arvzfC7v3Y5Y4s/ZOeg4K+ufpBL18OvvC0jF6WUKSQukmmNCpRZQd1dxWR/N25hASl6LJqC3MwTyOjLFNYMmPAzZCF53tEIfTNJZSZBIKsjaiuczKFR6Ren0h3sphcPgAghGydIhaoBP4ZlgEiJM1DGKa7+dsG9D+7mI//mbFaxH2/6iKTRexGDYLGhpBOGGAU1hoEbp6LARY+jxuCBuGyQvMVowGkT5l6ao9nyE2kKu4KkBhcbI8Sa0axhzQRvc/bW4yysejU37sl452/+F7KTXo1IpBtrXBTQRsABlvrQW158JicnGR8fx37kIx/5P17pF3M0MgrpWg2YtGcnigFbEBSIEauBxx+8mye+8kle151niz9Ap55DrBIdaBRcFETDkjcq7Tn/vFBSyNOoX1G9oYAxhqEZ44Edi9z23QV+6ZJNXLTGsD4MmawXWWcF1+lx/8OznDjdZXxyLV/51tPMHBjyG+86k1PsHKvK3ayq5tg0vZZtg4JHn57ldSdMs0mE7jDSqQ1GUoVwpgO27YftPxzwL8+pWFduJ+tM8vDOBYqiQ2/dOv7+K3so153EA9sjdz08y5YzNrFzUfivX9zJhjVdxsY77Cyn+G9f3o+s28S3djv+9s5Z7t8rbNiwijETidLl2Xwt35lfy5/dtIebHy3Zti+wdvMUXRfpz0U+e+MMq1cJ3TXwpJ/io9eXlJOncPcux19/Y5Z7nw2MnbCVnDFcGOeBvRlP7jnAWy9YQy8scsD2eHI4wR9eP8dXHlee7o+zYf1qJuIiNkQWsvV84SHlynsWeeTJmpNO24Q1ggkDshhx+KXZu1YD2uRZ27X8eaCsVCwT0xyS1gXTeJkxMpZZimoAVrnrwft59VveQZlNojKGU4MLHmuFEpOKjdrP/yVhVGzUtr+8QJLHGbBaN6HZtLgPy0DuCjrqOfDU97njc3/F2eYZTuUZeroAWY63GbWapmiohFiBHt9VuD8tMqpwbmgGaqA+gipVULbvWmR6zSSbJsfolhAXPFm/z9p6jvM2TlH0xnhwu2F/nODZPQd405nTrLdzZLpAjH1E5llt57nwVZsY7K1Z2AVZbXFDD9ZS5gUhDnF1yXissGLYX69ivnca39015Nm5Ab11kzzDOu7ZV3Lt3U/wvR3bsGOGEpiL49y9c8DeME4UZTYOuG1XyVUPLnLHI32yNWt4aE/kb2/Zw3x3M7Nuirt3dPjYFx5BrGf9dMHMfM3ddz2Fxh7DMMVD2wYc8FP03Xp2yxpu3V7zlQdLvrNzSFzd49H5gj+/YRezsrqpODd4TS1ApbV8f3eHv/mnZ+hMbsCsOoFvPNnnG09ULHY3Mi9dvvrdBa66f4Y4tQbtjnHjXbspoyXLukRdOftWD/m/5XnShPAhpKpwsXiT4W1GMA6MxYY+k7qXc4s9nOuf5pa/+H+QA/sZRMM8gregGlAvZC5/pd/RMU+bI33BjBruRpWNadc3VuRIfxbmdnDzx/+MN6xRTq3nGCsPEKKgLifgkDgKiS0b0N1a0ufNQUOqTY+mQQVsqnbBYNmzBzrj43S6Dh9rvHE4G8j9gKIIhMJwQC37fGTPQuDC6YLc7KU2Fb6bYU1EhjOMja0mKAzqmtJ4OnkkmEAl4GxGFMM+0+O7/Tl+//rtjFnYP7vAaRuEN509yfaZEgmW0zdM8e7zA1u7AoMDHPBTRAEbLeO+T1cDM1UkMzn/4xVb8f4AVz+0gUe+/ThzwdGxHe767m7O3mz58DtWMekCsZpkdlbJNVKZjBlgqB1cqOmGkg6eC7ZYLjlrkrqoeGLXAl+4tc+j255k4wljODpkAaIWzNqMm777LJtPOoGLX3sG+fgEd973EPd//2HefvZZFNmQuXqOTWszfu7y89kS9mEX9qFhntoYXNGlDlXyoEgFYBJ9e1r/NIxUjiTV8wdp2uhESD1MTbuRCYSqYlz2c17hePapb/O9a/6eN/7q/0SfQLAZVIFCDFr7VjHgJcZp21/0gtDmbF9aMIiY4LF1iVvYzXV//ru8rreXE4fPMFnvS6LUmSOox/hI1rTLhKaYzhzS5tDy45Fln5OKIdokgGDUQ1Q6nZzpKcuuhSE+6+LDHCLgCVgjDFyg1MBqWWC12cXkGByoB5RjAR1UOBXMYiQLjqqu6StoluOsw1QWJ2Cisugm6RcZP8wyZtwMk6tzNoRF/tXZBedtEhb8PvpmNaYKnLp+ihPGO+Sz2+nKgLFYN6IOAdWcqB163Wc5/4zNrK+20eFZtvRO4WEE7ybo+0Ue2jbHr19+Ipt0hk41ZFh5JjcVHIh9njWr2WtgztYQZ+h6y5TA1gnLicySl4tsWjXOlzsZPywtM4Vj0UJlYbFQKnHcs/sAz/5gP5+++zFEwAmcmhuqxQEbOo7zT13L15/Zx0f/9jYuO+8kXrc55+x1a4mDp7BxkYyD7TCQRgjKUqdpy49FINqVPaYWT5C4JORhiE0qCYJ1ZBF61QxvHM+4867P8v2pLue995fphzEycpwEjEBo1/mXhJH9bD3SF8iSTmazSAiKiwFb9bntqk8yPXyGk8dnWF/tSb1+1qEWxFe4MNpVgneWKEIWBBebGru24uh5cDChlCpL7ajzBVEl+poTNk3w5dv38Pjego2bx+mFRUqgb1fx8EzBzMBz5hRsiXOsmc6554kBP3vWJja7Eg1zqBlSxh6P7FhgajJjfU9w2idmijYj8ayvMKFglfZ4VU/4lXeczFS1h42DH9L1i/Q742TBMyZQYKh8SRYCzkS6viaPILFgaCYoEcZ9ZNIsYLXEkjG7OCR6mGbIYOEARQ/215aFbBKJHi16lLEiM4YxJxRAF08RS4wavIE6r+jHIcZACIu4GMiyHp4JBq7CO+j4mm7ImBB4+8Unc946kDAkm1yPq4eM5UO0nuXEScNvvGM1T1UbufWb26m2LbD+zWuYmuoisYa6XPYXalyrdhF/XigQTZYqszWmmcOqWEJTsNX09qqmjgHbpYo1eQ6rwj7evnUTN9z8WaYnN7P+TVcQOwWVzqVWJGmX+peS1uFfhjTCa6kHtBFcOKyGkCEHiliRxQjREqNBfZ87rvsrho/dxOun51jn95KFgAjE6KGucRox6RvSCDiMCgGaUHFrRJ8foktqFSOpNBd9ypNah2rJa04c4+Qx4cvfnufbw1N42p3NzuJcvjXYyjV3PMOGjvCG08ZZ72reeOpqZvdV3PyQ4SnO5il3Fju7Z3P7Tsd99+/l0rPXsXmVxfsFKCpqFoGAVSWK0lHPVg2sqfawXkpcFohOsZRkBMYCTGqFK2fpFh0GoQf5JKtJXl9lLSKBblTccIFO5lgYWibGJzECWfRsyj3nri341g9meVRPZXvnLHbYM9jdn0TVEcIihUBXoesNzsN+gbt2zvHs2rP57th5fGN2NYNB5MxVFlcFXEy+Ticoq6uK128YY277Tjav63HSievYsq5gehwqPFXRY/tMRT7eZeOWSd73gYv4wY5FDsxGhoMaVbtMgjBtcKTdGD5vDka3VmZ5REeCowdz0BJBAmjeZb72uFgyPr+Ty9YHvvv5jzLz8G1oPUMsxojWYnWIiwNEI14KSjNOZTpYjeSxTD3JbdTgBdNuU1aQjJuiRElmVdC0oyOk6Q2kXJyLEVt7omQEY3A2ct+tX+TZB6/nkjULTA/34kIgmgLRmtwoxMYkL9u+uBiS/Tzk9pbnwUjpKSou+OSjqkCRga9Y353jl97a4RPfWOQvr3uSqcyBNcwOhoyzyIcv3cRYPiSGmotPnWSm3+Wm+7fxwFOzdPP09/IHZjl/s/AzZ4+R2wWcZuhgSJFD9AJ+jDgxhc1KVqkypvO4yhOsEHIY8zVWa0RhUheYihX4LvOmYFgUrBdQP4OIMuGSIeoajy+HuDyn44d0RFmsI+N+kQ+9dpw/vm2Bj133HTYVjhCUN2xc4C2vm8BLTW6h43IYCKaGobNs39fnDz7zGDNk+Nk53nPaOGf0FjAamArQiZA5oRv7vOe8VXzytl38yT89TT7WJa8iG3XAb7xnA4uV4YEdjq/fsYe6N0dVKZs25Uyvyum4GvUDTBJASlIOqm0v6U+JaQRGDuXQMWyiitWSOijOFYj3dGNkddjD69eN843P/x5vnfpfyU+6GNSQZ4JWFeBY8JGYFzg1CAs4rfFigexlepfHHq3W7gokzfuUJDpvSO0tTutUoZtkGBrVFkuQLqHbowxzPHHvjTz+pY/xtumKjYP9jGkgaiRYsCbwo2S8D919tjx/ksfDkiasCBjrEDFEVbyvWb+6y5vPnsYsDjCmw3gmvHFzxa+9tctZEyXGK2Jyegw4ba3jzNM3E/t9ppwwlXkufe0kl16wkVUywFWNgVWPcSBRIHQYAIMyMIHjnE0VnVhjJCAScCFjoRa0Npy5GabzBYiCyTOGVR+tCs7cYlg/HqkWh2DGOHsjrB9L0oVlFZmycM6Jjiz26XVzzjvvDPrPDpjO4IwNwkVndVnVC8SgDMouZ65TNo7DHAXXfmeBX37bmWxxJcYbXnfKJD/7mi7r7QLOBOZr6OU5r9pYM67zTHe7vPasTZi6otCcM3qR914wxdZOxA3mOfOUzdjKY1WZzks+fNkJbM5LxuknGUUTG83d5JIaaE/wlwJRkIiNivUpdiZWUfWMj42hFHzznvs5/dwL6EytYWahxDmHFUM3z4h12dRppEK9II6IW1F13fKTKYqCoiiQHTt2tJ9cg2IIYhgpFdlGVMHqKEcBqsnQeu0RsnFKv0C1+zvc/Mcf4dJVc5xc7qETapxzBAJKneaRtHmiFx2VZqe+XIlOmoySc2BzqrqmiJGqN80+M4GSsdrP0pt7BrERn2UEmyN1jQ1C2V1HzDv06yE2yzCxxtYVXTy2XsS5gEaf8n5q0DDBnHMs5mPkalhV7cKFiNpItB4JY8zKGJp16TFEymfJbEEZlZg51ExjZIjU8yg5pZuAqs+E9WiMlDgUwRnIJTAMQuXGCbGDUUGySFf3I7FPZSeZk7V0/QITtuL7uz3/5Qsz/OZ7T+QNWwtmQ0bPRabZR6fajwcO2EnIetjyABNSYUKPUnpUxRiDOmBCyZSJuOEsrsiZ63vM5CQLNkdyx1i1QDGcIws1mIg4xRtDEMFoEhQwrSDDi46a5tyvUvO0WoNmqVWmXxr6Yyfx3WGH3evO5LJf/88Mi410nEXKPh0r1D6gNsdLlkQ0JDbypqGNxP8UTE5OMjEx0YZ2l5MmWKSEvm36RE2TL03zVlJztCJUToiUVHse5/o//N/42TU1p9V7yRhA5ii9xxjIhbbY4iWhScKl+WJLt2pUrBXwSSWqi2JCxCzuYU13H1WwuIHBaAGxxEmdPEw7hgRDd/AMcajkmRC9wRoHPpAbA3i09EjTYhN9RMQz5iy5DNHhABfL5B1HbXLfnnGZx/t+imY4RbSma5Toh/h6iHFgC0cMFXn1DBgheMgyy1jdR4ww9I5+DUUvxw520Sl6gKMsF7DWp3m3wz6rDKADFgPknTG2CKwOs0xXnnHbg6pPHoYIEZfBVJxFQx+VGiuADHC+j9V9THYckhnCsMLmBh+HTEwIambpINR9TyEeGxWspgW9qS1QTRvSVtXoJSJpM6QLKk1KCjQEJpyl42c4pzOB7v8uX/qvv8MHP/JHzJWKMT2sluSmIsaS2mbU4kAimVZNFWW7Xv20tKHdFaS6/eSNplAuQBSHl5xgMhSXZOisp5x5ijv/7qNcwB7OiHvp1XOAUgtInpERkTocfOiWF42lWa/N916WNeDFOo1NkxjQGAlYjAVHSOIwpofmE4goJlZIFLwWYHs4XcAYxRmwkiZvWFGofSMyo0mOMALGgLP4UCKhJDch5bhgmdKSwUqNiTXGpFYdEUHrOo3Ek4gxkapJjWUkT9Q4g/eRqGmhtLnBWsGqJ9OYKnZDjclSmDlUQobBhQrrAt6meaOv2rqZU9cGujKLCYtkNo1NE5c8mjTBMmCTdA6BiM0U5wJG0nNESV6m5A4fK4x4HB6GkcwBUdP6a0cj1JpWDQ1Y2kEMLwXLlxM1SQFJIE2oVQXvKSx0M5ifm2fHvj4nv/q19BlDjcHGGiuxCeualBbRiJHYLlU/BaPQrpNWk24FVjRphDYVQBFHRUGFS8339YCuFbL5Hdz293/MSTMPcHa3z1g5DyanNgImYmKd5lDSyv69dMiyHfRoUIBinUJMQhfGQOUiUTPyqiATw9AFSjdPRyJFnNBCRAAAIABJREFUmUKkNgPvFtP0EhGikOThjUCUJFbfaK0pCi5FJqJUSSIvhuSZuWUvByHamObHGiUQCRQonsw2LcPNuWFshhpBQ40VJarHOJemrKhJk4XE42IEC7FJMWAaUXnroBaMlhggMzCReabXDbC2TGIVMVWla56GLkhUJCp4UkhcHGoUpU6FcU1LqBpDVEuIgrMW1KNRyTKT5KSauFaU5I2KmhTNWaY81a7OLzbp3K+yNMrResiCQqwRFzF5xIZ51leLvGUSbvrm5/hObxWnvfc/UGLJc8XFBVwoyTU2YwGTunL7t3r+jOxnK8hwCGmEVABNu2wvNsn5uQIfKsaNovN7uO+qv2HD7gc4qzdLV+eJJlBqFyEn8wOsVqhRqszgUGz7Ob8EREYTYFSkye0893O2BEQtQo5oJNMBNgasAuogCjYOMDGmogtJLe9RmnYEAbMkAJEqupO2MngbsCENuFaBYJJhtwFQIZpUEDIKe4paVNJkF9u08Ggz0zYAmAyndcqpC1RSoGLJtKQTk7cbxOLFNcVWBlWD4BATRxFWbIwUOiDTQC01lRGcaFN5bpFoUzFdsqJItFhJYvMiB4uEDCRximZ1FQTTeK9RMlQCSGxGNhhE099h1O/YLsovEdrINRhLEEmRktT7RRSoRbHq6YQK13+Gi9Zu5Us3/B3TZ7yeVaeegxqhCpHMKIUE6qYcsl2mfjpG9rNtuDgMS/6NGqIK1mWoLxnTAWPVHr5/86coH7iZ84sDTMsiMQS8TUOdrQZsiEhIqi4jwYWWFxdZqjCKqOjS5B0VknEdtcaQdupOazCLIAOyWFPUsSkKqlFXIXhMiM0Q61Hl9iE11U2P5GhOcmqMb4yLptm0lRRUYpqqVZPuw6gKXHFRcRpADEEKgkliEqnNqhmdxkgxKzZ9hc2YvuZLG8QQDETxaHQY7zARoii1Sz2cNqb+QCvDZk4reDUEtWg8KJKQjGFyKY16bAgYDxoNGg1Egw2Q1TVZXeMCSDSoOrSpYw+SnlubofY2pnF17fLy0pFiC+nzTd6/RwlplClJmSTNlA1kWrPeP8vPnGS59c//M9Vj38CUs2nz6SxVXZKZlCxpeWG0HukyFEk5LNJ4tKUIXQzkWjKu8zx6xxfZc+8NvGlDxlS5jzCowQmCIdMBTodNuC0txi42QxtaXnRE4jKrBqpNKPYQT0iigETUNPmfAKghGqiTW0oWwUTBEHAx3U9lNA4PlsVrURndV7EKJjZhX5RIARJQDcio/UNtigpraELO2higHDUVBDAx4MQvm3GbBiMUcZjyrPiDt2vESQAiEgw2KJhAtIHSpAhIHhoFHBtwqs3GziGAVY+JyVwHyZIvKSFFYgA1gjdpA+ia+y+VcgpEY9PvaEjvdUlzOjRqPE2s1xhU2oKjl4LQiF5k3qewv6YQe2w2gG40SN4KKkIeBqwbbuOtazZw+yf+L97/n36PbP0pDLwnK7rUvkbFodpu+l8I7ZZxGcm/MaRSo6RqKWqgLhmXIdvuv4WHb/okZ4/3mYr7QCuM7SE6hhkEshAR9VQuUOZpx17UTWiv5aVBFBVtehebCutRQe9oTTDSeJjQWA2izahtQWU71LagdAXBZamCV2syrcliykkuieOvQJEIdrRRirIUNkVt8siiYCIsfc00gjb5x2TSiE1OauTJZerTokjKoWaxTp5lDEsvwWkg00im4ELAhJBy8hIJptHLatqCknyzknkli4oLYBsjSzN4Po5kckTBKcEpVS6UuaHKlOjS7VhFnVK7tCkxzbxdp8roLsLBkYDafIdiu8y8+IiiJuLqgK3SuRgtBJuiAi6kNhZvoJIMUVitc5zJNi6cmuWLf/3/sXfH03jJWAwCNiPqqDDsOdpKh1w/uKlsSRwXZ3haZA9ZXJf9LBiobbqcxQihRp1hKI6aDoUYDjzxIPde+zFeMz7H1riPbjlDLjWZDnH1PEXeSHsJWFWyWOOo0wLVnnQvCSOVQNMEGa2Mhqwf/BkATXj0YH+cAh6rNUX05DHg1CcjMIroHi6910SM7UiJSkaXPdiAGOjERYpYY0wE65s68OaxBTDJYAkeyyIuRpyGlIM99Al/zPUlhUQbwaXXbRU6MRnMJo2JaGhylSl0bGi8y1GRE6mydlSNnG5T8uBTP3QIB5v0m5+7ZtZuOreTwZfla6tEMHUKl7NytFrLi4PRpO0tVsECJm3obGwqy5vDoGlTqDXUNZNxwEnsZfPCo9x73SfQEBhKh2AsTiuCGLy4puxIkiOhaVg7GKzGJFBDTbuuHUS2b99+zH8aQXSped9Ak78ZtSEKvsl72QhdtcR6SBBDbTqpb3T3o9z2l/8n5/IEZxUHyMs+Vuql9piWlpaWI5YmoDJKW9fGsrvYzNf399DXfoi3fPDfEYylYwOVdpIAiIYUGtZUFRwlpbuMNuMfBTwZx3s12dTUFBMTE8eHR7q0XZaVIQlpWhRSpaGgGqnjEGscXdvD1UOyxe3c+pmPcqLu5ESzSDd4aqVRQGppaWk5slERojEEsUs51PGwwIXrhfL+a3n8y59mwihl7CAEHBUWTzP2Pf2vKbIWxSY1pKTX9gq/syOH48caSMoHPedmBasGGw0OgxGo1OBjpFse4Fuf+UO2znyb83oHWGMXCIsLFEVOCMuaAFtaWlqOUKLY1CdqHKFp9+pVc2wpd/K28T3s+NJf8ugdX8aSpVC/1k3hWWzWzeYyNEVyGbEVxVvBcWBIf3zkWgDTFI2kegtHbYRa+3z7a1djHvk6FxSLjA334WOJFhkmBPKoP/GxW1paWl5xmva7lCNPOW8bI/mgzyaZ4W0nFHzv+k+x+6G7cbGZomRSrtSPWrkaRySVDzSqYq0jscQxb0hTTxVNQtQ09WZNVSQ05fq+UTOyWHIcNfffdhU77ryKi6Yq1vgDZHhql1FaB1WZdElbWlpajmBG/dUpvxlSgZLGps0Pur5iunqWC7oz3PMP/y8Lu55CUNQ4SnHUtqDW1O4kTW+qiSnpqq0jscRx0kc6MqLa6K8kaSf1AWcNdV2TFx28DxitefbR+3jsy5/n0tWBqXoWCSWYHB/zpvpSaSVAWlpajnRGFexoWOpaMSJUkuGN0iHSjRWnd2cpy5KbPvXfeNev/Ec6a7di3BgBh7EeDYqoT6INok2/aWtKjytlI1FLqhFv6sQRNEZEIIaawhoIFVrOsvexe7jzE7/P5auVrX4vJi5SW4OXjDwYOl5pKsJbWlpajgKaFqaRIUWxLieYHgPpoQi9hZ1cMDHDCeU2bvuHPyWb34MpF9EQ8Y0NThE8bfqcj3cTupLjwJA2Nd9qG+uXel2stWgMWKNkBkI5xCzu45uf/VMunFpki9/NhF8gatLbFY0UYUCuJWqV0BrSlpaWowFVoqY+eSwgEacVBo8Xi9qMzIHt7+bV2QHW7H+Ee6/9B8aqWQqtKKwZtVYfnFzYsoLjwJACmuS5wTaXUzjXGNAY0FhTl4t8/q/+mFfHnZyV76WzuA1DQOuMLDjyUGFZRKRKeVdaS9rS0nLkIxqJYqldF29csoTVkCL0ySz060CJ0LHK1uEOLhyfZfDwHdx13aex5TxaD5YeK/mio/W0LRQZcRzUMDdGTy0QEUlKK2INVR3p5RnD2b3cfNUnma52c1q+SF4+i3QshEBm8jQYmkijPY6QJOC0FWRoaWk5wkmepCOYDJQ0VKOZPWpiSeaaAQRRKHTA1HAf56xezZfvvoE1p5/D1vPfTCDnoOEcyUv+5I6IJSGIY5zjwJCCmAwNgrGCjRWiFV4MmncpQ8nt1/wD2Q9u5KLVQ8bLA0nRg0YNydRJ5EySB5pGDaVAR5BDd2XaXm+vt9ePyOtL+oXH0PXn+d4lDUCQOEQUgjXNkHnBxJpCfBpwYAzqhSLzrJ5/lHefeCpXX/mHvMkYTnzt24gYsjhMM3GzghLTROcOslyacxTu1FFY+RjmmDekiuJZwBUG6sVG4srgsJjhAo/edh3m2zdy6aaKiYUfUpj6YGJ+5QMtu9B6oi0tLUcZh6xpommswOh2FSHmOaGqmBorCDOP864Tz+aLn/g9/uXWEzGrTkCKMerFGToSkXj4zKA2mtSjxobjIacq27ZtO6bfp4pSG4/VIZ3osThqn9EzwpNfv55Hrv4T3rbRs3rwDLkZHidJ45aWlpaVqEAlDmstsSoRa5jTHnt6J/OVmbVc9t//DvmG08hzQxz2sTZ7pV/yK87U1BSTk5PHvkcqKpgoZDisGqKHXmeCHd+7n2/e8I+8dVNON+4hmIroDI0ec0tLS8txhaIQPWVUsqxLPaiZ7FT4hR2ck2fcceVf8M7/4Xco82nIDSaUh53sc2hOVI5pVy1xzBtSACsWxFDXgQI48PjD3PLxP+LCNZFpf4DcRoIzVMbQoRk71dLS0nIcIQoZaUxWHRw2LzDDRdZ2IueGndR757nvyj/gvA/+d8jkuqSYpLrCUI6M6PJOU5FmZu8xzDFlSFUVVU09oqoYY4gaUFtTicFkhmzQ50uf+APOn1jgpLiP1RrQAbishwYliCceF1H9lpaWloOIBEQ9VgzeOCot0CzHlItMdgJnjw342ve/yg9uWcv5P/crBDGIaYowQ0jzSzloQEdGtfVIjzKMMYgIIYQl6SZFCRoZBCF44W/+8i84c9ywNhO0hBkzTd1d11TmanO8gMq49vo/8/qRUAXZXm+vH7/XUxmlYomIOrx0qLRLZgC/gOlatkyu5tav30pcfzLnXPy2NAi8qujlHUIjgSQ8N7x7rHPMFRuNDKhzjhgjiBAMzJTK7/7fv89Dt3+ZV3dr1laLjIWKyqSQbmgqzeJho/4tLS0txzZRhAqhINKNiqqhL46hCqimyTEdw4xOsL2s+Y//y29z2aXvJBOTpmdFxYoQSe0uo5YX4dgN7S4VGx2LovUiQl3XTZjXUZbw+c98gVNOPIXf+vx1ZKam4zyVHxBECCJL2ygTsyZA0dLS0nL8EDF4Ojit6TBENFDjiLZLMAaNimogc5bde3bxqU//HavXr+cN510ACGiKBAopnGuWGdNj0Mys4JgK7Y5QVWKM5HlO5T1fv/tOXDbg5654L6Wr2GfHqFwHdb7Rz60wmvqotJ2P1tLSchwigIk10WQckAJLTRb7WObBdqE3SX9Q08ksY+vW8Ku//mtcf+21jHd7nHXyaalQiUaUQQ4mbtoc6RGNaTp/DwokxGa8mXUZMQbKOnD7N77BIzu3874PXIG3AnlGUIsUXQgeGwQbHUaVKClPeny0ELe0tLQcxKhiNeIbOcGIRWKAUIKFhcV5bDHO0NdkLqO3eh1vuexd3HDTzaz6wCq2rlsPKCEGnMsI3iPOEjUe8/358vTTTx+dVkMtogY1EZUApEIhHwJFp8dgWPHYE0/xlVtv5bIP/gvyyQmMCBhDFNOEGkal27qs2uzo/DhaWlpa/rmkdVCWXTroWBy8Haw1DIdDJvKCHY89xj23fZV/++FfZsw5et0uZVnh8oLSe6yhGb127LFq1aqjXJBBlJFo/Ch0IAhGHIuDku27dnHDV2/h537+g9jxcYKxxOY+xPicLOjBP3Mb2m1paTk+0UMuLTeey/E+krsCxXDCyaewOD/L3115Jf/+3/4q/aqkyBx1NSSzbkVLzLHKUexxR9REIDZCyYJGMOKY6w/44vU38eZ3XEZv1TTYgyPPRr2mx2KRVUtLS8vLgcEgaiirmgCcfvZr2HzaqVz9pX8iWkNQxVmLA6IPr/TLfck5ag1pGjCbDCk0iXLj6PeH/ONV13LehW9k8ymnMRBSVW5LS0tLy4uCKGhQiryLuJxahDdccgmLKNfceAPBCDFGjEYye+zPbj5qDWkyoCGFeCX1fw6GFdddfwMbt57Iq15zDpVAbcxzlIpEBGmNa0tLS8sLQyGzjtp7BlUFRc5QlTdd+g527d/P/Q8+SACMdYTgX+lX+5LjjlaDIgJ1CBhrEGsZDD03fPWrmG6Piy55G3N1hel2mwh/gNiGcltaWlpeDEQE1SR4Y11G0ADWUoxN8L5f+CDXfPJTFMZy/pmvbn6eIoeqSp7nDAYDsuzYmR5z1AoyqEaKrKA/GFL0Cr521zfZMzfHz77/A3grGJMnecAYMEfnXqGlpaXliEQlopiUYhNFm+Cmj4EiK3jnu9/D9V/4Alu2bGX15ASGZESdc1RVRZZlx1SdylEb2jVq8ZVnfGySb957H49u286l77uCoREGMWKsxdcVmZhWqailpaXlRSRKGvCRWg9HwgsGIxmD0rN6wyau+MUP8TdXfppd+/cjIhhjqKoq3f8ojYT+KMzyKtaj6XDGYlR44omnuPPue7jk8svRIodOjmaWWj3OGKzqsa9P1dLS0vKycrBrYtQ5YRR85el2x6mi0ptew3kXXcRVX7yO4XAIgG0Kj0aDRY6FA45ij3Q4rNi3f5YvXHsdP/Oe9zKxehqynCoqIUaMGDJr0VC380VbWlpaXmS0EcERFFHFqGCNo6xqcBnRWV517nmc9qozueqaa1jo9wkhNvnVQ9fkw/erHi0ccYY09YSuvM0YQwwh/QxDbnPmfeTjV1/LeW+5hOmNmxBjiXVNBlgUjZE6BrAuVSa1tLS0tLxICKIG0cYAiqa8qQGbWQJKFEMQw9mvfT3aHePmO75OsJYq+DTyEsWIIGLwClFsIwBx9HHEGdLD4WtPjJBlOSEE9uzfx2euuYZzLn4zp55zLrUKYMiNw0bFaPPGRIhy7KtqtLS0tLy8pDV3uQlRFCQSRg2HIihCzDq8/h2XsnP/DN+89z4kK9KUGIUYI6rN2n4URw6POEOaqsBYirkbhdzlOJdRhkDMLDfdfhtT61bzqle9Kg3yjoEYY5o/2tLS0tJyxFDHSNEb470feD/3PvggDz70EHVUfFSssWmGaV1hl7R9jz6OSEMKB4fBGjUIhjpEhiFw7c03M7DCWy+7DOMsZV3hXArfStvn0tLS0nLEoIBaQ4VAXnD5e6/gljvuZNszuyDLqL1HY4AYyOXozZIeUYZUZaV4/CgGX1U1Ns95+InH2bZ3N6+9+GIWY0CNodvrUTcVYLVfqaBxPMzBa2lpaTmSCYAXwYthcs1a3vEzP8MXb7yRnbt2kRU5CDgDoa6O2jzcEWVI0UZUHtCoaeSZgis6PPTww9zw1Vu54hd+ge7qVdhOzrCqGJRlkvyzBufc0fp3aGlpaTk2EQHnqBGCc2w86WRef/Gb+fy11zLT71N6j4jgMkMaznX0peiOKEMqpA/RuQwVSYO2nWXbMz/khltu4X0///Ooy/Aq1EGxzqZwbiOQrKpLoeGlx2wta0tLS8srhgKxcYxqVSqNnHDaqVxw4Rv59Gc/j4ql9mGp3X+khX40Tek6ogwpQDfLKYclGEOlkZ37n+VzX7qOy664gu7UFFnRxftkbKPwnKOlpaWl5cjBoBgigqIIwRjICk5/zTms33oin7vmairAY4mqK4aKtIb0BSAIsY5YY1AjzA77XHfzjbzmda9l/QmbUGNQFTKTU9d+qcL3UC+0paWlpeXIIIk16JIwTsTgBTzCeRe+keAy7rz3XmpAjCHGiG/CvcYcUSbqR3JkvUpViEqn06E/GHDdDTewZstmTj/3NXhj8UAIESsGe8hLb41pS0tLy5GHUcVqwCzzLoMKptNBsozL33sFD3zv+9zzwAPECM65Ja/0aNHkfQUMqS47DiWN5FkclNxy2224bpfXX/RG1FmCgHEZqKDx8PoXrTE9fjg0ErHiT/+8ohQ/+g6HRjqSIPchP1/2KD/p+EnPt/K5n5vn/1Gv3hxGBWzUf/2jHuLQ93S43z/s8/2I+x7u9paWEUvfAyVJCTbfHBHD4mBA1u1SK7z7/R/ga3fdxY5nnqH2ETGCD40g/nOM6ZEnJ/iyiNZHlh9h6cBERBpR+QgYy1CV2+++m31zC7zprZdAlhMUoqbVIQogJsXSleccLccHUYSQZQQxRK84cVi1oAYfwbocxDZWbySuTfNVtmkEFMslydJ9RkZylHNXAaMCIWJVCDGi1qTTVU3TovXjD7BEMcued+WBmrRBFEWN4rUGiTgrqK+xCk4MGmL6DigQwEWwjeGE9L9tDtMUPqqklInoc5/TqsFFg42j12CWRFCWbyaWi6MIB2sRRs9nDjlGn2ibdmlJ3yVJ31MR0jcwAgHjLIu+JuQZbnqa93/433DlVVez/ZldlEGxeUYV6iQ9qKmYlCgQLESDjro8XmHBeniZPFJRaY7mcrOcjT6cEAI2y6lqz0OPPML3HnuMd7zrcmxREGIkjlpiVj7qy/HSW45QYoz4usIayJ3FqGI0Yq1QZA7vK9CABYzI0i5rSRu0OWSFW3vwDFt+volAZi2hrnHWpskVkkyv/oQj3UcPu8l7zuavSW3k1lFkGdF7NAREI3VZklnXtAYo1qZZkFEgmGWGn5Xfk8iyHNXop3LwFUpzXU06lvPT7EtH72NlL3hLS3OmHdpN0eQ/oypeFXEZxViPS975Tj53zdXUMTIYlmR5QQxxZVToCPSYXqbQ7nONniAYMdQ+kOUdhmXFth8+w1du/xpvu/ydFBPj4CxqLRwu4XwEfpgtLx+Zs+QCVDXUNbEqkRigrghlSSGCixETA1YkeVxLxvOQBxv9rPHIRmZ2FDqtaw8KnTxHY8RaiwLB6E88VJab1JHpPfzpazC4KOiwwi8OyTB0XY4FunmONQajgrOWOvhUsGHSEZojmoMe9dKegVQ5KcuNaXOkoczpX0SXjDKs9CyXG+rl9laX3Wf59ZaW58OKsK21bDntdN582Tv5+898loVBia8DBtuEhiGdYaGZg3rknG0vk0e67Giup12GxeUFQ+/plyVfvPEG3nzZpazetJGy6TfyGkn9ucuzTUfrjICWF4tQVThVrEb8cICNAXyN+hpCjR8OMapkjLxQs2RZDspPpmlCiaSiZWIKi64wqCLEGJLClrXNfNuVRijlNg9zvTGkpvH+RiOnnoukEHJZQ1ljg1L1FyFEJCq+rqnLEiuGUNcUeb7k/R2u4kBgyflcHnZdfodDf+85ueFlHvOhOeMVxvRH5KrbdEvLj2IUGjXGJL30EPA+ELOMLaedzppNW7jpK7cSAojYlJ5Iv7nse3XkIE8++eRL/opEDWZZsCtKSjZXIRLFMddf5FNXfoY3vf3tbDjjlCT5Zy3ibNoNRyGlSJuFDpYWrZbjEyMRo5ErP/63fOyP/wQdlGAEyR3F+Di/9K//FVe85wo2rNtALDp4Y5cVPYy2YiODmC4JitO4wjMzCk6Fj//5X3Db7bfzZx//K/JeFx88tnnM5pcPsvz6oXnD5+xdD34zTIzcdNU/8ge/8ztJ7tI6JATe96EP8Zsf+S26Y2OItQzLCucsiqZ0kRx8nlHeFCA0XmQemqHLFurleU/S7VGa+zYvTZoc61L2eJkRXdqA6OHzn4f7Rqq0W9+Ww7NiNqmkPapRIQ+B2750PRsnJ3n7xRfRyRyphiESJX3BUv3BK8v09DRTU1O4l+PJVCMq6U2PFpIQwWUFlcK113+JV593Phu2nkgNaJaKMnxTXIGYpf1IeowjyalveUUIESGSibBh00Z+63/+LTCCOsOePbv5o9//KPd+7Xb+4E/+jE4n6TE7a7DG4IxlOChxmSNoTMOGrcWgOAxeAzEqeZYRvEdj5F3vfjevv+giOlmBRqUwGSakiUOjXXVshhYjaYEIPjRh4AgizX2FYVnS7fWIPjbFQAlBwQfWbtzIb/2n3wbge99/mKv+8XOcetaZ/Itf/BAiEQdkCBoiofYU3Q51XUGI/PVffIwL3/AG3nDhhUSNZLnj67fdxlOP/YBf+NcfpjM5jgqEqsaKgaa/z4oQNRLN/9/emYdbVZ0H/7eGvc9wL1wQUVAcIGoMggLRgFEZREBR00Qx8Ytp7Jdq8uVJ26StSWymmrapGdukzR+xaTNWG6doZBDHxEQccIgDRiEOOCKIAnLvPefsvYbvj7XPuedeLjKjadaPZz/3vOfs6Rz23u963/UOEm8cVaXD79RogJZY70h0gsgturiHc2tJtMYVv6GUEiWDHe+CKYHzDqkSjHetnEDn3B9MWkNkz9K/4IJAJAnOWIx1zJo7j6U/v47lD/6W6e+ehkCSZb2kJU2eG5RMeKvEyuwVRSqkRAhZ/Gg2jFCFoKde5/olN9K13/68Y/IkKKVk3vaNsIXEFzdc05rwTUMi8keNEALhwqxjtXMIJ86YjpeCrOiFOHHSZL70mYv54ff/iws/+SnSUgnp4YlHHubJlSvp6Oxk8pQpjNhvJF5rchcCeu6/5x42bn6dgw9/GweNPZRyuYwUgkaW0dPdjTMGITXSObrXv8YD9y5Ha81RRx/N6tWrGdLZyWGHHYbWmgfuvZd9R45kzKEHcfsvbwMExx1/PEOHdoUIXKDdfBUIpHWUkoRZM2divePEmTN56eU1PP/sczRqNXp7enngvuVgPaUk4YQZ09HKYjPDPXfexd2//BW969bTs/41jjxmIus3vsbtS5bw/PPPM+qAUXSOGsnRkyahpaJ700buvePXlNISo8Yewri3H0EmBFIpnln1JM8/8wzvnn4SDz/4MOnwoRz59iN58ZnVrHvuBaZOm8bjKx/nxdXPMvbwwznyyCPD17EeZw1333knptFgn1GjePuECahS2mp1qJQK3/wPpGpNZO/g8WH6Qim81ngpmXnqPG5etJBqZweTj5mIThKsNWEA9xYqybt3LFLA4ZFKkjVCJJZxjgcfeZjN9Rqzpv8Jdetw1uJV/7C/ZrRvJNKfYgZThPlPJyRIgZSh/vIhY8dx4knTeemp1TTqdUpKsmLFCr72pS+x5uU1SO85fvp0vnDJl0kqFaQU/Odl3+PGa35Oo9bDyEPG8MmLP8vkd76TPDcsv+duFi1ZwhUnnUjmLM88+TQ/+Nd/595ly9BJwqlnnM6KFSuYMHkKn/7tmUgEAAAbHklEQVT0RXRv3sxPf/gjxo4bi/CGxTcuxhvDrNPP5BOf+hTlShWVpIiiPnRIUfE44RBKkuUNytUOXnntVbp7ehjS1YVwjksu/iyrVq7CN3JwjvMvvID3vH8BQkqu+clPWL1yJc89+RSLFy/iM1/8As++8By3L70RrxSXfumLnHjGfCZOmMCGTa/yX9/+d3552+1IIRlz0Bj+9u+/wKHHTMRby31338Uvrvk56158if+5/MecePb7GDd2LPcsW8bCK6/h/A99iB/85IdseGU9I0eP5ivf+AZjx44F4L+//32uuvoaGps2su9BB/FXn/ksk044HqVUK8neGPMHU7UmsncQHlKt8c5jnSPznrRrCDNOO5XbFi1kSNcQxo05gFRqTGYQOnmzT7nFXlGkSIl1DpPnKJ1ivOfhFSv47WOP8YE//TCbTY4oVYK1OUixhYHzMV66qFz/yAkh9UUVTylCnqYQuKLEmNIJk497F0+seIKsUef1zZv4zte/ykc++hFOmzuXV9ev59J//AfuvfMOTp53KmteWcej9y3nwgs/yoJz389jT/+epFyilJbwStPo6SURkt7eXsodVa68/HLqtW5u/c0ddHZ28thjj7Hi0UdIlUDhSZRAe8uy227hgk/9JZ/63Gd46OGHuPivL2Le6fOZcuyxeO9wrTnTMCiwzpFnGUuXLMYryS1Lb2LThg18/ktfwBrD2e8/l9mzZpEIyY2LFrPkpqUsOO+DpJUy37nsMv72k5/k9PmnM2f+achySsPm7L/vSB5afg9f/Oev4FOFUJLv/eAHvN69mV/fcQcYyxWX/zfX/PQKLjr6n4tgIsnGta8gcsPPFi0m7eqk1ttLSUjWP/s8zz7zLD/88U+x3vHFT3+GmxffyF/8xSfYvLmbB5ffz3nn/SkXXngBK1et4vU82+L/L7p2I4MhrUUIQYZFl8rUTYPS8GEcf8psrl+ymI984P2MHDqURCWYbe9ur7HHFWkzBN/gKJVSskaDl9au5a577uGU088gsw6ZlpClElmtjhZ9FmizCoanf/RgJEJRAjukd4uQnoEgyw060TjrMc7hncMZwzNP/p4Nr67nxl9cz6+WLME7y+rnnuXRRx5ixqxZ7NM1lPHjx3PLokW87W3jmDjtOIwEby1ZlqHT4JqsVqts2rSJZ55dzQcXnMPQYV1s2vQ6hx95JPuO2h+LD/OBWuOkYPrcuZx88mwSpRm13/5k3pPoZNDpCQ+gNC89/xyXfuWfUFLy7tmn8JcXXURHRwcKybHvfCf/8o1vsu6FF9m0aRNDR44gtwZd3GOmCJTyiaRmM4SWODxKakyek1QSskaD3z+xEtPdy9/99d8iPGzYuIH1vZvJGg1SodDes8+QLj50/p/hypruWgNZhPrut/8oPvbnF9C57whe736d6tAuTJaTSE21VOIdR03gjptuZsz+o5g1ezaNVOG07pfILqWMrt1IP4QH4Ryy8FzUsgZChci4Aw49hBNnzOTaa6/jw+ecQ9eQTgxvHd/uHvGtyMIqCCNbj3SGVCqyLOfFda9y5fULOeWM9zJ89AEYrVCJpqd7E1qLouoFxV+/lSXyx05zzlyJkMAihUQjKEtFWWqy3l7uu3c5+43an2pHBz2bu6n39DKkaziljk46hu3DUUcdzTGT34kDSqUKf/HJTzJ97hyuu/pqFsw/nXt/fScuN+hmJS0pMSanVquxdu1aKpUKm3u66RzaSSNrkGcZCIExlnq9gbGhS1G1o5NaZihXhpDKJGTCOR/aBIpm3mcIPHLeccg7xnPbPfdy230PcMlXL+WQww8HrXh81Srmz53DU888RWfXUFSisY0GzlgUwWWqRAjus96jlcbnjtxa6o0GaZKivSKv5bz07At0VDuodg2jMmQo+40azbHHTkN6SFRQeiLRGGfJc0MiVUi9cQ4joNI1hO5aD9UhnQjvSMopubPoJOH/ffzjnHrmGdx5xx38yZlncNutt2ILS+MPrT1WZC8iQCmJMQatNUqFpGidpnTX6hx8+BGMPWoi/7NwMRvrGaJIU1PNQFYBfoCukH7wYii7m522SAfWHoW+UOZQuR/AYa1BeomXnlotZ/HSWzhh9jyGjjqQGmFOyJicNJEIlxNcXFtPbGmlG0T+qJFCoDxYY0IiSyMj0Um4kWzG06t+z0PL7+W8Cy6go2sow0aOZJ/99uf8j32cd7z9SEye40WIPEUIDKBKJT704Q/T09PDt//1X7j8xz9h2tRpJGkS5i+dQyDYZ/hwjh4/nht+cR3vfvc0Nne/zrLf3MnTq1Yx9rDDKJfKNOoZQijKpTLWQrWjiw0bN2MR9NQbqDTFWFukloQL2uFAKKwPrmrnPVYE29t6z5U/v4bJx0/lkkv+gaHVDq696ioeWH4fqVSYRhaKVOgkVI3x4DJDIgVaJSid0GgYKjKhI60y7m2HM3XqVP7sI3+OyXOklGTOQLmCs5aGc7hE03AOLXQRLGjxUuBTTUNCuaOTer2BFVDLGngpSHRCI8s497zzqL2vl+//x2X88Ec/4riZ0+no6ABo5Q3GOdJIOx4wHlAKZy1Fq2mE8yRpiYYxvO2YSazdtJlbl93N/BOPp1IpgZR09/RQ7ahinWvlT7fVI9nj6Ve71bXbHGU2AyeMNaRpivOCepZz+dVXMX7SFMYcegi5dTgl+9y2gybkRSKDk+c5SmukVvRs3sytN99MKU0BWPPyy1x22feYdeo8Tjl1Lg2TM/6Yozlu+kl87qKLOPsD5zKko0pmHd21Xs4591zWvbKWf/vGN5k782SM82zcsIHhw4cjZVFfF7A+FNPWKuG888/nu9/6FtOnTUNrzfn/9yMccOihIAW99Rq6lIDwZDaE8mc9PXgEMkkolysYY7e81EWoKW2dxcuQcoKSOB8CkMYd9jZ+9bvH+fUdv2LtCy/y2COPsm7dOm669RbOXrCA3nqNUrXKjUuWUC6XGfeOIxlz8MEMHzmClatWcsvNN3Hw2LEcNWECZ/2fc/n2175Gb73GmEMPBedY+eTvOe+jF9BRqSKkIDeGtFzCKkFuTQjsEsFXZHBktd4wuEgTdCnF4lnzyjq+eemlnDxzFlpIXl7zEiNHjKBcLmOtJUkSGo0GpVIJWxQlj0T6MeC+kFLQqDVIlSatpMycPZtbF/6C2+76DbNnzsQZx9ChXdRrdZSUtEpfsvd8mDutSAcrUeoJX9p6R5KmCCNoNAxWCq5dtJADxx3KEUe9AyMlUitsUYi+OYJo7iMS2RZKhzJ5TgpeW7+OS//xy2EUWkqpKM3fffnvOWbKFBACoRWVJOGD53+YUpryn/9xGbXeXoaNGsVXv/F1nIARI0dyyry5/NOXLsHnOcdMmsTfXPQFvJLBYhXB1emlIElTJkycwN997nO8smYNxjqOnTaNh1f8jrRUCTmpSoby+GmKLqXB8qVZJckVdUa3nONJUt1SoODwUoQ8V2DOqfN46K67+c7Xv8bs+fP59Bc/z3f/7Tv8+Cc/Zt6Zp1Pp7GDBhz7IN7/6VS754hf43Ff+iZGjR3H0lMlMOPad/MvXv8bMuXM5cuIEjps2lc9e8vd891vf4oUXXqBcqXD+xz5KuaNKkqRIrRCpChaogNxZurq6sM6iEoVOEho2R0odLGY8Xgk6hnTy3rPO4uK/+RvIMsZPnswnLr641RqrmUMaXbuRwRhYq7lZHauZqy2EIHeO6aeczPU/+28OGjeOw8YeSk9vnUTIouJWUQNJ+C32t6fYxcpGQQv2BQcFt01uDFonZFlOuaODq5YsJBMw9YSTSKqd1EyIVpRKFRG4HoElzJBGd09k2wg8zhiSomSf8KGPoXcOihZMSSmlp7cXKSWltESeZaHIQm6QQmCdRScpuclByZCeYSzCh8+EFGFe1FmEUiip6OntIUlTXnn+BbrSEsOGdSGE4v4HH+BbX/kKf/X5z3Pcce8iyzIq1SrGWnLrUFpDU4GIcH5SyVZd21a1IZMHq83koBUOj9aaRr2ORNBZquCMwWZ5cCFnocpRludhcFrkaWbWoLTGGUuqNSbL0DoJKWbeU6lUsM7SqDdI0xRrLQ5PLiWJUojc4p0nKaXUTEZSKbNx00b26RyKzy3G5KhyEjwDUqGVCgFHSULeyCiVSkgEuckxIkRWK6Wo1WpUq1WyLIuu3cgb0rwnhA8DUIkgzzKq5TL1WjfYOlddcQWnzpzN0Ue8ndR6hCuSLQXYVp3rdifv7mU3VDYa6IH2ob6TUEipMM6TVjr45W/uZO3Gjcw67VRkpULmLEgZovb6Sl4TXbqRHUFIifEOLXWol+s9jSxDSBm6pgmoZRlC62aZa7wsQthE82/Yh5cyzFcSogaFJwTyWAfeY30ou1fLGiTlMt45Vj/3HNddfgXlInp4zdq1GJ0wfsIErIBSR5W6CQH6QqnWvI9Silq9TlpK+1llzcGo1BoLGO/RIlQIMtZSqVap99bInSu6JWler/dSKVcwLkyTSKVI05RavY5OU3JjwmBVCITSCCVD0f0kobdRR0iJSlNkkoT7EolUOhRBEZ4kVTRyEz43lmrnEOq5oaxTnDHgQCUpzlicD8UxGnmOSjS5s8F16zxogVIaay3lcpk8z2P6S2SbtLyURaCfNRalNT31OuWOCsYJZsydy+LFN3LogWMYXqqiQ4hrqCaGaMUf7OmAI/H000/v5CHCCUPToiwaRgmJQ2ERrHj8CZbddx+nnP1ekiEdxYSvaJXwDoFFDuFda3LYiThKjWybvq4qfbVf2x/N7f1EoW1kO2A9T//1lOu/j4GFtFrrGccDy5Zx+403godx48fzvgULgqKl3UU1+PXs2/bVjvSub3vBFlMo7c0fBt64/XKt214P1gB80HMSYIUM1n2xTXubNk/R79QVv1vR9HSLht8D3ou1diPby8DrXW7lurXS4aQlsfD6y+u4+drrueCD5zGyaxjehfgDV4T1+j1Y1Gf48OEMGzZsFxSpl4BEULSzEWEOyAuFQfDcy+u4YclSTjltPkNG70de6E3fz5IVRScM3+qgHhVpZHtohro3H9qDKdIt5lvY8uYMCqFtna0oqYHH1t5TErJlMWqdYGzwtgTF0XwoDK5Ath6V3uanGWTT9mmUrSnjwbbZHjUWBhVBkariN/X0tWiDoETD7+dxkq10suk7x7BmVKKR7WNbirT5eYhZEJDlpNbz+PL7eXn1s5y34By8yenoqGJtjnEmpIG5PaNJm4p0F7TWljeHFx6D46X1r3DtooXMmj+foaP2x9BXhWZLe6DYl4g3XGRHEbt18QP+bm0RPvhfGsZghUClKZmz+KLZdjE0LPa1Y5nQ2zp2+7mGOtQ7sP62FrHl9xz0dfNfK7DjjY8ZiewOml6mVgN7G6xNlOaYqVMZPno01y5ZiNUK40IsgETi7J4v3LAbzL9wowQ3lKBucq5bdANTpk1lyMgRZAK81AgvEU70d0/1swyaN3IksmO0Ht1t19RgV1LLtTvARfpG22wND8hSghNQzxuoROO8bx8aDtrPc0cqcw28V/ZWWczWudO3NM8H6JenF4nsCQT9pyTaL30HYY7dgVKa3FqsEkydeSK9JudXd91J5j0IiVZ6r8zH77Qi7TfWLF501+pcceWVHDVpEoeNPxKnFVbIMGooRrR9TYY90rut+sAjkTeiXQkOqmDalGO7MoAdLzM5sDl285qtZxk5DlUki/tmzd9+Rxvohdk+hdp8kAx23O05351Svs3127YZTKnKtvd35vwikW3Sfg0OvK4EIaJcJsEqFRIjBL15ztwzz2DNK6+w7K678YgQrS7UHj/dLRRps/u4Fx5XLH3vWbxwgMN7A95gbI5INL3Wc8e995F2DWfClGOxxZMiPFYcCAfNvJ7CevVFibRIZGdo3mDN+VAn+1t+gymU5mdbC0YajPZ9tvYtJFonSBTOeaRU9PfONJe2GIAdUHB+i/1sqXwH2+euWK0tZ3Tbvd+8/0NAYfgufe+/8flFIjtK+zXs2u7ptgn3MIePwFuPQCGExDqPTFJyBDNOmcPjTz7J71Y9iVAlstyipALnkVIglcB509Jnvu1a3lkGsUjDzeLpuzPDw6BZAze8JyUoJUgqZTb11Ljzvgd48dXXOGX+mXTXc4RO0FKFWoeifb/tc0WCXbjvI5EWzWuqOX+yrfVaD/8d3H9r8YQ0my3mBvuvv/1H2I5j7vSedvyoXnisDAqzeac2AwODIn2zzi/yx8TAe7rPUyMQzSTsovOTRVDuGEK1axgzTpnD0ttv58VX1iN0QpYZpFRYa2g06uhEseVVu/OadKuu3Xa3WVhEOPliQSoazmE9PLn6GX638glmz5uLwZGUUhCSzIQoxkgkEolEdhst46w/tXqdLDeM2G8/Zs+dw9U3XM9rr28K1cZ0ghAy5F7neaHjREu/iV0wSQdx7Rbn2aZEpQ8rts+FNPIcUSnz6KqV/PKuZZx51lmUOzpBKawIxcBlUZnFvZVamUcikUjkDx/R35r0QoSSnqkmV4IRBx7I8TNncMXVV1PLcowPta+zLEdJvUWcxa5Mi/RTpIMniAdLVLq+EHiPpFTp4JnnX+D2O3/DzDlzqHZ1hZO0Fo+gVCmHajFFbc1IJBKJRHY/felWQkty7zFCQJow8qAxHDb+KK657np6GhlpuYpQGuc8IAeNTt8Z3tDv2swaU0LjfWicjNBYJGtefY3rblzC1Okz2PfAA2g4h0hTknIZ6x31egOldBGEEYlEIpHIHqKwJnNjEVrRsBajJapSYdLUqQwduR+Llt5EZh259Sgdph9dUahBwC41UuinSLco9VWYu86FAzsvqOeGWpZz3aJFHHXMZMaMHYtMS1gEXsqiv6MKNU+9i6F8kUgkEtkrSKHwDlSSYLwPixQce8IJvPzaa9z/0MMIpciNxRhLuVLFWB9qUe9CPM+ALYswd9/f1DVNl22SoCoVbrh5KfsdNIZjjj2OhrHUGjlWiNAWzYddhslbudeSyCORSCTyx0FfHknTAGzqm1aWMyBxUlL3HqMVH7rwAu564H4eXPEoQmuStBx6B6cpPbXe0L5wJ9lCkTZpz7sTSpKUyjSsYfFtN9PAM/ld7yJ3DpmkqCRFSEXzPJpzqQMLhEcikUgksuv0jw4amGHSvqAUvlRiU62X2fNO5dfL7uLFl1+mljVIyxWMMXR0du5Oi3SQKjCEFkyba73c//Bvefm1V5kxbw5JpUJuLNaD9b7wNfdN28rdNIkbiUQikciWtCnS9sX3eUTxEuMFRkhkqcTI0aN5z9ln87NrrmHDptfZ3NOD1Iruem9otbiTympLFez7Jl+bGt17z7MvPM+DDz/MiTNmokulUBdXhmbIAEopvPOtXJzo0Y1EIpHInmBrlYgGviUQKCVwWGp5htOKzuHDOX76dK694RcYIHOWUqkMRTvPnUH3ay4sPN5aEiVwzuMc6DThmWefY8nSpZy+YAGlYcOoe49zFiEVpvDneucQUuCbnmsBduCXH/Bl94S8J/cd5ShHOcpRfvPlJr7oidv6vG1KMsgCCOVphRbUcKhEceDEiWzKc65cuJAz585h384hKIJl6X1I4QxRvQ4pZVtEb9P29G1HHWCRWg9eaxp4MimgWub5Da/y81uXctJpcxFDKrhyik00vugbKrayDMbAz/aEvDePFeUoRznKUX4T5GI+tFkgqF83J9pl31dICIoWiAJjLBMnTabS0cmvf3Nn6NzkQwqMc5DoBO99a+nDM1CJAoinnnqq9Y4XBAtTKazwvLppM9cvWcKEKZM5+PAjoJTSXa+jS2WkhaQogijaDtH80jsrt/9Yb6b8Zo+4ohzlKEc5yoPLO0ZRmD6oVQSQCIEwBpXn3Lp4EaP3HcHME05EeUuiFdZanPckSYIxZqtFhfbZZx+GDRuGbn9TeNAonFcYPEtvvY2RBxzAQeMOw0kJzlNOSuAELrcIqVvbeaB5rL0ii74fdZfkYiAwUG7/H9wVWQy4AqIc5ShHOcq7KO8QzY0FTZ+vcQ7pBTpNmT1/PtdffRVDuro4fsok8jxDK4XwHmMMSqltlrntp0gVCm0lvfWMm26/hWGdw3j3STNoODAWpPNoJ/DOUUpL5M62zg/aRg07Ibf/PntVLhTo1uTmursib+u7RznKUY5ylLdfbjJA3ArNBoBNPSoQQiO0wDiD0Zq5Z72Pn195JdVKmQlHHEE9y6hWy5haHSVVy/gK1m2xj7ZoJ22MoVQqYYzBeoeznt8+8ijrN2xizlnvIfdglUBKCR6kkCgZTgAl+n3JJv+b5LfSuUQ5ylGOcpTbFKjvv04/o6gpe/D4kGlSKETrPdZaBBaVarSqMu89p/PL6xcyfOhQDj7gAGq1Rgg+almjfsDfNkVaKpWo1+vBfBXwyFMrWf77x5l/9vuwZY3VYKTAe4dAoHAoT/A5u4E73JvyNn++7ZTfjHOPcpSjHOUo76os+sJzi7f6y6L9We+L122WZIgLskjpGTZiBNNPnsX1C2/g/Wedzah9RyK8xRmLFEEZQ5Fr6n0/a1jneY4QAqUUq9es4ZZ7lzHnjDOQQ6o4BQ0bPm+qdueDea0omqvSTn9pz8p781hRjnKUoxzlt5IsineD/gw6qk+ftstNo08Aqs2kKlYWgtA7BkaPHs2UY49l0ZIlfPCccyhrTaIUrpjGbE3SCgFt0bxaSkmapqxdu5aFCxdy2plnMmLfEeSNYKV2CIG3tvBNC/DNkGOPxCNao4DdZSFGOcpRfvPk5gMrylF+s+Ttu1bFdq0f9t3SU54+i1Q0la5vbVOtVjlq4kTqPb0sXLiYPznjdLSU4fNWpNPA/RcFGXp7e/nRj37E3cvvZ8VjT5Abi1QKRKhqVDiZ+5+YFCD7jxOaOj/KUY7y3pXfSo/BKEd5T8sttmdD78ILL8Gr4sO2PQlHKNoATgkwOUoonnzscQ46YDQnTpva2ln4t+V5iKefftprrUPejPMY49FJggCccygh+yWkNl85GZZ2BesF/cKTo9wmi+LBF+UoR3m3y+1TZVGmXzrf/0Z5RxE0fxvRtjRxrWPk3qKkBOtIpQTvkIDzFt9UtsVW0kv22WdEyCP13pPneWuXWgvwJlykAlyx8UCkBzGwBmAkEolEInuYQVTSruOLUn/WIgDvDNAsdSsABd7TV9Ovj355pK29bSd75MtEIpFIJPImsG2dNvgaO9+ALRKJRCKRSFSkkUgkEonsClGRRiKRSCSyC0RFGolEIpHILhAVaSQSiUQiu0BUpJFIJBKJ7AJRkUYikUgksgv8fzEgzCSr01BvAAAAAElFTkSuQmCC;" parent="1" vertex="1">
                    <mxGeometry x="90" y="2130" width="466" height="299" as="geometry"/>
                </mxCell>
                <mxCell id="24" value="" style="shape=image;verticalLabelPosition=bottom;labelBackgroundColor=default;verticalAlign=top;aspect=fixed;imageAspect=0;image=data:image/png,iVBORw0KGgoAAAANSUhEUgAAAUkAAAFSCAYAAAB/my3wAAAABHNCSVQICAgIfAhkiAAAIABJREFUeF7svQd4Zclx31tI9yIDgzTAYHLYxM2Z3CU3mCJFUlSgKFKy+FmigmXLlhUp6dlPfvpsf7L0fX6ypUfZoqhAyRIpBjNJIsVlWKZd7pLUciM3TR7MABjkjBsAvP+v+jRwgMHM7OxOvrcxd8695/TpUNVVXV1VXV3xhS98Yemee+6xr3zlK7Z7926bn5+3o0eP2mtf+1r72te+5vfm5uasv7/fXv3qV/u9K664wmZnZz3ffffdZ1/60peW3z127JhR3le/+lXbs2ePTUxM2MDAgOf74he/aFdfffXyPep4+OGHl/MdP37cXvOa19hDDz206t5dd93l9V5zzTU2PDxso6Ojduedd3q+eG9sbMxuueUWL+/aa681yuIe+Xj3Va96lb87Pj5ut912m33jG9/wd2nv1NSU3XHHHfb1r3/drrvuOu/X9PS03Xzzzfatb31rOd/MzIzdeOON9s1vftPLIx/v3nrrrd6Wm266yQ4fPuzwuv766/3dG264we/lcjm76qqr7Nvf/rbnO3DggOXzea/v0Ucf9XxHjhyxQqHg9ZGPuvbu3WsLCwteH/XSphdffNGWlpYcD48//vhyPlMCX/HeCy+8YBUVFQ7Lxx57zPv97LPP+j3yPfHEE9727373u1ZTU2Nbtmzxe8Di6aeftkwmY9u3b7fvfOc7nu/555/3fNu2bfN8lPfkk09aXV2d36Ne4E3+hoYG6+3ttWeeecZuv/12z19fX798j/LI19jY6PeeeuopA8/0sampyTZt2uTvxnstLS3W2dnpbb377rvtkUcesQ0bNlhXV5e3lXFDH9P5eJd8bW1t1tHRsfwuuOc37wMj8jFuKIv3gS9jHZxu3LjR79H3e++917785S/7vdbWVn833qO9tbW1ji/uPfjggw5PYEO+173udT7menp6/B75Io3R//hupMWtW7c6rHkX2qF95KuqqrJDhw55f6Ex4M49xlOkRd6trq62gwcPLrePfIwZ7pEPege33ONd2kcdvMs96ojti+9yL7Zv586dPlb7+vqW8+3atcvHNHQBTCNPYeyTL7aPfPHdCD/GIzQHPd5///0OP8YtNEd5sX3kg+bgKYwDaDZ9jzYDF/gM9D80NLSMS+7BO0ZGRnzsRv7Bbz4RpvFd7l155ZVWoQqXQAaNBrAQJB8G7+TkpCM03stms84AuEd+7kMMdA6Cgvh4zuCDGaXzUR4dpi7yATiec+VdygLAzc3NXh75QBYf2kV9sZ2Li4vL7YPweEY+yqF+7lEW+fge20ce8lIHzHttPt6lLlKxWPTyaB8DON1f+sEz8tAX3qE+4EN+EmWDTPrNxEOi/XznWbwHDCiPd2kvZQLT+C5tot3k450IF+AV643PqIPvTGCxfRAQbaT99IPy+E0+4AJDon7y8aH91B/z0S7K413aRhvT7/KMRD5gQJvIQ5spj3uURx2VlZXeLvqRzs/7lB1hwXs85x0YFOMwjhv6QXnUG8vjO+9SF32jDt6NY4l8cexwjXiLcIljnfdim6mfdnKPvvBOHEv0kXKoF2YJMVI/+WgD5fGMssgbaQbYRjhzL7Yv3qOO2D7aHMcrOAIGtCm2ObaPa6TP2D7KoEzqoH2RFskH/CLOaRv56Cf4pX3cow7uxfbFe7wf4ci9WG+aV4D7ONZiuWnaORWvoP980vADDsA0tg98rOUVtIX0UnkFbQRuES+0by2voDzg4TDXl6XYYRoUkUMmXoy/ucaG0Mj4mzwAmgRwecbvmIeGkzcOzPg9Aj7W4wUkZcRrHJzrtS/WlW4f+Ulr28f78VlsL1fKiO3jnVgv32P7eB7fPV37KI++kz/dvlhnLAdYRJjFutJ1xz6t17618ItlxivvxLK4R10RfjxLwyvCYG371sJvLX4pI/0O5fI73ot1xvbTnrUwjM8iLOLztfA72Vg62fhbr09n2r5YdoRfbBP9WNu+tbAgTxp+lEGeiJd0+2I967WPeiKM4vM07iJMTwe/9dqXxkUcK+n2cS/ej9c0fmP/YnvIw/P4O5bFlfbF+9T7UsbSyWgx1pM0bxmmEU7psU6d6fbENkd8RBicbqwj2VaSOQKAytOFpDsUC+VKoyg8jaA0AiMwIuAi8XDlvdip2NmIiHSnKCN+1mtfLDO+G9u1tn1xkEQAxz5xfy3g+E25EQ6x7JO1L7afd9Jwi3Wm60q3L9ZNfWmii2VQbixjLaLXa198L5033YcIvzh4032Pda1tH7hND/CIM94l0W7KjXVyby2e1paZJp617Yu4iGXGa6wrjpt4n7alx1JsX6zjVO2jXfGT7ld81zuoFNtPnadqX4RB+kp+PpSxtjx+R7yvB7/0O/F5HEvLhZ1h+9K4okykM2DI/bUJOKztE3kifuM7cdxxpX3p92J+7kVYrO1zHEtc1+Kdd7gX8ZNuY7qe+DziM7aR/LF93Ivwi/nTV+o62VhHPVKhgpbSAEy/HBsZG8izmNKITHckNiwOqnTnYsO5RgCly4nvcl3bjoi0tffTbYrf02WuV39ESsy/XvvX6yf30vXH/kT4rX2ehmt8xjUN13SfY3m0Lw2/9dqXhhHvrU0ng9N6ZaXbk34ey1wLV36fasysh6u1OIllUsd69afrWDsO1+sr987FWDpZ+2J9642liLvYnnM51tf2+0zwux69Rdiu9+x0eI91p3Gbbg9lv5z2pdv0StsX349tXG9cxntcBwcHA5OML5avZQiUIVCGQBkCKxDA8OOSZBkoZQiUIVCGQBkCJ0IA41NQMJ34rHynDIEyBMoQKHkIlCXJkh8CZQCUIVCGwKkg4AadU2UoPytDoAyBMgRKGQJsSikzyVIeAeW+lyFQhsApIeCbGMqGm1PCqPywDIEyBEoYAuzKKUuSJTwAyl0vQ6AMgVNDgHgPZUny1DAqPy1DoAyBEoaAbwwo4f6Xu16GQBkCZQicEgLsuCkzyVOCqPywDIEyBEoZAkQdKi+3S3kElPtehkAZAqeEAIabEIjtlNnKDy8ZCKzdYLoSj+SS6cLF3tAA4gjocK2w0wFaz9fiZm1HT1fE2vzl3+cFAmXDzXkB88upRKHXTCGsnLCgnvRHP7mvW6elq9NmeDltK913wElkkvEKiNfXWaWAv6QcS6dBxvqFlC6wL5KeY7gpS5IXCTJWN0Oh4pZinL9IXFCRvifEpoiI+npq8URRAcM7F2UfL41GrY7/IpnRwwUKP0nzw3U9PKwwxaUKmGt478Reh3wKEXvio/KdCw4BDDdlJnnB0XCyBkSiigQI09S9JKYnd2GUJ09hEVgmvZND6PRPApTTMruztBOkwhWGuF6Zi8IZjHL9NXd4F2ydftm+Xunle+cSAhhuykzyXEL4ZZd9EtbGsi1JqfjHJ61FpKlnaUYKQZ6aoE9aWIk+WIGz4BbBuRakp4HN6aar8LyMl9OA8YI85tygMpO8IKBfXWk6snlY3kGQnJUT8iUnJqzib0GiOZHl+Ts89KuWeXFJrt8VFZHJBoKkrnQU6YsAFBddE1aW2wKgA1cwTBCzHN16mZOGYyH8fmSk+lohyZMPr8WsEU+VCW8kOyuDdMTsMm4u/HDgxMSyC9CFx8NyCyDIyCR1usfyfac5GBp/8DmITZeVHAnd+vscjcFDnhbFJDngTASa2IGqKpkXA7MsM8llEJ/kC/CMZx4Fo40fTcGf7ju+gHPC+QI+0lgJxeocSs1XQa73O85vVzNEUaJwGw6mgzmWGeRJUHKeb5cNN+cZ4CerbkVagd50fozobGGp6NQUpRK3dkOPziExyegUvoRNLkKwSIwQV3grkVrEauGaSDKVVcq/dhl/IkGfrI2leN/P1klmJLdsC8ZF4WUxSuiJlJ6wUeUFwoGJpiG7JDWJztFUSZQnHPgk5v9W0iISajjhj5vlCeziGHGc711ebl8EuEhLDRDHwkLeFioLViWml18s6HzgWcvNz/nhYIViQSe76bMkCVHPqyRahoOmwnnTmWzGMrX6VGcsu1RjmYoaz7e4yMl9i1ZdlbkIenxpNMHhirQo5sb33ELOCkt5m8lN29TslM3MzVgxrzObFzgvndMRw+mDLs0jXeqjU/Zgs3qfM7irdG51xmp0xHEmk/UznZuaGq0h22gZqxMbDWdtA52yJHlxjBHO+y4vt88KLiADH9qrSot3E+HPpYMgHYZsvmzT34IYng7QdGY4NT1l88V5m5wZt5mZKSew+rpaq63LOqFWaknGtaJGS7jkfPN4NChMFILlXA4OVq+1rDXXNelg9zpraGiyJn1qs3UuzSBzUrZKCZJmEEHVhShthr6EPkDofIsmBp6t7uuqjl9kP0LLT90olxTBD+AQPmBS/J7NBZxMz0/b+NS4FRfzVpWtdnxka7OWqcmK6dVYtZhgRRXna1OPJq9EkYyUXxDzBO+s3AsLBSsU+ORtTngCV8Vc0ZqzrcJVi7U0NVtjY6PVSC3ikqnwESBNe8rL8FNj8ew/ZcdNmUmeAVydx0ECq/hDYHzhCUutlRTy646+8A4EA6VUVHFLTDE/Z1PzUzYyMWpjk6NifJVW11DnjCxbU291sqxlFPRzQVKgM8ZUvel6Yo1BgoHJaVkowszN52xREg6EODU9aYVcXkx0wTrbOqy9tc3qsqqjWsxXS73FRXRiwVhUWVHtBImnizML12uGRaXrRZ21RuJNdfii+YrOEAghCfocsAZnQUG7UKTPyqZls07WVlYmK8FNeAEfx6W0l5woyTxrjfWS+BoarL6xLoXjpI6X0W+Ht7er0hnmzOykzc/O2cz0DLoWa9Lk1rGhU9dGy1ZlaaQ6wiQpHOldv6p6l1jTac3Pl9G08ispCPT19ZWZ5JmMCBc0TjYIoRfGcVJgkLwCsS6yNNYTXi1oKT07P2tHjh22GV2bmiTdiTG2tLRIQqmy3GLOMlW1gUl5hZC6mO9pHMdjP9L6TZZv6DZhzjWVWnZr6ZfLz9vE2ITNa4ZklmzSUm/b5q0uEVWy4EOCERdHgqFy2hz7EuoIbDI4qsdaL7YrnBHpFyYZEAbewlcwhOohIIx79C9XFIPS8vnAof2S5AWX5ibbuKnHqqW+cP0gUhyZT1BQUX6o40yg4GWqURHCxaWCvoshV2RtobBgkxMTNj46LsY5L+myxbZv2Wa1NVoFCC8LWi04ftSe6irhNQ46GnDmTTmTZpdcXtdLC1lpEJccEM6swykWCNGswzEBZyC8RQ15dFWS3iSJoa/ad3CvzedzIrwa6+jstObmZpfgGNgImYtihFVaskG00V0nMKgza2WgFZZnSH8wjOR9iEsS6cJiUcvDameeUxNTNjgwqHYWraezxzZ2desZy8ew3IOIKzE8JMzGS3K+cBFTI/1dHtZRIg7MEGmRb0iOeS2dF0QE/QPHbGxizKpqqq17U7eW0nViPtWW19IYPotlGmMNBFMlveLq9PKYJGX4WFlmlrqhpgFm/M5ZrlMfEvyEGObx40Ouf97c02utTa36Lpu5JP5q6Zyd0UYf2osYLWsAd0n8LEuSZ4QmKC9hOhqUQRAJ0la6GIgQEgx/C75sGxwelPQ4Y53dXVbf0IgiUMyw2iVEeGRgYugIl6xGhhWkTedBEMwZMKMglYTWLDPXhEFSHF/d2p1KMGYeLBYWbWR0xCZGxqy1udV6xCwbahudH9YsKVzUohqdlmZp18VKkGkmqTZ7j/2KdBkwMy+J+vDgYe9zZ1eXJPlWN6YAeGBCLqS18LZDLjCjs9RnmCPlo0oJHgyMBo0H/TGhonsGMRHM6DIXcwvWf/SoT2ibunptU0ePM0reW5Hs1zaQ32vvpUdA+fupIFD2kzwVdE54BqFEJhl0jwz0hYTpIPm5fKJlE5bkOZbUA0dcUd+8ocVa25o12aMDg7EmfNHtmcGiGQa5y216KGKuDDrAE5rxMm9QskuoyfuBydOOwDrg+pDaknSY48PjNjwybBvEOHolXTZmmrTKzLiBKehGKSX042U259y+BtN35qO+AUtEMzUZlUVeE9DA0IAmrzHLNmWtra3dqiVBOtyR3lyyW+nb+WIvFXHzgE9E+jhTD39h3LHsC6w6N5uz0eFRW5DBZ1PXJmtv6XDc8ZrnSNofJs34O/QkSq7nFgGXT+mzs7Pl5faZodNHoVKQL2AabvcVYTkL1e/5wqwdPdYnHVfO2js6rbG5QYaaCrmOIB3gKyfiXWZVDO1kpvflbCKtUN5ZYJJOFio3tjr56T2IKTiorDBPZ38sL2XgGR8bs6nJSdtQ22Jbujc78TkBqswq6cKW276qxIvghzqM4Up6AuEEh3qpPXSdnp22g30HJc03WHtXp9QeUjnoL+gGo9FtNVtcpWZYr2vO1F55wniGY3oYSStMMnC+MGFSk8NcX8BRca5g/f3HfBm+ffM2y2ZqrSYxqrFCqdJ4C1Jkgjf9YnI8g8XJK+/YJV7CkSNHykzyjHAY6cHHaXCLwR6K/xykNTQ2bIeOHXB9Y0dnhw96X0pxRWLUVyScKhEvqcL1SIEonUcuM0qRylkgPjc2UGzyoU6qiN3gNym0wJ+GG1he9dUlZS3tJo6P2MjwkF2550q5EbWoJ9VuCApSbyJ1rRSSlHrhLrQbtxu8CORZKt/SnB3o229zunZ2bXRXqAVwAGqQwVhiS+IMzHJNux0np0hnAU+U7tsWI7ZUZiw2BMYIOAqu6O4a4RMyuppqSb9jo6M2cKzfNnX32paOTb4+wfiGVIynAlL/so67zCRPgcwTH7nkrf/W0syJOct3AgQipJzRsLQuuoSYK8zZwcP7raK60jZu2SSn4Wo9w+8O/pgs4WCS+p3Bymw5L29FfkszMij37KBkLZOM9E7psQaXZfUjPEtapN/oyqpFaK6d0yRQLR3Ziy/stWYxyZ2bd6kfOD8DiMTcexpecj6HEH3Ls9wWIzw+1m/9w0dtQ9sGa2hRsAJ0vjKIYMWH9YATpOYa+Zw6j4JBxcYCl5Vf63fhLOHKC2dSc2SEpqxUSCvUVhlpGFe+NlDD0V3in4mL1oLUOqODI2azC7Zjyw73jXWkCofuspUswcOYXL8r5bsnQqBsuDkRJst3ILQ0sSxzlYRByhPR/wZHBmxgWLP4pk1W21hvRQlWYQaH/QQpi3lIey2CTk/lop4npZmW3/Cyz17y9ieVUG5aKIr1uCzrD+JCLzzBeuruQ7rv5gTpWtmDPD46YVMjU7Zj805raWjWs7D8hhC9AxFoqwB49vpEO92o4hVRt/7FeZ5bWloXxCDntVOpr/+Qzc5NW++WXqvI6I0ghCkPvQZRwhAqBMpUGb4MjUwyAdB5ZZIBgsuDIGnOMvAWwFOMiKE28zxIwEm71ea5MXkr9A/KCr7ZWuULi/Ub4w6rFl/NKE/CL5Ny40jgZ0TecpUl/6VsuEkPgThWNE5WbNhOSss3yFKU+0xllRZx8mc8dOyglnBz1t3dY1m5jbBVcMn1QJdTCkyJ/5FmqmTlnpmetrGhEdvQuMGt4DDZGu3u8f3JiagS1AwBDinQvmLABDVHaAvGDpgkkqA73FdjmV6w6fysHTh+SC49VdbV1uW0z/fLnwegHslbIa/JW3uONzRssO72bvndZqxKEn9w15VvpQxVy8njXPKBQcJEA6Ms6y0DhMqGmzTJRslBY4SvfFzKIk/CNfGV8yX24rwdPLLfamprZADosAUyoXcUg0TKudwSPoUOBwHFHVVESOzkGTjaLzeheusSo8xqE2R1pVyFyAcMlTftvgQ8A/m9UuhE7NCeIEkiTeH7KWuGTWtf9cFjB62lq03b+5pc0nJXHiTEEqB89pLTV9Q6w0PDtjBfsK09ckTXzipfMWh41tTUBiS4qoDPCpMES+Ul+coYLRtu0vSaUDGXtQnfQv4IbsC+6v0H91lbp4iwudGXdtXau4t3JH+XIx0uIaWpY1hR/bB2jAJyTEdCOTYgvz25ouzZeqUIU7pY3Ucnu6itdVjz06zxrMFmDZJku/a/ydkJO6DJq6un2+qEG08wawgfhnB2uPTa4XFR/fbtjvQXvau6PDY0ph08Bd9VVY1KRPwwU9MQeKMzyBVgBr1lCQDpDDBW3nGTBlbCJBO6SgZPGEAwPyTEsZkRSZAHbdPmXsvW1+kOhAcBVkjC9E1wYiArg+4McHFRZ62SBLIk5ldFQA0MInAb7zMMs9ImxydsemzGdm3ZKTeUsM/YeRJGg2VFKEaJs9TNKKwjsWp5XZC+dGRCuBk4ZDt27Qy7VRwXuPWgbxTD0E6mkkgLwVBYKQ5JFKlKLXNGx0ZsZkq62a4et+xXa+tjokhykIQhC35KBEZnMBDKhpuTAkukxRLOP9J36cqe5xePPCcjwGZFf6lzpohjuAddZeZOZmXI8nJL7i2TdMsvCbMj7qUn3Zwbn7ERuQrt2blHUXGkA4PgcFHBBSVxdTorNKi6liSl0iD2Oy+qcWPT4zYw2m+dG7ukG8bpHXeeEiX4CGtN4WFkBtxNT01qe+O4bd642RqzLcwurj9mEvP932HqSxBavkQIjMq9qkRH0omD4ATWFoQll0LYPXOw74B190r3pliNEGh0QA4lMSAT14wTi74M7gRpOUThTnrsDDJR+gsedU111raxzfYe0v50uUQFq2uQalBysWQ/a8mdxOXILx3kxMyEHZOLT6ecw2sUjKLoqpGzJbKetRafx4IYyXGLAPNXmL5rG+qtQcFU9kodMV9QeDZNMIj2OcUmPWHsr3PnPHbgoqqKmJ9lJnlSlIRF9pziCR4Z6LPOni6FLtMSGyJEkEF69JmY75AlTDIETzhpkZfog8Ru5aTjPU3xoNB/JLcKMcp6a25rkUrigBtSYGQsz32dDdDORlKFC3LvWZKHwWxBUXvkvL9x00bLKL4j3gXBJelsVHRplrE8WQtO6GFhl3wqJNHXK6BKy4YNdvjowRDXUnAM0Z5SfXU8nSVcXZogXNXqsiS5HhLj+NA1X9BOjcMHtIzr1DJOFkEtTTBaBN8618ytYpAM0MsyiclxLGo4GnWlh84gkaqdEENgj9bWVhm0muz5vc87XwxufUGyORu053JRFUa0gj2391nbLPVHVUbuLWoWu4Ak+Icl/mWJiNN3yids6WnDWARBvFNpcxrL7L5pke9kleKWHtJEhkqp8oSoRqevo5Ry9Pb2liXJZYT7Mo2AFYRZzVtuadZeOPSCOyJzHIJLjVhrYRYaXDCFMONGrupmG30ux6XeallyhUiCDO2hMQSaahlH8kvz1tYhRrmhQUu7F7UpkI2b+DC+1EVLhOcKeAkyGxzGAzPWIQr21IvP2LYdO3z/NVIsUhPuWQTgAD+lmrCTgY8VlYP2eGtM12ZrhQXtY9dfV88mbZSqsMHRAU18jHekfj1jVkNXyXk75eQQOHbsWJlJxrHgdKVBslBRtJnitD1/6HlrbFOosKwkRgWoqEJKSZaaS4hHnGwn3djKoGQL3+XmSL5CKZEdpmknBGSAIPGdhLA4Q0dEKcJrblfUo5pF35FE6LFwsBkwTpew3ncyQKxJXld7Cs4EDJaukxiPLx7ZJ9wQpDjj0lFQfkjKd0OaJi8sTSWaVhhkWOcABrwS2IlEjMpK4ScnhtgtCWl4fNhGxgYllc/pOaoRxT51o1eJAm+dbtdpk0h5ykgAw9IjhKxY0lkmE06M7RvagpQC85RurXRJb53Rc8ItRBiGU/CNhGF1tnfY0OhxGVfGXYrxaLKnSQHGqyEdJXfKHNVRF3kdd9CuEGdIkIGoy1R9GrCueozelp1jW7Zstf4hMUkFMclrpw7eGuFY2zMp7fLOy0FgZSaZ4Ng9VkTKHK3Qd+yobd22zU8qjPETQxDUy3tAvJLehR3eSNMwrKB2qJJTee/mTdJ/7XdHfJ+GUGSeNPFsDSNVfrYbIt1M52as//gx29y7JTBH1VUKu2hOCq6X+0BgRqPOAWZt7e22T8FZWBnBOKOo8HKLvtzeKxtuljEqnzstszkJ7/Cxwwrhr4AIWqIsuTOyFpqJvnLZWfByGwlnoT/LzJFACr6nOjCwbH3WWqWjPDJw2HWT0cCzaknt9Qed8KqmiDEiKeKrWhB++lRGR0e76zfxv+S+4wZdWjm9dAgIXDX4Rmoua5W1mxlocOS4q458e+faieqll3zZ5dy8eXNpSpKRsNhiRyoSIEEEd7DvkFVnaqxO0XyIUu2MUgMJmi9V3+QzHfUh2gxviUkKhkgnbR1tNjIp/Zc+fq4MTE9LvGW9o3LDIpFiwtIaUQflh5ggAXMl0R8fHnAdcFNbkzPJJVm42UWDvrgsTZ4ZlqokmTt8BbtFwbFH4f32Ht7nS26ODgET5RQgcFTHZZTkctt1WR5TUMQmKYSl9Fx+xsZnxtzdJxhjWDZiroipLK2cinDCMjqxgqcCT1RqoimK2W3Zvs2eP/iCH5+AROkWaUC6LljDgyBbErxiwY70H7GN2lFz6uX6qVpYfhYhEDQeQY8LpBc1/nds32n7tezmoLMA43URU3JArNexziXJJNOYhlkyHA5ogOCUDH2zTQun8XI6EwgIXu44Gfwm8Scl7Bbh03Cz5wTCpqZGSYSDrg8jvNmJVtQI82Tp7VbxRS2z+xRpqMsqdeRucO8p4+ZMMHNi3jD5O4PUB/ethtZGj7A/MTXuUn05BQiUd9wwQESp4zpOlOV0vXbUcIohko9LOuWR8hIhAKRQXYRlGpJ4SMGlGW6IbwDHtY4qEAUnRxIpKJ0iYcJAY+LefH7Otx626zgMJq7LMRTdKkCc4x9pKZKqnFHqP3DWo3PGj+p43bInxwoSSsZwE1x7ko4zKvSBCeY1c+blI7b32PPWs1U7N2oUHEFkSHAGSDXYaMN7K4S/AsDytwiByNrQdYm1Sd9F7E33I3UyrJQ8qUBdCny7oa3Vjg0dlbU7p3z4NIqxgg/lQeqMgXQhVMKfHeg7aF3dG/0gL8+F2JNipGUcnCEEhCKHe+JlwBgH8tBDfWODfFvoOtNgAAAgAElEQVTNBseOO7zZVgr+CIvnaPQUcbp84wwbcGll37JlS2kstwNamS4dx+HDsrBaEWTmhq1Yk7dKtrZpoAQjwMp+hYjS0hgSr2QAB+a1DGJfeofJyInQf5g1aVk3MT2miO4zgnc4yRAjAs/x34unMRa1zJ6dm/X92Q06cRJyDadNvpI2lt8FP+y95xoEAaYm6ealdkJSb1Wc1GMj/R7hHUbJbqe1EZUSE1tJAJNQaaWnk2Rk+Gwqtx9ZXl88sM+2bdnmA6aczj0E0Pd2yMmco1DDLpw1ltRkNsKY1n98wP34cHAO6o9I2ue+nSVVQzKZIUw01De4QXN0fDSAQM+iF0iESZjySoNiSsZws4zUiFcxyIJ21EzNTFtWW9uqa0I8vZIijPPe2URukSqjUSG7pnQGNjgIy/Eof6LVDNsK53NzNj0zZe1ikrgMhZ0gSPilN6+fa1Th4YHfKZI8kuPGjRutf/CY639ddSL4n5hKg0lmMtr6emLnL787yWIvdEy4RUcJ4vuP91t7R6fulwQYLjhiwQNLuhpNSq3tG+zYYL/rgINfXhAhfSmnpfbwxLCiCTVg81mOuuTRl7AylNNZhQBwZVXFcorJqEFuL/MKMu3uWqITdwta9vZYRU1ntR0XY2FjY2Mlwh2E4OBAztyI7VpBLGRh5dPU2uxOz+V0PiCA87fOvxG4mxXbcESMsCjjmUdeIu4kUUZQg0gXxpED4Iat4BjNWG77H8FFyumsQgBpHsd8VFB+zIWczNulm+w7diTZqohTf2lOTiWz48ZtCAmOkVuYNQmU0NLS4grsskLyrNLcSQvjkCqiBTFhZWrlaqWdNHOKkh1wEMxrWMWnZqccR3U6JgM/1mBmOGmx5QdnGQJgYoMk/aGxIVeHIFoEg+ZZrugSKK6EDDdR+giECFMcGh2y5g0tvpQLDsplCeVcj9lqjtzFki1phV03nd2ddrS/T0wz2YPt5LioZfgxHcfAedmBRFe3q4ync42noOPg6NkaP7rkRCGidJbcjY2NpbLcXj2spmYmff8v52Y7IabPIzjnI7BEK/C9nmwHTSRGSSgtrS02OT3hBhx0j0grLLs5MqNRPnvEoSyrQi7EeAFHZhvlnzooD4NSDiDCRFEayjgRIMs2/hRawcYmRxV0YYMsehAuKpjVuz8uxLC87OtMpEKOe3CgeyhznbvS1GyzuZxLK0taYk8XpiTCiDnqiAHyLBFdBKsrb1GGJNFyOtcQEDKkp29satBJlMPagSPHf+nxE8z5ApzgI6WQSsZwg0GUJV60ao9OjVh9Q60QHVxK/PjTcjrnEFiObq7JCYIr6mjYuvpG+eSNhUlMy+5BHQ3b0CKrtp+TzbJOVw/mC2tN1CXnvKWlXUFkhqy2KiU/5PKzgTHyIMHE6uvlC6/SMdws4zCEpp+amrJsJhuYpp4t4/7yxfXF0TNfcaNT5CMJXjrKpuZGGx6RgUBSIvrKUblctLa0Lue5OBpeeq1gIykrr3oFJpmZn05oJFJKwF8pQOXIkSOlsdxGUHQtiwh0XAe0t7Q0JxHHNRAkzRCtpswpz9eQDwSGjFglfGQUv5MzaeYlrXBgFf6rBL9glwd5yun8Q8ChnsxlOP6PjI0GSTK6iMSHJYCfJvW/ZNaZnGGDLuW4pJbOzi59Q9OVdD8l3Zz/IVmKNQYKLCaBE+ob62x8etTmizqQCuYpCdP9WvVXZpQXYnwEAxu7cLDuTmtnGmear8iRwkqJRHwpGcNNUDRzDMCSXBrmrEGWU6ymGLUrJbWEJeCFGIylVeeKEwFMkmAWIkYtsdEPT81P+IFhSPkwxxo5nUdGWVpQugh6K26IAIGxs0aSflZHKs/K44DkG2/i5yJo6rluQskYbpAiWRkUizqxeSGczRyAm6wpSkegPtdj6pTlIxe6bCgpxNmk73RasmxdVvvoJ2XAkUGNozP0kO2K5XThIBCCBap+4QK72fz8vOso09sTL1zrzl/NJWO44SQ4Jzz54Hkk8sS6Gon2/IG8XNMyBMQol7Tczuo88ypZUed0pvaEltwNDZLynYUKO2Wvgws2YPAqcD2+UiZbYwQcWVbc63ap+E6WjuEmolfM0feoJsiPI9C1X9ClUnIJ31l2YO+JypikHJeCUvdWylmx/6Tfic/TV8pYVVfye717671/qrLis7V1rC1nvVUT7U63IZ1nbdsoby0Y1uZJ/16pP7lLYAVJ+VWK5ZkraA+3YhhmarIqNLj+LEszaxu+zu/Y7nX7lMqfhknMu7aPaRisbf+pYBphwXWtHBzLWVseTYv31sJynW6e9tba8r29KviM62BdzT9ds9lanQE1l+xM457Kcz3+5Z8w3JSEF3UIr1W0idlxq2vKCME6BGwpdH1B3zltWEZuy8ihksBIuM2is6wpLFpG9xck6UyTx133FHOvqDOLi0uWq6mwWXHL6kQqykliLShPm57he5njVDq9X03gUk4OlMW20qVY/RYV8X1BWbiGwRzi4RRUB4OwSo3ivei2i+kJqbhC0nCFHNhyCgSRZS2kcsOWP6kUyKP6qvVehUYzZ8lw/jX1eNR1nEZlGJlPFrReM3upVV5VccGy9J9jXNVnzs1Dj4vkXaMrx7Rz5gztBRQ5/ZfXNaMPfcoocgX9kI3ajS+0k3x5SfAewQea8hU2PQqM0JtTmbEahaxDHeIRLVyCjJOZMnhyCNE7Tzrkz78LFT5hZQVPIgxNVHH8bKXVq5wl9R34KF6D99/rlPTqTVBkm1kiQQ30S4Kdsu07tltjddYygrn7zQp+BT33Vqh88Eq/a6RY9fiKOuCsIBhmRUJFqXCKnDzIikXlP3fskNQ6C3ZD73Z3mKe+jMYIsCPBeBbxA1U99KNKv4vC+SL1Ko9iQfsOJGDvUKN+Fru6yahlvKGqmAeOZFQG8tF/xitjJIQx1n2NxaxwQVvnVccC41pZHBwnS3BVRYwPza2WJFlr45PjKlPYVlm2UDrR4fG0AH+XfSJGHgOJ7W4ZESMDhA+dZzixe2BA59wcnRyzAxNDtle7DJ6ZHLR9hQkbFwXOwKY0GHmHweeHhLG9jqsGNuGkKOmvPvlh+533/4G22k2LMWosiemwDQ/icGYowuJejGhTLECExPCjYJXF4BdR+xEFjFOV7ZKsCI/o0W5sUtYF5S2K8cQlDwyOpSv99FMg9R5t5HdWR1JQNvvTvc+0V+/S4v2HDtl//cP/1z730Jed4Li3oPdhErR5SK4f7/2zP7a/+PBfu2i0WCCclpiHrs7k9Qfx0cZKMQ+2F0bqcz2wdwuGXe19pmzuR6dyIArZ6xRt4SW77EAeMAMIwNv6CTomcaFvzkzUz89++Uv2X/7wv9nj333GCdqZvOBKa2B6aowzm4Le4fNHH/hT+6Xf+k3Hf06/l9RW2gl8mWS8n7rnE4cqKwh/Vf474JxzqmurNab0s1Kf+Ykpe9+fvM9+/3/8vuUmZwSbCk3OczY4PWl5NbGoMr1Nai+wY4IGCjDfSjFbZ4DgXH2BgVYKr9XKz+Y4QUjMX4YUTUZLwkGV0FGpD+8woWa5Kg/tZzgxOTFul+iL+lGtcXVK5rgG1K6W0qdKgZKZ4MNuKRUUCWh91FxWd8fHx0tDknRRQP9QPtc1156ARAjot//w9+yZ5551qWBRZ7EgJXJw+5vv+Wf27te/zbpqaq2uKmPTklTyes6E6tZaEU+1ts7lFdHmiRe+aw/tfdp++W0/bu2azWuqa5wwIeF5Pa+RS0WN3nViU4OwHCIhOMkgWEDx+l6E0akC3qtCb6f38hr1EBWDHos80kwVTFPnVxdEHEgPCzxTG2F3MFv6Nb3E7I9PIrN/kKggS6SXmblp+/xDX7FqHalwz933etxAYOVECuPVX57zseUCAoHUiBmMLsx6v+YlxRZVB21DAucEmiVJYnM6uxnLNEwEnaJ3iZaof3g+codjwar4U3t9L7ea72Uiib3EFHNSPqXmwZvef/7QPvviI1+ze+58jeQeMTuJZUjXMOsKwRQbLcHyYF6L+miRb5M6C7xYI8ncJUFFHxJTWNA9JONFAWNO3yuqsmKi2mMu1UBRMEGqdP228k6rz0iejIW2xmb7hX/5r3Ty4JK7z0wtzNvvfuCPrCBG9Z9+/jfV1oJl1FeMILSbyWNWk0tGIMoKr3MaJ75lE3gjDav+WWCqPcTVmmmJ5s5kCUOvkWoCHDHZs2jR4LUFbedkHCCZVknGn9GWwgW9l1HfGQHa8RmY3Gng7GMSJql8VUzugstyeuloOk0tF/9jzrgpieU2jAW85uZz1tLelEgeKwhiIMxoDTKXqbAfffPbbWtHl41r9v/773zdPvCpj4gRVNl73vouWygUrKBl0rQOsar1MpnRteSqrhXhFSxXpXNZNMjzGsQTIqgFlnpMvKqAYwtmWB6rLIA+L2aLHJHRGr5KA5shCLuUzAVrFLEURcBmjfpOSLFZFbIohsQ7MDIGrkQ7qxPxIJlAhC6ZII0kEmhR4s0C0oWIvxriAgYSKWCY5FnQEnFaeaZg1Sp7TmXnlKtadS2JcDvauuzdP/MzVi8GASObIQirJNO8mEMGJiFCrdCH5RdqiynOrFGZWX2HKc2LQddgmIE1CB7skYfZ1qqXzFu+bKVgGIKYVLB2n5pwIn1yjd8pYlESYoGJRPXPU7/6Ny9YPPTNR1R30W677kZ74cUX7IiOtL3hmhtt9+atej5nBYVsmxXuZ8Wlvvadb9mE4lhesXWHXb/rKvWhoEmnRlLmpD323JM2Pj5h23XUx41XXG3NmhAmJTV++msP2uYrdlmdJpWpgSG78/qb7LtHD9pUrmDtTS32hccesof2PW1NdfX2ia/+g33v7ffagtSuew/us/0H9gtji7bnyqvsip4tkhKr7fmhfvvGd5+wa3dfY02Kiv34049bU8sGu/3am62jtl7S+qKPv2f2Pmt9fYetVXVcsXu3bevYJIm2Ss+KdnDomD354nctL2nz6m177Nptu72erCZzpNPFsFA5NaAdvjBJjReViyRZignDTUkwSVcyM7tq0FQiLa1KYbZc1FRcU5u1e264w+7cfZUkg4y1be223/2T99pTTz9lhe8r2pykgr/6+7+3Rx/7luXGp+SU3mlv+mdvsPtukdSiKtAl1mvZOKt10Hs/8pf2jX/6lv36u/+13S2inNIwfe+H/tSeePIJ+/kfe7d984Wn7Ktf/5r96r/6BfvsZ/7BDot4X/26u+3+G+6yD3/sg7bv2GG7/Zbb7Gd+4B3WKCl2Ukzrga983h752te1v5mo3c32ffe/we6+49VilHX2/g/9uX310UfsJ979k/YPn/q0veF191mDTiZ87//+U3uT8lVNztm3HnnUqrta7Sd+/F/YDduvdJ1iIStmqfOs/+bvPmSPPPSw3HFq7Z0/8MP22utvs6Mitt/+g9+zNm0T/N1f+y0x0KJ95Av/YA89+g2bOj7iZ2Hf9+q77Z13v96GJifst97/P8wUWen777rfPv5//o9ZS7394A++zWolHH30Ex8V0Rbs+9/0Zvve19wjGUdncSNRSfpBtuQIDZjkSxR0VmGQyQWSLmpGAgdFoTintS8lf/iBTyrK+Zh965++aQf27be+mTHLNn7c/uuv/Afbs3WnzTF51Gftgx/5Wzv43Iuuo2yta7TfFF5eLcb0VN8++50/fa9Naivrpo3d9mef/rC95e777Gfe9qM2JB33f/vb99vVt95k40f6rTvbZNt377AP/sMnrW9q1HZu22oPP/uk9SugSr6QF/wfsXtuvMM+/vm/s498/GO2betWG1HszOl//Lj90rt+2l53w+32zLFD9nsfer/dddsdtjA4boMjw3Z4fMh+5E3fb//uh/+FTeeL9j8++mf28EMP2Z6ezTYyNKxoSq32b37qZ+3W3dfZg09929775+9TH+vl31hrf/7hv7GffueP29te972SfIua8BT02OF1iqTHQZWkPKwskCiRmv2907x7imIvxUclteMG5LLEqZIkGANaIM0sSyMJBguaaouS0mYkXaF/Qg/HMpu8f/LxD9qffexvrH1jl917//02quXqf33fH9iXn/ymloqqQWVXa5nF8q73yivs4Phx+/o/PeIlzyu47Ne+801fxvds32pDc1P2oo5W/dhnP2VZ7V8+Mjlsf/Gpj9r7PvqXViPn6tHcjH3ogU/bQ08/JglvyT70pb+zP/yr92u9VGmvf8MbrFhbaf/9L/6XfeorD9iMlOyjkooOjg6ovE9LqhIDUgj+aVmMD6jcT3318770vFbE/O19z9of/O/326Act5G6CmIoTz71pB06eMA6errsmUN77c8/8tc2mWOXxaL1jR4XAxwXM1mwR554zN73Nx+w+o3t9pYfebtl21vsLz/+YXti3wsybCzZETGgR158xh589CFr3dhp337hGfv9P/+f9g9ffsDaFXbr+b6D9sFPfsyOCi4sNpF6A2OUBA2TRDp+iUm80HHHUhMi5gu6XNQXGNjQ9ZEhLzHgqCKgb+zptv/wnn9vr3v9/d6nRzSBuV4Xy7qWs42aaH7z373H3vLWtzpTe/jxf9LEJ7h/7u8k3R21d77rXfaeX/1Nu/uNr7dPfeGztvfwQcdlXk0+uH+//dgPvcN+7V//kjXXKcSbGEqVJOOOtnZ7xw/8kDVkau3aK66y//sXf93qNImClztff6/94q+9x37i537OBorT9ndfekDLaEn9msRZFQz2D9hP/PCP2Xv+zS9b04ZW+8rDX7OJiQn75tP/ZF+QiuT22263//yrv2X/5t0/62qLbz+m9kry/eOP/JWviH7mX/+8/dqv/l+245or7EOf/rj1CQaLwjeL85fM5ly2kDwJfJUCk+Sbfr/kQl4iQi/SbKzYSkKSBJ+ukxKy47GkkTlG3LD8xNH8Mw8/aE88/6wdnxq3hzUg0RXd/+q7bEIM8aMPftZ6d261n/vRn7QtLR12zbWvsn/7W++xzz3yoF173fUaOiJQEZxWflrSvco29nbbo898x47Nj9nzhw9pD+yIveWN32stYooLYirVDVm76fob7S33f6/NfrDKPvGlz1iXGNXP/8hPWMsDn7D3i1kdHDxqN0kP+KkvfdYa2pvt3f/8XZKArrBX3XKT/fp//A174Btftrvuvc+ZQUGs4VVXXm0//UM/ruVfpT349Ldcd7hl+w5759vfIfKotCdmBu3Rh79hAyODzgQrRDi1Ggi/8a9+SfqznB383d+SQeewDSsqdbV0kAUxYCQzJonB4SHpMWd1dnabXal6XnXN9Tb+PSPWqaUeGbCY5zTJvONt77Qu5Xn8t9/jJx7e+86fsjtvvcP2jwzYkQMHbFDSz64NWwR6lnBIKhirgmHqTGjFGSWEDNmC5IhUMRt0xrCEBcGlUtLt6+54jW3btMluuelm++QXPmMj6gseAbl83o1b3/ua+2x39xabuP52++inP2kjmhiwnH9Ly130ll9+8Ev25EOP2t6JAVfb7Hthr119x63SM1falT3b7I233G3tYoYLUtPUFGRlllakQXqA9oqse0LUqa466aOXdL3lzjukN/2q/eVff8BmpKLIy6o/oUhI9fK4wEpfKwXFNSrznitvtDH5j+7avMUOPP2cVUqK3PvC8zKSLdlrrrnJtja02OYbX203XXm9931G6oAjQwNWpRXR/5GkWl9Va8ePDdjgwICCTA/bjg1dIXYnA/RUyWEa1Ck+ATmTDGa28H/gkRHcpyrqUn9WOoabVZhafwrEZSOvwf+5Bz5HeBpXxG9q77SffPtP2BtuvccOjPRJz5i3V3V0WI+U87UiLoiKvP3Dx216fsr1jwsi0LrFaq00ZQy5/TX20U993B7Rku2ZF591a+kbbrnL6tDSSdpYkN7ququv0mCusU1dG72VOzdvk06vwrZ0d7ukhZV5UoYTmHT3hg7bsXGTCDBvWzt7pB6Qa8bUpI1MjalEuXaIAG+45hprkETViDvOnIxFKntzV49tqGlQ6UvW09ntks7I4HHLdrS65fymq65FQLWGqjpr6+ywYzprmH3Vi9UyzuiBW/PVjrtvebVd//CX7O8//gn77Mc+YVt27bCbb7jRbnzzO21BzJNZF3ej7VoG1opBNOr4ha6WNtvRvcn1bR09G23vgb1u4Z2TXq2xAoer4C2AYYAl6ZmkKE1CrG5h1xeuuOEsaRUAK8gXpbfVNtSsJDvg2tbY4rrlSrWBvzq5t1RIr4y+jxjUmjOsWgY1JhCMT7P5nHGs6I6eXuuta7FNO7ZZ3XW32zU7dztPpp5u6QxbBDuMIvQNvaxWtt63GnIJ3ovqX430lvs16f0XqTByUp/8+BveKoOTJPTnn3QjoPaD+VIYY1yXyszoWYNWMdXSTTKu4PyT2laLJ0Kjjn7NqJ8Yx5o16Yov26SW5lijs1JjXLllhzVJb3r1pi1WdVeFdTToLCf1CWFAw/T0giCMMSGVcIRGYJOReuh7KSR23JSEJAlCkVRwicE9IgMlrEkVml1ZKv3OL/57Xxphta3TIGzQwM5r+VqpkFE5DU4YmylIbF11nRW1CwHGVy9m0KABWaPR51ZFDcZWSQX3Ssf0yQf/0f7xmUfs4N59Xu41m7ZJYhBDQ3rCci1hqkoEVKElFvfqxGRw5RB/EtFpOSxmXCWidZceEXN+ZsZaZaEvFmbd8FGvkG/1kmAqtMzPiNLaa5tlVMEvTy4hKk86Ayvk5p1AiPpdENFj6cSQoFv+HnlqxViRnJxIuWIAksEmrz6jn8qoXRt1vOvv/8ffs+cO77MD+/fa17/9iH3i4x+3TVX19gP3vMEqilj6MRJhmZW7imA4o3u0o0p1kyBiln1VFeqT67lUmWAG8Z3JLg4nVl7VBWboGNVNmGT0I0RyZuXAs6zqA6dYrZHEMF65v6LaVa2mNYoR0e6s8I1vKf5xjJddW7fb0+rvfTffZbcJf/tHRm1C0toOMZ+jBXnPqg8sy+fki1MjyW1GFDUrBMwJtnnV7WyfDQyadItq6N6+Q9Y/NGjf8/rvsXe86W32+DOPW8WM2GPrkoxo8ibAiMdHTLFCKojpohzQ6mpsVlb6MVmq27b12sJj1fZM3157002324CkxD/9+49plbHBfuz73uaeBc2ZOnvza19vWyU5HjxywGZ0fO8mGeGAhHsUnJ5FpnAhY5gmFZIbKgUjB7RLl5d/4oybkmCSzJy4e9SKmeQ1IGta5HEGkQjPkKfbvnF10fCpE0PaoMFZL0kso2HFIwbV1pZ2u2Hzbtv7/F77qiyLe7bttE9/4XPuq3bzVTeIUUlWEhXUFjAgaOkuC+uV3dvt+i1X2JOPPmajIyP2gz/yU1ablYVSxDCjonE7qZJ7RoOWZBWqD12o+KbqxP2GsiSLSCrI1jfbrVdcb0985zF74KnH7dabb7bPP/p1m5mZs1uvu1lW1Db5ZcoAI4bHcMaZelYEmRfjR5p5du8L9o0jL/pE8cyTT1mLJoONm3ptfFQH0Gu8V4nRZmTyrMDiLsIGEhlZQrm3BKNVGbNiml//1jfsoce/bW9+81vtNqkgerZtsyeeeMIGpyZskt0yAmhGIs2cOBVMslrO+KS5hEHgKlSdl4SXtBUGtoBvpeqdn5uR/jfKOOG9wP68CLhr6iK9L8K+7iBNqtjg7uMwM2uVFS0jiztREIFLrdwEcIuZE0OslxIxK0kfQxvqlzo9r9ZyGLcrmB0GCpbHNWKcSOY/cN8b7Mifvc/e+4E/tvtfe499+Rtf9w0H/+EX3uMNaNRkyOSIV4JkYZfSqnOqR+2oEPxqWSVIAn1ScP/jT/2t7dixS4ahJnvm8afsY5s/Y4995zuSGtttYnjMvvLtb7hetkVtrNSEOK4xhL9D47zakgsT9htlUPvKFz9vn3ngH13iPCRj1LPPPGM/9653a7lfb++4/032Ma1e/ugv/tiu3n2FffGBB+zaPVfZnp/dafUa16GFp2dwERPuYyn4ZiqlBFiSWZ4ZlNe56V8u71QyO248XqRm5hotXdzpWAnWCJpJEFudtP014g64SNSIcJA2GARxTDRKb/Ur7/pZe+/7/5f9z/f9kTVou9KUXEPuv/Uu+35JUUhx6JMaNKgX8/pSL+lJBb/+tffaV7S8atby6PZbbnbCQ5rNSmyrVX285xKMXsmKEFiyoVqvEcOrE6Fl9VwLOfvpt/2YvW9syv76b//aPiXjzISsrbdcca3987e83VqkxSJ/rYiyUpIbfQy7eJCeJTlLKvqzD37AhrTEnpUk+va3fL91toowB4esTu3IIM2qt+y2qc1LMgYWugfz4Hut2lYjhtK5oc32Pfec/dH+fTrtUFb8yWnb07vNXn/Xvc5wsuo3u5EykpTZNVKPf57KqRRBAdes2pjVvRqeI0mrnbimgBEkslW+eI6Z9QmRu44XfeFdpBukHJVgvVKRvGrLLk10dYJbte3s3GRd+lYrCRHsNwpG1+/YY71tG61K8N4s3fLs9l0uXcPommRYuWbLTutp2uDqgPtverVlf7LCviLm+Oij37RdWgn84Ju/z7o7N9q4dMzXqq7t7d0uuaNmyalvV/ZsleFrVqVJH6x8P/L6t9jnpYM8evCw/G7faD/zw++yB7/6oD335NP29jf9oI4TGbPP/+Pn7LAm4Ftvvs2u791hvWoXKwvGw67mLpvbsls7gmpse0u3/fa//BX72Bf/3p564kl5HrTIQ+Lf2r3X3em7hX70jW+1jc0b7GF5IDytCey1d95lb73/jZoYUSaoMIfZyth3MJ+QIvNDjx/8ZtkQEN5EcHCon/DW5XgDFZJWiy4/X9aJYwKWJPLt73veKmqXrLWjXSgO0hqSJIT61ae/Y1OTU3bHtTdZh85dgXnB5AAOriQQpVyJ7fjwsH13//OWzxesVS42V++6QtbLLMKQPfHdp+3w9IjdJ2V6S32dZu0Ke+TQs/bL/+nf210a/P/p537F2sJNTqgAACAASURBVLGUqz2PHHhe7ibH7A3X3Wqt9U325MBB++6Rg3ab/PO2dXRbn+JePv3cM7Z96w5JHztdmuWYgxel05uenrGG1ia7QsTeKt0nTP7FvXvt0NEjdsdNt1q79E/4MX7yOw/Zb7z3d30Z9qY777MjWno1q283XHW93G/k16cAxFhx90gPesv23e4S9PBzT9nY6Ijdf90tcpyusc/LpaRNqoU7b7jJjQ59Mr4898ILvhStFaPcLYl6oxhTUcv4bz79hJbXOfue2+92Ce0R+R1OSc946403aQmYtW/Jst4vV6c7r73NusSEfMsnzu7CzYuHn3PD1h03vs4ZXkgQY0KwKUkySP9hQnNGqb6yuwRVhwR5IU3h1yT14C/JMhi/zFoN80pJsXLItHFhBu/NjBj2rFyF2PODHpddS3mpAvJ6D4MdjBV1A4qCou75NkENBPf1lLTPxOKxcQSLRr3PUh9v1FnlxWDWKHVFDbputYd2ETcAZ3DiNILPMJlJcpdVeklSNE7ibuFXfo0oV5FAnfMqmOV6kxjwgnSsi1pS49OK3rRa+V2CVyNRFcyovfJmVRvlYM8GBiYHJiQmS+VDd13QDHZqopdwoP5XymhXIfzMTs7a2PFp+W7eoD5SAkDnE/GUoOsyvOAnWRJMEqFQw9QGxvtseHLAerVM1PDyYRqGC9vQAj26y4Pyg/64p9pHKv90ZYvWrHR8Gfku5mGDLM3EPNxhWoMzpyUuUtjM7Iw9vu85+8iDn5Hu7lH7nd/8f8QQb5fEqhpVThGfQF1hFEhVcwxsDX40/jj9QpQsMdlCWCG3EAY1ekm2NbLzJV8h44OkNpc21Nq8lq2L0mXxB1FUiDg/9fhD9uv//Xfsp+RK8lM/+KOuI3Seo3KJAL6oJR3bASshNowdDHIRFYTMcnlRbcwJUrUiTvqZlyVWF98dk1eejGDhBhC9T/gztl766YboM9V8vsNk6B8fHNdJsBeYFHrPSjGAYkVehq2nPbjrnTfdrZoTxujXUzNJGBNwpO3Uz2QG01vSJFaUiw6qC3BZIwQDlwUhF3UAOskqZc5hYdHbdcqHH62sHuqxkpayjlP6qc0CMJwljCdMDproCvl59/Oc1fvch0ll2GmkLMCM5T2SeTWw0d+sPAdqK6XHZqpVO2hxISdPCKlcaDw4zSkPu6nYwbUkPSD1c85MLmH+1bJus3zHC8OHa2Klhpni1ubSuB7gfjQrlzPGaFHjgm2TMFf6v6gMCxlnc6dIwqXGaY0mjKWleRsbGpNhThLytquFZ0FT9aiokmCSjK2S0EnC5PirFUOY0XIzTYKMFH43wphE0Fi1kUicKenjzFI52MbnfngabA1S8hdFPHXaTbIgEbIS4lGqYhmJ0l8E9/yLz9n/9z//0HRgqv34295hd197uxiNCE9MCEIiKARMGN0akgaMjjoWNPo8QAStgmHDdJT0yP9jKyPEUC895gLGAjEnhjxLanaZ0Af2knu7NdAb1K9aLSubYZBiAhgkYHBsaaxUCCw3w6oerKc16l8wIKmfggFHukLoHqgC5i/9GzYvzqNh5xDEAqTYZ1zpD/gupq5JAyZcpXzePspHHygmEtsGYWNCALr0raClekaGD7b8ZcSE8GklRR89/8Fv4ABokt/8BD/htuCpemC8tCEw7qBYYdkUrbQsqzHYoJjICA4wLbwIqgSPouDh7kiamDDgZHGDEqNhIkRlQ9/Ro2JBxvsgI8nUF/ua1PCQYPlBa9xIpLHCfmn6DHNjhxR45jfwr9K7BAJh59Ki8sLMGAu0gS2KSH9I7FWCLXiFgeZpn5BLeR5tH5gj8aottM/RoL7RPiRSDDkF1VuN/yX7zlkevaTE5BcyYjyszTStfks4LYWE4aY0JEkXygo2o4AVTzz3T3al/BvZUYMkyTSONMTSC8oj2otLJMkIIEeI1ELOIKk4v2Iw+l9ITrzcZ9Dq4bwkmSOjg7akgBqtrRvEIKpsg0gEYmBvOJIWifp4FR0eUlGUhvi+nLyu1cklCf1Rjm81S9oe83FvXFb4wyP9cllqtXYZa7IiLBhfVB/wvvsSasDznvcTsTth3vFeJAf6HOESW7P8TDdos/dBfSIfy1HcooASEwMME9hQrsMvARphuJhUGuRq09bWYS3aaoeTedAzohfzzMsA4D1+8bp/+E6ZSblkpGf0lXZQv5dGhiRP6AeTX3gPuJO8D7q6zKt7tDZ5LdQBfsnnNQB3pHJ9Se4DO+9bwmGY7EKPKXD9FMAQ9N+0gxqBG/AiMZECP8qhbRHOsTRwH3GT7mNsd8wXSlu/Dem7oWcw95zgU7QjB4/YxtZe627brLrVc/pGQxwCl3cqKT9J0InzMMQXgkOsINcHGBkSnHPxMZDcYhA7scV8y89Sg4SvGjxIDkgGdYq2va27V8srpCykMHaYaEbHgq2sDPx0ov5YB/dTPGGZSLkfa3S61If3aF8kCMogD/frFXZ/T89WNypgjIL4Yj2xLCcwfiTvsJqKQgJNdILnmuRZe4n36VMkYJbkrhtUYqkCW2GZi2sOycvUb6Q3GGBBE0qDLLNtzW02NzUnZ/sWZ6auAEjKCaWF/+OtCKMT2qYMifIgeQ0DUZiAaCPvxz5hGOE71m6ust9Kggv4AZZpNPHc+bVKcDjzrjNDVBOhXMpebp++J3Pvet3Q0yTpBS8raYOXrfK0EPD7EUex3XEiXSkgtJ3fPo5Pkmgp6RRZ/LlP/sINGcEDaoE6ucCVYmIFsoZUL08w+GoYhLMccWtMGC4MwDhgfLbWx5mOsjMjB8lqBSbpAci7y3mSvEgXLPew0uIzWCMRox7dF8sc9Dj6o2aXtnR1xqLvSJHcjwRFvUmTQ1uSfFGC4MpzZ6pJ8zx/6j1uI2XKTuWGC5Z4kXkhlcS+xPdpA2UESSa8i2sLKebhe2wXA4dP/M2zCI/YNt/lpJe5T++duCF+3aANruNTKUX5nrbI2NQhJjk9M+WMM8pvLH3XJsqLCcbijD/90UPe97r1nVp4JcIL+DoM9QFGfHjOxyU4fXgvVU0KHytmJa8jKZ+ySN4jfaeciCfunS55OekKeSH5TTkR3rHv9CV+yObP9WW5Pal7/n7y7ERontgyyCOuiFj6M6YzMryVYioZSRLrI4fd48ZAhB30XtUSIeKYdMkgGck+iJJBlR4UUWqJg9QZUhS5koxeHrorlYdhwAc9UpwcmV2n5M9Y3nsWT84Q9YF5UMcKUwnP+T9NPJHgnIj1IzIBb3Nyz9um76EvPJA6QS5MbBuEMaeq90poD0wSE4YzL10jI0lLLU6APEwl7vkt2h4uy3V725LKXFOnDL6M9RTgvyB9WW5u3hqyctORNbgodQT4wTgUyl5TYfI2bY4SVigtlhvaQaMcDryOLjGpL/YB1NE+L4drLFfXiAN4OPlJXJ3RuCgZ2g4zie/FVno+FRjrjuMqlpMUd8Ilwsnbx4e6kjodz/oNTkhR4uRnzO916jd9iWktrmIb41hOZV311Ye1PuhtcwovyK4tdJtAkUeeYuWr3rz8fpRMqDSX4IRUaXqsV35uR/v7bPfOZhlIpATHFqpRQ6ivOAAYROnBlh5Uqwd9HHbJuIkFoGhHdkpeDIdxBssqORm8sEuS68KSj9/T96gPS7I4UQROFO+EfNi8nVFEStV3bwL3dPE+aHIIy1aiOUpK8iKC1smJj7v65zZeXSEF8kV1QOwvb1FmhAV50r2n7c5Q9YU8GKZ8Kc1vfaetbhnVdclhrV5KSpErtlyvJm3T9h7l19JGsEPnhcpCERTdzcWNV3on1reCqaS/1KXPqoQ0qpsB7ymJT5k8wrwn7TdPTJfRgomOmL7zbsRRzB1gobIol5v6EsbJCvOAfa6UTzmh1WlYxfLSV9yKyEPT6At1uE6Vm0nn0mMyQHKl30yyFBDxQ9nO7NIVnwAkcq2fUM5gbJsam5FPbRdUombAicHFGRS0fvGXzN2SOeOGpYNLk/pr0u6VWe1UWZBvGiMI66EvLdagzQks+ayH0fTzk+VbVUaqgvRATr8bx7Tf89alPqn2pN+nbcv1nKIPkVaoY21fYxlc47O4fF1T5PLPtUTvbdd/ayUnZ+L6hHJXakYqIdZkXq40WJHrZVgi3mSL8DMh/00MHjiHB88B2EMaGidr1er7/kZSJZdYeyyJ3Gv7Gfuwtn/pktPP0mXFPMv4WOnuaRucLnNVO/UjPovlxsLSxaf7utwOfUm3Zb22rtcw2HVBsUMzws/01LQOZ2ukpAR+p4LMeqVd2vdKJlQahAYzRL9Vo2Uny4fcvPbw6g9XkzCHX9rIvPRaH5bAczPz2oveGtQTwsdGBe6YGJ0UQYoFIA0us4jYw2Ux8NLr8iXSYqCOAZIgJ9hv6rXPP8w26anmEunMK2wmht7SGHHCrUfyVmIJ3KrdHvNzxOBW0sS4oop/hRAtv34aCKyWZVhS40DerriLMEWGI5L+osy6BTlOgxn3BUxYJXnOQDg7TVvKj08GgbiymtWGiAYxSKLqowpZfw1yslIuj/vE8CwJJgmRIU26LlDSZLsCCkwqsjhk6URXprzzNqJhk7A6CBGd4+T4pDXUsrUSkxrRgqoULKTO5mZ1Gg0KRU/hrfDmeWtqyVbEiquowMAjx4etu6tbWAq7gpakU4463lJZdGO4KQkmGazQ7Ipg+2C1JMlWjx2Zm9O2QqwkZSZ5nhiCpis3RoTwaxOKhdmgwB9ZhZlzJ3MpCGGVnQrxNaaoOE6Ry7hJjC9RyXieWlyS1chdzbfKandag2IDYKzRtoUVUDiHLA02WTKGmxXshiVdpjJrLdqFMq1IOuzjgmjL6dxDYFm/KPrKyC1qcGDQehRE2N2lXI7E16DaNihQL+qQnHYMQYwn6iXPfVtLugbpgqd1BG5zQ5N2aREeDWhEfaQmM7fYlwaTbNZZUiUhSa4M+IBolnsdG7TkVqgzwpaVNV3nhyVE9QZL7TlZtQko0aJI4a4TFs2FTR4yrsmqip5yTFZuj4q+nIJYWRb8zy2+0AP39/crAtU2pw0/B55UGnxxFXBZhZYEk1wtiaAPU0ALGQjy2umxIMdliLYE8X9uKW290vF5FKDReeUkKTbUNrn0uMz09IXnPom1d3jouhWGCBctY2k9sJ7te5zhUy1Jvz7LkR/gJ0xiZ7ueS6G8EjHcQFgsp7VmcCc4keWSoq8oOs5mnb0y0K8oH4opCJuM3njYU6NjUJksz9ZQFkwrc+JzYctm/+F+RXe/0iNeOxGypUQfHKhZzmHMqVfg3MnRqRCxnI3MkvrLjPKV44NxnvY8DdI6OmHBX0LDkI4L3ty+SzFSiUau6FKstoSi6EceJraSkK+sZAw3QZ8Cu1theYSoatV5xTMKYMs2OJ5FqSW4mpQXda+cHFeXEMK16nCtmVkF39BBVgoNtqLr4mvYzULMTPzTejf2Wv+xfsVh5HgLyipPWWcbJ5TnsjyrKUn684qVOj87b106MM6fYLQpoR02a+FbYoabE5kecQs3b9psR/uO+jKPgUKuwCQD+QK01ex1LRjLv18qBND/4l+AvmtLzxaXXFagHEqBKJnAwAeRZxolUU5MTjihlnXHLxXSp84XxvhKnghX4D42MmY9Ol0zMsYQ5ejU5V3OT0vEcJNmeQmj1IVBgFW1s7VTh4PldTRo0JfBESOjBPknstbLeUic277B+GamZ61WEbMbdWRFCAIi/EgNEve5L8nTICjLuVdpW3u36IzsEXfVAhcewqucXhEEIqxDIRyCxqETOrZCeuLifFEh69pdMmADBmEFSzmVjuFmWRRMyYSiOAwIuANt0sx5vF8Bcv0QLVZ90s2U+OB4pYQB0bmkqH+u0xIjrFyotuGBYevt3hx++w5tZiwUXvqWLOs8arru4X7SWsfZ4OE4DJ/AyrPWK0WN4wWJPkiJWj1hl9EWxEHRQNeGjYqQzmmiAdC+LY8AIyWaSsRwk0iDKf7oJhospfpXLXeTLp2cN6ON/EWFqV+UPoxzQAiUW04vHwJsOURSBJYeKk7uPiNDI77tsLVRMdo5fsCZaOR6ifyeLKvjDhyMOlfvucaOHD7iumPKLadXBgHwQgBod+pPaGF+bs5DQW3q0FKbw77gnEqlzCDp/+bNisb+ysB9ibyd2qXBV59BRYwMBMKk1VbV2a7tO2QkOOYAQZEdXFEukf5dhM1EEiF4CMyQ4xmI8DMyPGo97ZtkhFGgNB1CdoL/3ardNMiY7L/RVfkx4gwM9JclyVeIa19qa/wTpZ+zmDhymIPZ9u3bazt18iWwLpFY3C8JkpxxUxpMMgFHoMFgQYUEIUL/iGci4RBYdGJ8wgeRyzdIn/HdlwTScqY0BJiMiElYpUOo+o4esa2bt3jwX5cSOW+Ho/3SKVjPwh2PPUk8GtQiFbaxq8t9WmfljVBOrwwCCAcI5Oh3YZRHdbRxb0+vDvvSMhvsLAcofWX1XA5vl4jhBlpbq8gKv1eU0gwMk5Fgqw6cH/NzsdMK68BQ15ZxOQyBc9eH5UlGXwqzUmOIIXZKrUF0+CDIC6p+fAP4Sdrhs1gKzvrNjlGkUc577t242YYHR5xZRreVMlZeOg6ZcHzvvPyGPVan/iYV5aYgg01v16YQuR91xwn08tLruBxzloYkCSURBcgHQPT9kuo6CQHFzMqe4cZMg7s/HDpy0PkqehsYZqVCVVfFcNWX4yg4C31C+kB1QeI8RoIawwOL2n89JIPAjp7t2q+ddR1wNUczgA/OPw0CY+CN/npQeDiv5LGk+0rpNGsqaq2jods6m7pt6NhxN+Zwbraiw6rC6P6f3gZwFjp1CRfhDHGdD7J7UeenI+EXFOBlbHDM9vTu1rnjnIQk5QZIWxuS/RKGwytt+qSi5pcGk3wpkGInjhTabS06/rW2XrsOhj3wqI80loF+wAk/ymk9CESCjM/QJiKNDxwbsO7OjdaoyONI5KskxfUKWnPPt4wCepcdK90TgdP7JrWvG4mSsytwFQrS/ksosISz+BykxA4bdMTHFWBkY2eXdjex/ZB05vhJXrxsLyW04+Z0OJSyWhIOB7RULmVsW88OmxybUJSgGeeLuQX5j8mXrJxODgFfxonGfE5xc0ulwp2NWp3cSdoV5LjKGdmZp2hd9XO4k5XA7u273ZVoQS5bWGoxPgTfv5dTw5m36WJ+Iz1ZRZaXviIVKTa/DQ0NWTab9bB0QfceRfqLuXfnv20lZ7g5KYh9ZEkWESHjPwaB79lxpY2Njtnc/Jyf9VEOp3ZS6PmDFeIEjhU2MzFti7lF7azZ6hL6yxXC8bEkRR0xEmONdkrt2XWlHT18VEFKch41KLDHKE+WJf71potke7xNTUxZca6g2AWbfbyHUHUr+C1DbwUWpWO4Wenz+t98qkVfKfYogsaZlu1wPfIZGxketlxxXiHsw9I7HhxW6tu1TgSklsUctiYGmZvN2fjwhG3dtFW7a+qcCIO0sh7pnlhS+k6QHjkvXYw2MSiwVCRQL+UPaMmIOxHWWj/1UtJlOILy1OWWylN0xfj+cuQsRy/Oz87Z0MCQ7d62W+NcASwkEER/VdQaZQa5emRA52WdZISJIMHZ3Bh2kCdrRIhNdU22sX2j9ff121JBy0lJNe4+gYuQCLbMKFcGFO4k2GEWc0U7euiofO52yaWk3uFVKYt2RXLG0Jkyp7WWVje8SX+M9NiiCPNtOoqDIARIqs6kteYPe8LPtKbLM39R55rXCP5EUOJ886OH++yqnVcpaIiCi/hWTxzHw+rJrZXltAoCGG60A4/5o5xW5tAwUNjZwQAr6DMyPmwjk8O2ecc2d56I0y3STTkSZRg7eDTmZS0dPDooCW+HtdYTTNe97hxGQS92doiwUCjIQl4lCT9nlboOCz8DYwO2ddtWhWPD0MNWu7NT16VGGZGYA7zFB2Xcyko9MadDvYgEv2PLDmuoZt+83KqEFdfnwhw1+YAkBE7KKBu4VzB/WTLJM+b77jsWIpRD1OgnGSiFgs7A0WhZ1FpleGzYjoz22VZFa66uCed9OPGXZ18fTTkR4ag8Ano3brGWug2CoqRH9LyCT9Aqrnj7vCLGg8QoJohUD0PE34+Ja2xq1I4MHrHtO7e7u1epbqdbxST1owr9sM6qGdBush3btuuQtQarrZCEL/y4jgLOmLy0JLg5rnSr8iXITqUw9sMq5Yw5yisa4mteBjsrM36QOFK/kQh4ntzyCDBuAYCJBczikweW+cX/dCdfLOjQ+7wVkr2+C5I8fI6EoYF8XQmigCSIzx7XbG2d1wWTdEYZs4dSta11wQbHjtvg6HHfOVJZjZ5MAUnVHq/b28psnIw472n6u99QWulfvHMhr+kWnrJlqYwBjEwQoeWcbDg2MGI9OjN7Q1O7O36jsgh4EhQAu/58i+FZ6Cx6x0qt7cPUFhhlUcF8x6bG7Wj/UU1kMhbVB7cg8LKkhi7XS2P8F+NgPfychQaepyJi60Pv+IUKSFGUfCTqf6kfiN052D9gu7butLraWscLS+y49RC8+ITjdJOXdF6Qf7Ci9fPB/xT48VHp7HyqFK043WjsZzO1VqOYoJFZOt04bGlBaNUKviPcE+CsND4FrdX4WN2/8wTUNdVc2OW2Ax5RPwAWgDijQfJwhuM3nGHh+Eo2pAairzLO+V4QQmfzU5bLzxon7/HJsxtDSzD/oOzX7Jip0VlviTP5ogaODwqVSXxDr0b3ZsZzcomotebGJh2A1CLfsXqry9ZZNtlGR/vyyj81PWVHB/tsy9Ze326Xl8N5lRgtkRIZSah/QoryU/ydHhX0+eJIDvekKSsDeoWVu65PeCDBFGOepUKIVj07P6097wN29ZZrZexqcny6bhDGFLnoWe9qutVyjtY4qNCkB27Hx8es73iftW9vt0ytDrFisKDH1MfHlX/HbUjbJUMk35UYG2e9nWe3wIinUGrAhOOGTzIRVIlJLorBYSzjuF7iQ+7ZsUfjmAjwgbZyhTmb15Gxc/OzNjk9oXid8jnVKKiuEfPTKokJSCIoArnDC70y6ifqwsvAg4xI95tXWDV2UlVrOd/S1GJNTjeN0kXXWU1N1qfJMDHSVn18tgzjA0nfmx35qnLAD9IpsGZWIKlMZxekpy2NKEAXbrntyFUbV+mOAuNcZpIOWgAcZAakhbyWwKOTI9oL3MeawKozFZICM1bf0GD1jQ1Wk5FCGkJwopFeEYOC6uC87ZhWiF4zI9Y/mLGuzKSzinfI7Jufn/dzWKCjjrY27R3utiohnuhAkzPjduToYevu7fYI2yGWSiBElucnpjRRJwPmxEwX5M5qwltpQiDB8DvCK0xa4EQDXExyUpLb0OBxu+7q66yukrOzEzWEM6N0CWe7a2uISfWB66Cr1P77uQnbN7DX2trbraW1RQxREpZLnoHsYJL8CkqV1W3DTSYmx9q57MYZgiURHZK3Ym9oJAyNcSxhQgwSIw1Wf8b0jm07xMikOtLKCtefgcEBGf+LVpOtsbp6CQL1taKdejE10Q36XPgYNfCfvoeAGNJtquzoq0rNgXEF16yl4pLGwrTNz+RsXi5z0FCdhIxOHebW0dpmtRI2KgmmoTKRYD2wiVC4oN1sVTXQzYlATjPMtTLpGYLtFWW/sMvtyDccPvrhs3pEfBjMzFgwMJYAA8eP2cjYiJC4aI1Njda1caMkODE+BgizEsgFqQI4jDEOcJZ+0dEYYIeSwwCgZu65D55EpiApiQVQlqSSGkVKWRDjHB0d9Rk5ly/oyIcWHVIlKaWu2l7c/6La0mTdOhZ1QQNFY1KSpJzSL/GU4hNJTwRPER5LOD7F/IL1H+33HUl7dlzhsQiziqQEAs6tBBkBeyKTjFJOTQ1Rh2atWFWwfQf3ibgXbdv27cKNkOqrEcgPdhP+YokMw8gg4yrcVyw+Pi+OFJgkDYrEE3BSWMg7k0R6nJ2bssN9h6xdgXPbNrRJyh+0WemLcZniDO2OznZbqlZJgoczVtRFRSccwUjfXXhJJnyEDZdQRSOs5vjTe8F7QHDU3lBnlryi9xbEoNmbz2dmbtr3hU/rMLeCxktb6wZt0tim5bl8WpWf96DbRRiltgdfrIl+XUBJElzDHHVNMUjFSfZBjFQ3JKY4OHTcdYutG1qss7PTqjJYS3knvFupg4ogXQwvgQGifA7fIrGjgUknkE2OGJsQpLNH2MsQUQXhPs7bYW8wAwrmAOKHRoe8zc3NLZaTZFvQ4CCKSoYoKo7wFGWtJ4pcRLqwBIwOHie9pOkRdtwFWouS4nGLmpST+HD/sLYHbtKxvB3ujsNflQeuYKIJjDJ+XwX4s/ZjNZNkkqM+JzpUKC4RhVHQPzRgx0e0/U5Sf7ZBjNyFGPTYsPsg+foQ5A5DKul4ZEULKwuQs9b6l1tQHJGRSbq0xfJafxhoBocH/agLjr2Ykz/koqT9Tb29vs0WHSJ0UikmtyDYLGgHGTij56gpnG2hnmKigwJSQ5j2xtVEyJsIJklHXILlu/6DUcaVG6UyPrg3psAxw4ND8pvVmfeiGxzZCW6drZaU6XhIVbgaveHRmvYkVZ/zywWVJGFMC5oB0estB//UCM1rC+DxkeM2NKJtU1oOtLRt8CUBySVGFx7RZQbyRVKMAI6E7cQewad8YVmlO441HvBf/B2gzwIiyBcBQytLMX5j+YaIQl7am9P+4emZaRs8rojmDDoRKoxjg45CJYhD0OGoJrWZ+iBeZyQM7AuE8AiS9HUtkwQuzhaTCczhrL4xoFnCLeYWtItmmzXLxSeo/0OE6/WWTOvVd3buraWiFSL28mkzcNb/GNzQmx44ctAqtLTr2tTpxjqMOeA8tjtIN6F1kVFeSEkyMqWoD/R2qkELmqwwoPCT/i1IJz4r3SKh6LBiox/vUli5VukI68Uso9KP7MvCgcMmDsKwPoBJptPK+F91G0AnQIJeoD1+MyGRwveVa2hzkEZVo6rNa6MBK7NpWjl1VgAAIABJREFULf07tSLr7uwNq5DkdT/fKLbFGbZSaLzXcL7T1JSONRYylvnJ+WzAovwPPVqMmAfRYPJSJA9PjNixwWPWIN1iW3ub1UjXWFUtxiIgYWhxI08yOEJb+SEkJ8xr3Y54/mABP1X/pN3UYzJTSixp5XsgKf32uvRLo5SdDCx1xifHbFC6nknN4pzAuFOWxNp6DVCt1XBQDwMwKM1dH3MRSZIM+jACghQIyfCb4yuQPviBha//6FEtmdptc88WDepgJXULaQL7ZZo7FZDP2rMTmeSqokETqBOcWU4iOeblU3lcngkDkiw7Ojt88tWs5ZOZbxDA2CQpKzCfMARi185as19OQeoHS12XAEUzrhekbwI9Lmocqnbw8EEZHXWonbwuutq7pV/UakaZHATrcBjuh8TTNAfSrwRugWZO1WBwn+igk5UguePkFGgolp+QLRmkluJZUaqr4ZFhmxqfsU1ilB1tHUKHDEcSJHyHltoVl/I08fxOwiv9Hh8fv3BMcsnkpqPtfgRGmJiZsv2H91tjc5O1d2mmz2im119YuolgsaYpMZiX+VfSD5jVSlpBP/eWmadjfvWz1EvkTH6mywq30m+xkPdBJepB2oJxg8iKKpYvYpbjo3ZYEgtLnl07d4ezXBjUQnpRk0FGuxzQryLJXEwp9tFlXv3gSNesGCRuVH19RyRJVrgBoEGH1TuTlziPPnJlxk+B8Lx07KUwSacs71BQrUimZAUgNU6/gsxOyPjW0d3l+m0fGq6zJP/KSDlxNJyXzq2uJEEOXVlc1LnlGoM40U8p+Mr+/fs9766de1znF1YqegH9pMYl+lj67pOA54z/rzAv7sZ+OpnEPOGHv7V+glkzYgIzjkw5vB9gTi1x9RXKCGs17uOZwtKdEIXDx4/b9PS008sGReGCvmCWtBsadhqD9i9AuqDL7QWbt6l5WSEPoFxfsq07dsj9IEMgHs37kRkhATLWA1JBZpj5VqAFk03QtAqE4Dgi391zln+tB2kYcpQ2AwNczg9DdEbsbDGU44Mj6HIqNIuyFFXQSY1ipOOCXISO2qFDh8UMM9bTs9k2dnRbRhFXeId9x2HxflGQoFvmA1ThDmqZjDAL8wXrO3LYGeY2nVbYrDNpqsXgXTrTB/9Qhu5aXKwH2XNz7zRMEjErdMurR+WG/6CrQHigjkznpuxg/36bkY9nr/R2DXL9qshIdQAYQjd9xFwY0gxQc70ufxp/7P5aWpi1Y0NHtWoZtJGRcXvVNddZT3evGFEY3xinUIHExeGy9JUMtUAnq3vF2K0QogNPZGQGwEEz1H6y5PpbzwtPC9do5Ir0yO1qFyjI4zklTATJHpVUXqswhFBiJeTyOY25PlvIFz14SWO20ftBHzgjKfjdnqw15+6+t+FcLLedmAAKgPSrIJEwszC7LVr/SL/1DRy2zb2brUES5KIy+gDlo1eYPQBnRJqDIRk0ASShggj8cG/l/wRv4TVnkqdKkUkqzzJTTPKHCkI5XqgGrY+JMIAgPBTV6IYwthcVbJY+5/LzdqTvqBt6MnJLampstk09m1xnhKK6in3i+gMeDITQV8qMQ4/+h8EXagv1LQ/A0JKkkQ4aJT2NMPcn1KFyGIn+wHMsl0v96HdZkjLjT09O2/jxEc1SS1Ks9+po0Tb1Se9rUkCCXFIeb6sP3tUwDa1bbs45/rICl/UrWt0auu777oUnd/eC6Ui3t1hRcDztP3zA5grz1tjaZK3tOqRM7jFM3NW+cgl9dlg5PuLVwe3w9ZEYELBucxBQ07ihrJj8Pf1c8Ek65HPZSQYP8rEtdi43a8eHBsXQJ+ViM2uNGktbt2y3Wm2A8PaIO/kyXO+R6B/lMjk4/a1BDrpYUhjHsEL6FVhi6B3/wyRPnngXc2kkDy8hVQ+/YaTRY4BnoRZBMSFOl0R132koaVNe+8v7DhyRRNnqAUx4XqPgboqmENrjhait6Pq9zDDxnatJ+5xJkvTDDWYMTGeOyCvSP4pYZ4Tww/2HXR/Us0kWLvUVIiUtz3z+69JMMbgCBFnQ0m5Kzrr9/X3WKovezPwM7FHO6grMsEHLCvUdnavrxYT0Ig5tSsS2FJ9aGdwQagKOOMAYMTA2V0HEh/BC/UWCZtYOhMNdDURJgDBMeY+qapjeos3NyS9U58aMeuzHOhmfeq2lscWPc2VgMiB9GbpcyaWJl7WtDkwNRiIJUzCZlG/l+NSYHZOrWWW20to62nQ2eKN0ffX+qvPAhPkEzgNEoFKoPIAnrHjIDbzCmA65wmQfxneYyPwxrzuTlI5OvovgCDWGmhQiKSmm6Zj09LX1WfcBHpexY4P0wp3tnVCT4/NST4AuQgrWDVNdmivaxMSYJu1J27FVk0G1/Dgrax0u0SLvUe19LIe/oGA4nTB05tA6ZztumK1BPhLWolwNnDA1c49MjNrR4WPWKqV5i3QoLA/8oCgpbH2WjsR+5n25aN5AaKYfzOZQD8u8OTHHI32HNcBbrV6MaGZqzl0isnVZLcd73ECSkeKd2dElAMjFJ44AEGATmR+E6cTGYCJH/M7smsrvAHHKTiQE2qQ/rKMozfGdQ3G+VKgIhKfgq/V19WKMxBeUPghfOZ/pGYxe2mWVgjQcxikwgVEyFpe0T39ielJuXujJpmQEqbLGliZrbGj0jQpV+u2oFWgZ54swSfSzjpLAAF229EzkC5Irqhr+Alb1TOOE32zxY5IkLmZRS83xkQltZpBfo9zJ3ICpjQxT85M6rEvbLTfvEo60eUFjCn9D3rvUBYswQsMQA2IueXJkin5wzDNBOTgps62lw21JqBZglLgrwSSdb/hnRZIOgD87/58zw83KANQw8IG3ZIPyVePTvWWTtovVut4R5khisFw2yYlGxIPVXtfAK4VMwaHv2FFH5Z7NV3jfcXPCjQhDT05E0tykJXnvJi33MpL18DcTk1J5BNiIxOCDIvxLBkYgxkCgGlx6B3ekMOCSNujXtFwZjstdid0QTfUNkpKa5BTfqWMVpG+skL7RERAWLf5dKPEtabThMkxhX3IYd76q1h97lt3XEhUEd8Q8p3OTNqwo3pNa6hZlMCFfnTwXmrWpoElGnwrpyxaEZCa4yCj/f/beA0DL6sr/P0zvhaHOMHSkCKKIBUvsvaRoek82cWM2ZZNs2m7qL5tseo+aoon6T9RYYjTGjl0BRRARQTrDDDAwML3P/L+fc59n5p2CwAgRZJ7h5X2fdsu595x7+nVIYnQAjKyaAijiZAiNbFc58oqQZbqusd4NFvXi5NOUET9L4Xw4gA9VpIq7Kend9ZvXW6N0kaWlY1UehIGlDqlDjttIBtHIvVGGyIlk9AF+LOgV2ko4V/N1hBZyiGSKYM4iEkhrTDsOzDw9cOK2VjoMGujbmCRrZLlula6uZOwYt/KifyG8zyUNJpj+GOxDfVVkorJAIAJ7hAL0EkThtyOMfPaEENvLd9hUKadd/IXjJmmA3tmxY4fvLe3hl50tjrRwLzmEXIqwpUg0T5PlH+RIwc1Dy22bCGKbEni0yeEep3tSY+HbRUZ1F1+ArOYRnBB7zeA/5871uhbyCGKQAYHRY6n9qEjcbSn0he83JqGECMLpR8tDoHDR4hYWh8BhyiCnwYtVRgQ5IJZXKdChXpxmBxRWC15MDB1wCTBzyUBqD5/rkLkonwCLZJ50i3kF+mTn+SZpEL+AC2wZ0iS8WW2ZudmWN1Qhn07JqScshHE9hzrOgBeRti3uktMI3IDAG+CEMzoLFblCx44e56og8ZJAUzChBArpen2//nCGT/+FWfIaig5K8RDt4A7fiHRCcojkmg1rLTlDDq5yt2iHw9JfLIkcsJ69hr7s/1fjlQ4wi1MTQaqpqlbG8yqbNEH+lEQcCCAeWy4xA189oiFYVNplaW6VQai+oc7jySGEuOUQv+4iecRFpCjKJ1UEFMf8DHHp2SKomVLqpynxAPdwpwCZQEIIpIvlPup895pd8ekBmnT7H74DLTFiV/x1ZyUjmHSX55ccg8MHtRFgiRQi/ismgq5ickV8uNZjbvtqGRYi8MOz6TDeKs2ZA/70KkS7VWNP8omN5estMy/bfTpb5F4WiGEoo7uFh/4v4JlIJLst5N19QwpLFdHcXrldORVanFCS8Z4M9OydxGKPDcAHZz8f+5WTdIrr3Aj6NG0i31anJBBlTiCHDRsmkbHnhAs9OgC92s9A2t/FeQikgIHBZJu2Wp00ToRSGVqCwl4WVddRCXUisyAI5FwKiNq9usRo241kIFw0BnGbCbtjtfWJqD9324g4Ji+g+8Ge3TwshiUmfhGBjCGQCBeucS54+GXwUBgdHonf17Xe7/SAJi8H+3Hi5d4gxsUHvSjfK9evtIJhhZabn+9qKRZDV70cJkdvcLp0AxiFO3UKiyUzz6TSyTLmaEszObS70SZSd+xvEO23iBuQk0/gIrWPRkejrS1fI8NEhrtUwD5jjWKq4JfFcLN+4vZzWB3OteErRnqpZGusqdeOgju1Mo6VPoooFnEKmiFJ6GodNjF8grjmSMofE0bPwdF00Tzg2gOevAsBCLqxGM49HkkgAIfZSARw9MZGB4IDNrrfEypwlc4IxMDUd/xKwqW+Px0/4od73nauXiW2yR2JxByrJWIPV+hkuvSerrfXQserzJlkLLpvwKP3MNDFxJ4yg1EjwX0jWRGXThq4yaVTtPe6fDBELENs+v4HDgbW/SJu07R4NzuI5Stlq8zEDRe5qCAFs0TBgLJCZEGEDwQShfdhc0RirfuJasJDDVPakz211DZteTBt4lTLFKF0yx7b2yKeMTkkcnOQ4y8gVCCQrlTU4RCM4BjzON1YHKFgFyaD5KBkFxXQL7SWiYQ0vHNYjEwPapcIk+4bMZfoV/wkzGQHfnT05RMT73bT3PhqKD2xciXHba13HWQhfprZacomhX8r0oHqi/b0IbxyD2xrz4oPgTOgEEMicc7Fv/nuJFOQ5ijGKtRR6PZ3ypm+VUEPE4onWpqc0YncSUyHuL+6PiBxO+4UjY874plXZIzhb+261ZaSI2NDUb4jLxY9OhecpwOB9I7r7YMpDdX+Aupuy0lQMGOQicVqsrc0yeK8pbzCZk+bqbRVHb4yJsmC5wgS8d1A22mhA12jELB2N9UFziVxDYIwIiqGt7sRlHEIdYSiuknxbop+I11OpFNdMnOiOA24Y5jFHe8Jr3A1saD+ABRcVQK+6P9o+BCk3bgpMfuVDavc5SdXhpwUkjlL7MZf1n1ohUOucaGNoZD+KjkkrwE5Pr27FZ/zzZx0bxH9QWM8RFHrxS5t+Ywh9Aht/4zbWpr+YNmRyPzoXegAIbTPnGSkHfNmxAsrViiZFLS1QbnVyil3ePFoGeIOfUfXAcJ0r15LRKskrRaNcgWp3LLFZh4xw0O1UodkCEEYcyytGF7iYnnTMUZ/h4+eaq+AepA+RC4iZwvwO/WFjzBD+Q8r5h8vBtx8kuR/OWLkKI+wwQiBeH64bma2N8OIXr9JUVK1u2rd+j1h9ERLF86wmhC8FHSUgndYkxxjnGbtTeEJz8BJ7jOWUUnXS1GNOLfuUGTALmWqHlVc7KrmwePVIZA4WHASZFbPV3D/uk0bApftHITIoCvsE0lqXO6+Dvert2fw7gGEgBPH6CM09XwDkSN0ubaaYHwxbpK4IvgOIzUMju+rjQg0Jk25HsgW1iIXuIpt2vZZfxBMd7/ukgxCKWFperUS+79HVq8BEcnuCoNLT7Oyk2xWirNCDXQnSO3JPAePvYUAmU7IvFMwtEDuPvWegZ2ImzYtPu5u4lr/xGMQgfYWtgfHcxjkQuBESMiiMdX47qqr0r5M1TZsxFAXI0H6mMEIHg0HR+sPxlZ4ouWIeRg5YqTtVAYutlXBQAzT5qolRLLoGCjG4Ha3z0TS63SkpQHoWtqUJn+tCKSSISjrcKtE7+AD1tW+wR+9IBB593Rd9QQTMm4Bt1Lt9Fe+fYvUFrUumXmCYT3ZPcjuIzAI00MIAj3GTmNNDoNW+T6ulv6+ZEyxIzY6ew/R1R/IH0ejHULd/Jc2lYCHOGgjXRm2IJRs1+FZ0iO8iWnUa8EWIqL2WSfpXI2cxUFgOJ3NlWVyXWiUHnKk1kL8/FI8E47nHRw8+kDACZ5AiNGKpYaPX9PH/Rj1IWa1akeVHTH+CPlUysWBVFGRQ3hYnmJzy2sZ/j5NG7xwoCAQMTRYpxGp4Ro3lOMsnmlZ+rhKBXwZFLEHPALJQqidlVVu+ByrxDnd6dUCH9jTg2PfqhkAJyneUUpnBryprdEqKsttuKJpPBpBOOviQmzJ3be2HBZPQ+R6HzGxhHDyyVJMMFviomfB9YcInOCYE97sr4zeZQ6eH1wQwDrrIrRWwh3V261J25Tk5OeJNrJ3+56ciA6uvhyUrRElK5BHTdWuHdq5sdo5ysCCvDb7yIAMN+jIJAsotrTFXln3isSFMW6lQ0RIQWMqk+yB8Fc6KAdmAI3qj/eLiaR/O6HstKHDh/rGTg2KzAmx1ImkkVL6K2kADRp85V8AAWEHaihZrZuUjb9cjIUbODWERER1kDvSwxQHj4FCwPOiijCivtigjFvuPeDqwIA3ZGEayFGolIb7PDIxQu+CWmtVzMxlsyH9I+ZYylT8/nqmbB9I0w6/d3pwh4InCSxGK0lvWXmZB/oPHocwBITAySmgaZsnz83Jy7GUdDLU47uKe1dCooZDuJuvZ9OdKEoVmKtELplKQUjGKwgn3GRfw+fet5S93PsQSVc56r/wwbIqCu1IKros8zpKM8TsdWXrbUypkubqz/35oJR4w0s8VBTq3rfiMHsy5hbpdswPMgh8unlDLTQSw7KUAaamodq5j3aFrRHX64PujrVv0CNehXf3fRB2O25qV9N6tZ28qa3S49cqNdouJWEert0MGXDf3Ev6e482RBk9eAwYAkPkeJ8k74BmOUkOHTXcttZUWr3CPFsUxgiyDJTPwHDTh0gGOT5uK8QypsYhezbnZfLtYpNz8h4mkaBVH0bddxCEXBKNPnjsFgKJ6BATykSI+QKlCzgYT5gyyZavWW6NbQ2u92VXybClwm6Lf2PfOMhoSSKB7NO06CYZ5zuEE+s3b7ARo0dJDwnaRcY3jXPQSPZ5+409jvu5dwT9sS1fh4xgKcqElTcs31aXr/XFCH1wHy+6vax/jNSJ/RDJxLeDU6sTShBXJLCpVVm1d+1UZvECp6f4JL1x2Zq9hOR+fgzPAA/1jLhztnioV1A/3gTEwfsujYPr0H6G+sCL6zMUiRfEIQ5J7pQHSL2nvMvJyYqM2NHyKCdzLK+Dxs6Bw583yZLk7nJi1Ij/y9ceOSTCaBZT4RKuG3L2/SgrK9szkQzyPJwNH23gtW2LZ2VOSQ1ZkeP46x7zYt/bMvhGAgQYUAglGU/S5Hs6ctQoKaPX+1qE90CsDhkE2kEMAaeB4iKEM4jUazfIyDm2xA00SFuBs4gI5SCX8ZoHMuRLDZkH8J/E2DlM21OzGwA4gy9qkIr3rap+DDeBEMbFBDWJKhaVbpHLArrIHTU7fN8N112Kaqe4qB2OeMj3rRmDT/eGgDvJehIMtt1s9U2ghigrDBmxGeg3dGrBRLqxu9+9Afa6nicK3EFZFa5IEpB+jIzmjc3iIsVJ5mgcwwLYnXXJAwYSOYzXtS+HbuUhizkO+RhwWIKSLV+b71VLB9wsuuUB3b447dvRx3ATtCQaMRE/98vTd5xRI1lIWrmzUgirnctkPRJ19MWQuOP4gKjGDtH71pTBpxMhgGLD9y8RQNFLdkpcwyVoe9V2wRyLKIM9MPFhENL7GwKMRdDbxyX76AhZUUURWLFJARcFw9kdM5BP9/7QJzAhvAtB3d/tOrzKg5PED9UjlfA7FTyJYmPTwQrtgOnbKg8Axv0YbsIgdlFcnca0FxGhbOsm5Ygs8mvx9XgonDgeXuPyL+htUOmDRrnSsbAqNshCyg6Ub9QECMwzPokzsffvfwHg97oK5nzvee+GGjWayBqkr501u2To1CZWWvjYzzuIhrxIz+jtwLicvW7k4fCgqzZiqhQ8bkifhoF52/ZtUl21RLNq34DRj+EmTM7eJJBp29bWqo2m5K6Q1h1uGDcpjkXu0c59a8vg0wkQCNE13ajnREIrYX5hgTagEjcJIRmoT8NBDukgw/QkO8zK+K/33Hz9uxNjQWiJm9uck6HF2s+7tsY3cUNKa4PTkQqF7Tm6nyaNWnB8fv37cui2wGlPQvP5LV5eukiF9Ypm1TfW6Eq31Lu3Pd2N4abnoAcBf4htrNgoA8LIveJgeq+se9ugweciCCQMuBNIhlcIVigiWeki9+sHKW+LWkRgKp9W/eYT8hXtnoRBMtiOILwX3oE0tIlgwF0lGqN4ludaJK42u8iq9/RpjT5hF06RIL3n+wFFMOoNlX293vv9vT8Piqr4+TjPJ4Ryq5KVDC2U9CX5D+6SXQBDApi4dQGiu4fc3rdi8MkECGihcnWg5swI+aWWad/ygRwYbvrkNHP804AydF6JpjaKz8qqSpsyQwkXyJjdq7ZY8ezfujmoiB7IcCS8I+RiLyDA2cW3y5jDpmodCgGtatppQzO1WXuPo/eoxDdfO0X1kp0YtVuN0uKtrdpij764yFZuWGsNzS3ilDJt9uTpNm/abJuYr728mSPtcmvRKu4kTFxwrfw8X9i6zhatWGarFTZW09Bgw5Q/87gjZtqc8dNtvPZUTiPBsKySkNLrH7rL7n1pkSUrMiWlOexv0iZXjkxtsTt1VKmdM/cUmzxybER0mJNDyEttya0SXWXZapN40+pdH6LNoqTjjdSGpHVs0geONd3/338H3AyuWex4iNtPXZN2uWxtsJL8bFWoLTkcgmF74VAr9YcRHkyg/NrGgQUpPhhTIBu7BGUoKKNRCa0bmxu0lxQb48Vb8/JGrE+Oop56TQgMNz2IZNf9iMrxxa59WOeysjM8nXwrVlcpRBOPHui5P2fda4PbIf92rMagI3BaRK8NHSkDjvJN5mQWaBshyEJ89Eck989gEG6Kj2ajon6uuuN6++O9t9l27cmCdwPeuh3ah+cv9//NxuYNtc9d9kF7+5susPTOTI8MapJaoKa91n7ztz/Ynx/6p6y8yoKja51SsEPYbr7vTptQMMqufPsH7JKTz7QMdRLD1OKNL9tdyx7TBlnioFvFfUkqbYPASeWTlp6sdtxg37riv+yS4063LN3T2uGilVM98gcoGwyhLO1J7EAo3leE03WBup8CqPS9X0ikgz2CM+sBENF/uJ3U1FdLRZIf3e0en+5fwU15/4xS10Q4jH8kwljLc0Q4MeBkZGdpL3oRydQc5y5dJQJOueGZ97rViIkAxHDTh5P0Bxg1vee8gyZ0dY30KhlZvh8HbimDx+sEAY1Jbnaura1caxOLJ4dB+hc0JUnUukGK7+/f9Fu77p7b3LNh7pSZdubsk61k2HCrqNhif3t2vq3etMb+329/Zq3N7fb+cy/XY9pjvKPBvvWnX9lfn7zH3cVOmj7HzjnqBBs1dJit2LLRbnr4Hltbu83+57qfWo0o4XtOvoB13rU82trJ8rUv+ff+/QtWkJSpBbrDtijc7E+P3mErN663//3Dz23uuGk2Pb/YuceGIS3WpBkN0U6RN0aa0sslibN07lSUywmYcCIVOwkn/c/+fYMoCwWN5YioHUQevNlRVWVFI2TVHqSC+wbT/fR04iKYk5PjqqqivCINh+YDaygeOl0Dxxj2HajS0tL+pgkPQ4X1glPiTtuilF0lE8YoHC7VdU89NyndTz0aLOZVIdAlPog7amlp8dUw0ZrX/XLfgX7Vgvd4E/NDu63ausFufPgua8gaYucec5J97X1X2tTcYomyGCQ6bd6pp9g3r/mhvfTKCvvl3260N51wupXmj7Sla8QRLnzUGsX0vlsc5lcuu8LGZeQoEYrZ2ZKBj593sn3519+zV0Rgr77rRjv32JNtREZ22GdaxBbx+cJjT7dcz+yd7OLqSBGeK3/8TauUMn7x6hdtwomjrb6z2f6x7Bm7a/59trlss9ymUp0QX3DSaXbh3FNtdLYCIKIknkFCggfeHwd4onIiOsmYQDM5bWxsVOiuwhBVU3x7f9Q4WMbeQQAmD/0vG+9lSiW0WbuSkggDOubuQj4D4sHrH2/6TZXmZDFiU6mkRWGI6JRyssSm6ny/iCh718fBp/pAQPq1lDTLUGxqbb0yl0MoHf0SUZDBTvz0KWSfL1DLgwsft6qOJqkZU+yjF79DBHKUZbapPdoWN136tqOGj7cPXnS51SmRw9rWXfb4yufF2bXZA089anUKRMhLz7RPX/o+Gy0Cmaq1WbcsV1rBmcPH2eWnnasrncrIXmEvvPxiMOSoC0zwFJU9pB0yQ87usBF9yahiN+K0i1vcqfm5S4Xd+Mx99rlffseWvrJcus48y5Ue6pVtm+zrv/2p/f6eW6xW4WkOLeFFszjIZn3vP8IVw5syVarwp1FbBadorNLTlCWrHw5lnwdh8IV9hoAzFvrDWJaqrFpkLWuUfQUDIvklQjRhd7H92VIInOlH4AgD7lKEiqtvrLOMrHSp0qU8jzjJ/mnuPvdh8IXdQCAsVH1vBnKoLCfaz7xia4UVjisI+mEX9yL9VjQ4XHKV4X44WqWPXL15g7izJBtbNNKmFhRbpgwz7P7XIUKFjSZX/80YOc5j+stb6uxF7SF94bwzbf3WMrWg02YMK7EpmUMtuyPFWknwIAMMOteh2j73xJKpNiIly6qUtaVsw0brOGqu9Jm6qYksGmwNSUpXpRlM5NcuGYDuWrbA2jJSLLtpiJWOGK2opDabv/ApaxFxuvDc8+zzb/6AE+6nli+16++42Wrqam2H9OoZudKrC3Egll3bjr5m+CQAOZK8cCQn+SvhuyDpfhqG19zSw66AGPCabjiZ5+RlSZ9faWNH5Xs2eIyjAUl8afP12sn4AAAgAElEQVRP77FqblZCmUTAMZzhw8O8iNGmwdhDgkKhwIND/vpMNRTNbEqE0Yxwq3Wb1opo0BaUz+hY+O5f+fxaWszEaZUCp5kNkVT+sMx8GVdEsGDJRCBb9MXEStF5VnKa5UviqGiutrr6Gok5LVYvazgp3or1XjrUSXogiBltTpbuMF3GljxxxjnaYH6X5ponGWaVh0Cy8uv9a265zobUyXik+iq0eda9Sx+z1Po2O23yHDu+ZIplaRqju8TA9NDiZ2x4VoGdNPNomztjpp0yY7ZlSPSGB2Wyp4jYpmmze1dVeI6y/XREBNKxRr/h9IcpYz+WVHT5g9uZ7Cc4D7AYxiVbGf9rtAUtIne6GD53w+Hj3ERYznoTygZ5YfTiJHk4ceIEZ9i8whxdDWE/g4M9wFHax9cYrMQDHQr73EAMk/1b2jm2zxSxCetgwrjtblncxzbwOOOeKiKTmZZtrS3tih+vlQFFekrpE1u9brnSyBBCPEOj9Ic7d+ywTBHTMdl5IpoSkOUV0SG3ix3irBoUP5sm0ThZXB46SXaJbNX7OxtbbUdLk7WICKYr7NV1j+ovFnVFZdqNt9xoOamZ1igiyIQeqnpPnDXPvvbxzzrRZg/Rj170dlu+YbXcizbb/93yOxvy5zYrSS+0C44+yT50wWU2c/wUr1PNDBGd+309Af4hXgicaxIHkqwtODz7eFjNBgD9wVf2JwRSNJmatB8XwwEeYVtJpHb91VVSUtKbSCY+Bup1eHqnYcVDg9nchZVAdfsrsPe1mConvsGCG8v+3sBe5wPB771vUe8W9j2nfo49Ac8Zh/jQw4nt3lN74rITi0gord+fjAb7cBMP7FyjRNaW1hbpKOUjKE4PVUiPY08d6LeW/i9ilZ42aaolL3zQNivj89KyNRIlC3wu+PIp3WR92hB7es2L1tLULE1jhx03ZbpliHOcOG683b/yaXu5bJ0t277BZhZPlcjdYany5+lQH+r07JNrllmVYpyHpKXY9Gkz5UROrISgA7Mqzvk/P32lykKsT7LczBybPnq8jR42ynLSc0Q4zTJFjI8fN9X++rWf2OOrltiTLy229RUbZQFfZzdIV7lYov+v/ut/bYpEfqDULg4SzvxA+GkAdhawNk/2Ggw28VAkzgvGPnEe9B6u/uZI/D7vuhChY0/4klhujymrE2ekonYklt27LVFVu/1CbeLt2IsX43ritnOeeK2/SmKa0R/M9vQu5cXNSkrVtjPSTTvPyEVUOv5j96UQcdODk+RRdD8d7IaIf5m+m0nXlZalYkUg4zL760nCNXzW8LJoVhmZOAhLrGqW+MTAZqj8JkAKl4Gjpr6bpBtAvEoXh4J+q0UNwZcNJEwkqKE7ocsxwJJYEXSCozGq+RRxMcniQhwG+i8GcOxzGF/jvuwBkX4qgAlpkCAxjqTI+pUMYcJfAGBG7aQsnJPpD2oN4a+16sO7eC7iZkI9lE87ec65mOgYEg2O9y0qNzHlXNy37jfYPpOH4bGE2vQrXS4vcq/JGpKjSsilJ2gJBp4WSs/CpXVhQHdBA/qF6uWcOSfatTdfbzVaif9w118tWzGx00dO1ARSjZpFT2xebtc/eqeakmoT8kbYMdPnuqHl0mNOsb8/fLftSK6yn9x2nf3Pez9lU3KHOVFvUXuffnmJLNL/kPN5q80aM0PEbprgJg5M8wI4AueLT7vAhnVmyJIug4+gic8jEx3rJO5JhMxu2bFVztuNdu7xp9q5J55uVQ277OXKzfbxr33eXipbb69UlctdqVj+m1r6BR8XvQH/gCDS/VLCsIJ63q72TrwPwBtitbWYqRK8ANLlu8mcaBYX6xm0mDt6vgPVg+ZYMmoGtS9NPfNdALSI4BAfz6E0IVUd/dW1PE0Y5mGDymLexh6zcXvoF/fjec91nxJReal6CeMVbcvQzTSdN6os8DZN57xPW/nmoA4O5rLfi855L11NBQcavELoRHiavvkR1cl7KcLxFElCyrWvtuhZRF95LrQLUVHp0X8irYAJdaWrn6nCl2YhEPMlHjNIXZoKRoXTpHqpMZEzDGMR2ksbk0FUSSNtokXEcSPNYOUOTVTHnesJpYRGh//7Gm4iSIJkIJtnwVZK9LAi4ogblJ0x4UosLPG3A9YBTKdD1QxIuga/RREaybL6NUhPBd7zbJvKRd/pKzsDpIseIaHvxIFyIh0B3uuIDvb6TpYBgFZ3tvE73KU7/IqGqgeR703wqY/Jx6s8j4+esM8VvhDJJJBWN1oE5DY1ENGXRQTiFRNBh4ue8Ymk73hC8h5EMkwdbkat5xkmVHTOVR8riknsINe9J/wI36mKvsFSx0RkYeiEyqoiXyXDk/7Waz9UvgZxXP5Q+8Tb3mM/+8t1tvDlZfalX37P5snAMq5ohFWs22iPrlpkGyrKLU/Oup9+3ycsPyNflu8OmzNmsn3krLfaL+663h5evti2/vr/2SnTj7b83FzbsHObPfbcM1a5fbsT1i++9SOWPyTdqtUHCGBWZ6qltWj3SM2MLE3qNHGfiK7ungac9AXHWS5R/hs//YGtKFtr7/vYR+3EOcf5GFS7fjPZspPTLUdWZiJsMsBuDTKQ2T9ScDRgEazBm2ZZ3DPSWczisMlA1NGHglvqkh8pQn50peh1IYZDRCzoGgkysMgGZ+fwbEzwWIi9C5o2zkiA315WeI7FOvGIwOSX4rnFb3e+j57lNx/RKMe3eEHv0TOfStKwRhfZrC4um7aB55w7LjJGMBnqDFoNrtM8qkvSg53ot8XVEZY6ROPT2hrwq6VFuSHwbRXx8rhrvdjBvlnQkagcmuGEP2on7eY3cAWe3Oc2zFZ8cM5FDH8ZmRlyoWu2TPl9d00ifzC86d1MOPoYbrwyb0BYERukSM9UoV2e6+q8Z8zuXVKvggP4ALYeFFDatCIqPsNq5Ms2TATSIJAo/bUslFVW2l1PP2x50mG9+8zz3JeNwU9zlq+bs/OO9nNozbZO6RpatDqk+coUzPs86t2O2uqcWtxufTMZOALH2j1p4kdYeZio7UJ0ODQmrrz3VF6SPfDsk7bslZft/DPOtUna45eVl3Kcg44mGgPpTsscKpSx7G6Dk/PuSav73rzddTIqJvErKzPLjRwd+ZpMcCBUcKAOLTx5WoXfJxefZhle/njXrbZu40Z7ef06S9XES9NEz2xosemjxtgV779CIYNvEkGCOzLLT860j174DkuSNfp3d95qy1evsRdfWe16ypZUGVGkxzy6dIp99fIP25mTj9VbgVtIbe6wjAa5nkncTtMggiZsr6uVSQQiGiXBGvfJAsVGzzvzNHvm+lX2/d//2lJUdoqeq/eFOMneecmbbeboiZaFRR4qw+tOdeLR3r+Aq1WURm5erhcKOZYTk7ihQPxaRQR2iUxiO8oUnmFvb0Y8V3s6NIdzUqTDhbtSvyFIfAJOhvkTN5mpwvVUffgdE0mikjjn4wxGwtyK55ejpT7QkViUBBIQNJ6hTt51YhQd8PA8E19C8QaR4znwmG8WrNWbNthDj8+32VKbnKLFioCCgAZB4oOY+hirARBCSGCLKkYigWD+4+H7bc2Gdfb+d79PBr2wJ3mr3omHnLbRV9ofOMTQD4cFOEADdY++8I63Sx3lN4Q9R8EY9cKbgsyi7s50d7PPr34MN3qPXlCBiA1Oy+zaFw6RPgjkXhxhpdfqQOf0/AJxHh/73y9L/Ei3L37g4/aO0853QAG8Sm10dfO9d1mp9pJ4y1nnWYZegjsDCPrnB7/j/scEmHu0tFoi+zPPL7Yxw4fbzNIJjrAhZlc39RA4wWSIW+7Ai95lgjiHlwDImKjCPUIQEftWbVpnq0UQLjrldPnntVv5jm22fONaO1762nGUHzUUQgk3Sr9w5kc8onzak+iX5wSSuvUf377oBbDza6+O9AxxXNuqnAjwLshwYA4VLMRul/4zRZPsI+dcbuedeIa9sO5lWdg3WlVNteWJK5w3fprNOmKG5YiDBKGcM9FfqojgCLjL899v7zr1Elu05Dml3KuwXQoRS83OttmzZtkJErFHSnhKayN3proj8Rlus0AW71wZjVKJ3Zbu1eGmBZeuOrj0g2+W9MvPfbOdMHeePbzwCbnfVLn4Snq5U0862SYMLZaxR5IGlIkM1QBcADtQIGuoF3ORo7BM/bn0pXqTkHDUh2XbN9pnf/4dW6schxnC3qSWIFajvx2anGFf+NRn7dTjTpHqSFt1qIFgH+0E2Wm3N51z/YAD9fmqbiVyTroSFuVwy99hrsVSknOywDkCAO826zd4EeMsZTOfgS/4AZfGiSJE/YAoMee4h8jvz+m/TTsq7Ma7blf5KXbqscf7syRA4QlIC8yRJzSBm5Rh6+lVL1itLMin4Pala+u3bba15RvFkcrtKxk1n9RKgkWM08ABvIUg0nwWBV8Mot/UR9u8z1TL9aidzBzy4uLkH7ZAiToTHuv3/34NN04jo8LbNbAhxlHXIu7Sz/strvuii0R6F2LXKBbnvgWPWZKsnM0q/JHnFtjFp55tWeJAEGkpq12zAT0NegYgic4I4oSDMTIBOgoIVsg0E0QUWCc6vW7XFvvhn6+2d5//Zps2doLPhjpZUVmpcDHBJw+dC1ZUrKVZQngyy0DIslQCQjqD2AiwGUj9gdzpQs4GOUF36Pm/PnGfzX/icY8qyZXodvqZZ9m8M86yolQ5n2hmtGr2NWtkkjXDlNpAfZaHv5CSGcdgit+TDoZSQUw9L04hFbFC7ciQGIlGhUHelyNFCEfwPbrHaF0DWgfkcP2ZtpHIVSsJt8vPH2XTjx5lnUcHXRCVQhiZI2LgXMzytjBTNcYkroDA5ucOtyknnefYiXQC3DHecHSImLaLAwRGqXr+0lPP1edsF/WTEUtlPGrHqi6YAu+4ePqfLfEsVYR1RlGxzbjgHboVFnRUJLQjFichCu3iXpln1JOhe/sKd694t0coDZVSjjxCqBxCQr1DRBDEPyrPhfRxGrdspU+79JSznDCGAewUpzvEJpSU6jnZAlQHxCCor4f4HMoSDkDEKK8FZkKwbRIxYXzQ5wFJdJO8A2GAQWBhcZjqAz5xLvuuNSlAJDAJQe9JY2l9GmOnT63aCqcL4QQv0lUm5TdwrjFBqhoi/MK2gPENBgrcAq+a02Qg4WG9j9eDtrBTF+WpoHGDQGdoLKkb/faNd9/mdRw78yjLkqvhW9/+DnflypNRDo8OFos2cFa9gXv1rE9ihJwh0e9mwaHRy5c6T8/BndJXVCvoMoEX04U69JjTs1aJ9fzem8HvY7ihHN/pUP/QK0Ak2WCn62DEvWRq2P3h9eu9NiFCRd1OWyCn3hnTp0sMSrOVK9fYasXszpaF0o0cKo5BQfH79PML7dEHHrI2JTA4/8xz7OSZc6yztU3ZZtbYPx+53zZJ55WtQPUTjplrp807xTatX28/uPF3trF6u932wD3WvGWHnXn2OfarW2+wSSVjrTS30J59ebl9/sOfsG3iWB9+/BFbs3S5pRfm2ex5x9nFc093nWu9BuOJFxfb/Kces11VO2100XC7/OK32KiSYvvxNT+1h5YuUBabJvv09/7H/kvi5LMvvWALxBF97C3vsmMnz7CKxl32wIIn7JWly6y6usaKj5xiZ518us0cNdY6pf+46qYbbH3VNnvvW95p8x+837YqJ+TRM2bZ2869xFIlhu55PesLa8aFyRQOQRzM2cuB71vaHq5oUnKECeeriQ5mXKiWs3jx9CnCXT0GsrrTrs6ZRj5rKAQuQLM6XYNPUY7MWB71na5+ZEYLB2iJmM2c5I94bBZQLydU74iD5gsDYMAEboISoR7O/GDhVkPCQsiF/QesIH2p8KjvrseKksBQJ20mQojDiTOKRKHyp9/+fhveqSz/IjD1ohqQ9HQhwmqlV/vBtVfbpHHj7cQjZ9v9Dz5glZ1Ndtlp59mbjjrWkaZOHOg9wolly5bKh7XVJk+fZheedYGVZOXKw6DFHn3uKXt00TPKtlRvE0rH2qVnX2BHFI+zyuod9oUff9dOOP54GycPgaceedQ6M9PsrPPPtXlT52gsOmydAgBue+x+q1q53lKyMmz6UTPtknlnWIFUYn+S0W7B4mftqx/9D5s0ssSqm2rtcz/6th15xFT7xOXv83Fvwuir/sCU1EhiuEdteX7hQmuqluQ1a7pdcPo5Nia9wH78+1/aUy8tVWaedPvBT35oH37PB+wfT823l15+2b772a/YUEkolfV19pDUW4ueXagCO2ysYqnPP/1sm6a+NEi6+favfmSZ+Tl20fkX2a233yY9fbOdMe9UO+f4U6xQqj1E8phQAv800aC66ganT3tzYLjp82TXJNeAeUILidtx/rtoDuyxbJw13VKlzzIRuHVbN9uxU46yM489SVmaq22BiAzsczA4BGvslooKe+CB+5Xmfqg9+cKz9pMbfmvLN61XpEStfeNn37NFq1608TOnWYoA8vPf/sYefPRhy1b42Uht0YlOcnjJaJsybZpWlQ5bKpePx5cusjv+fqdVK+lptRybr/nzH+1WifVTj55lu+Sg/OPrrrF7Fz0ibsbssRcWObDXbCmzUePG2OIXltg3vvstq6zcYWOnTLRO0itpssw+fq7C3XJt4+ZNtmzVCtcJtmtF/r38+H7xp985B1k6tlQE/UH75i+/b2sqNvsqt0ZW1kWrl9sfRbx3KUs1RP9aEc6nFi9wQuJIr8NFmAj59wTkQJTihzEI7OmNgd9nkvhEoQ59EIlxo2nVB6+FJn26dEbRY06QNDv5JKaxch2R3m8FiVQoRaLTRdzkQ3IIJnWKiIUbOrDcq3Z4beDEPSY+H3RTXUlcKChqKPOuXRwqFlIkkKj1DlvqyqKuvYQz3d6XA0kEN63YG6F7dEMpwIV+10v/uE3RbBWNtVbRWmc7RczY3a9TCx/O+ys3r7MHnn7Mbr3zdqsVx7VgxVL74R+vclwiwdF1/7jJfnHD7zR/O6xg2FC7+a477GfX/krW23Z7ZMHj9qvrfudp7cbPmmZ/Uzz7VTf+wVVbLEgrFCd/y/132Xwt7Pl6d8HyJfadq39mr+zcbDvr6u1n4IbKGD/9CMsZUWTX3XqT/X+33SwvlFZbJ3F68ZoVTvzoa6Ms+UvXr7KXN68PXiAqH5Gc+QAM7nzgn/arG/5greIux6m8m+77u119y/XiVJts/LQpVtfRYtlD82zWUUdamoyRays22HKpciB2NU31ds1tf7RfXne1NsRLc1y/94n59vWffd9WC7dqk9tsWfk6e0R49EfhU7MUzouk2vvJn66xF9XHsEt9RCQd/JpJ0KUujNvzyPY13IRymKn+NuwuZnJOXaTjcizbvUr5YXtH5dMTAB5Y+KSITIqdd8qpSl81xIYPG2b3P/O4vfPsi8USi5V2BkAilWbPlz75eYVAKnKiIMtu+OtN9tzKpXbizGOtYkelHT/tJDtLOstCrWbnnHqGjSkospKhI+2Eo46xh5YstOO0wp5+4qn20pYNEkU6rLxyq1335e9Z8bgJ1qLJeMZ559npF19gp02da2OVFOGZX6+2Z5Xb8IxjT7S/PfxPaxbHd+XH/t2mj5lkL0ydbS8tXWLVW7fZaXNPsrsee9A6tXUCeq8RwvBOcT110pjXSumxZN1Ku/exh22GdGtfuvLzlqtVMWPcKPvtjdfZQ08/au+66K3q4xCt6HV2/lnn2hlz5tkdTz9kv736KluiAT3jxFNcub2vRzLW9mg19PER4sSczL6Wtafnw2wIT7kCXD/jD9OCg3NEKCZiEHID1+aKBDUwNkDwDDowyoTguXWST3RARCBmHE4cIbT6DYScn+26F57xG/RfXwnF6DwsHKAEbY6nL/U5YaUBXuD+PZyvFefNNsD0G/HQ+6o6navU7zapl7bLM+Ej3/yC0t1pARZBx1Vuckah/ei/vy2RtEO402q5mmcfev8HrWRUqdX/6Wf2+FNPaMEtt6z8fPvL3++wCdMm2yf//UorTM+1Uonp5ZvLrF7G1jGl4+3K//i0jZw8wQrzR9jKdWts+YpVVi5pZnjRMFnfW224Urh99P0ftfFFo6wtP8tuvO9vtmDpYnvT1GNsvRLU5pcMs3POPldqgyI75qR5Vkpck8TkRrlqtWqAUB+gU+xUaGitCD5znHnI2MULJuL49Okz7Mrxn7KZEydbcc5wu+fFBbZKTEKz/GnPOvNs++6tf7ARSuZ94bkXCka4NxFlJaFZC+/a8k32zycetalHzrCvijaw/cVQMTHXXPtbu+/J+fbWy95htSLSLMLvuOgtNmf6Mfbzv15rf5VOdMXaV+y4CdMd5vF8gtnDrxgGwz/c3MPR13BDB6NBZbApAlEiGBqC7ouYWrZnfLWDd8jhV7690hauWGIZiqJ47qlnZFmU32R6hq2r2GSrKjbY7GJxacxyFVc8cpTlikDiOjBlzEQlBkiz7bJ8jxg53EWDBWK3Fzy3yMaMGi3Xkzk2+bw3u5EGfVendEBJqg9ew/0E09OkL8y2I8ZPENCliRGhZ2Dunf+g/WJHrTVmp8jS3mTVzY1a7TI0idbaSInYhLNlCtXPmnuynX30CS46bKjdLgW79BstsrRqQmMQQHxqkvN0vTB/Tflmq29rsbHiIHNkTKE9E0vVflnmVq5aZUMugZsRYdB7R06e5j5hUyZO0T7MzR5zDDwZZFc5gEwx1Xk1APu94B/IQsa61f1aPDa7H6P42d0/0bNynk98xy2M8cX4RnzBF1GNqvrEvAnUiDEOtbGK8wvvAZ9hugWckSzof7pOApKF5xlVroeSKDf49sUl81T8gV46/OKPflIvlmM4KA4IdOxTGF3q9ysmuHHZ/T7U62JosfqhsWYeB/cu3Hq4o/6qXVijM2SuzZXP5xlHHy9datDrtgoeE5TGCziQuCNZLkRZcluaWjrJmZWJEpkfUD/qxM1t2FbmBsRhMlaOyBgqL4p2e88FbwlwFSF4cd1qu/nu221VmcRleafUK0qqUJmVmn2+4Y+ZZMXCo6EybOFiM2XKFGv5R6vvBTPs1GF22kmn2I33/92uuPIKKywZaTPnHGOTlcEJ2GaKCeAddNOMX5J0rAQBIHXGxAiwMBaEqtbW1NrNf7/Zrt+20zM67UhutiKpBDpclcdz8nDAg0G41dTe5OMEoQQf1lWUWY3UXNOmTbc8hby2CFemjpni95DmvAAxC4XS/84YN1HJns0mjlaEjGDQKiMQY8iHtZAp4WPAfBIM+B3mYjxqYR75YwlHcXFxtPjHF/U840m4Gw0g70qnBpQsLOh0OlgOWTF6l9TrHDGnQUv2sxIxa3fskntPjv3tnrtUmTgwUf6GpiZ7TPqSoy6VMzKzVsSzVXoUBqFTyld8rTqki8yXkaSgPc2+fMVnJH5ssMXLl9mKVUq9de89VrO9yj798U+GVQ3RSq1C1EB8ZRDzc5R2nd9iG54Rob75jlvtqNmz7QtfvdKeW/+S/fjaXyvkTSuj2pORqZA3iToQMv7q9Lta3GuuVmxWH0/SqYkF0qdpJVJF7mKC03oqAyyVRD2iEgMtvqdROqIWffKUww6/MCYAz7EDYpLag0MzE6sRX1ZhvUfSCIYQB2mogsU9Ecpds68b+7EEoqBGPA3+dGFZC5MhGhBf4DShVb6Lrmjz9TxuPIxhmvrAhHPLqACXgigCkdM17rvTu4a8U2MerKf0kMkU2gFxY6LhCIyTDsWEZvvbjgDx4RPW+xGIJH2OZ1LcZt7nkdiIhmElRYCBYY6JKNwGFbnDM0BTFYjvGARom19XZR068Rp0nizAOkp49zWKNEvXcfTmYM5r8F0PT3mAKYhqwR2JpwInTOE8rAqAu78N4Q7lcA7WkHO1VTpD51p0DX9RvuvZYladGaJ7hWkZdsV7PihjmNynNENqdC9TsGeRwKotj2el90p3wxWn2cKeLDqpd7OEF+lykerU7wa1tEDMQnVVtRKEKDouN89+K/XPhupK+59P/5fr7r531U/FlMhirL4DT1d3NIogQUi0sDdijZd6I0M6vCwZ6D5x6bvtnONOtqUvvWjPrV5hj82fb9uWr7b/+/q3LF0hTlliOhoFEFRb9fX17q6H0zcGNkdAHRhNN8vB/+q/3mC1ksJ+8PmvinsttE/88BuS2sR5CmS4yHmfVGaHG+VEb+BOhScQy0ypttyoKoaChQYjaaf0vTAsBak4TzHQzCxwSDYQ0Y0k9QMpi/24nAhGYwomoAdvFxfNvKSVMd7QXuaJD22vY/PmzWFed133/lFwmL54xpPANByh870L6e8cnQyWyKefeVr+dRn2xY9/xr751W/at/T50if/00ZJVH5i4dNi01utQebfVs2KMokCS9avtHIZeh6TocQy0qxUq+c2KbFvvvkmJyRvvfAtdsWHP669dkZZmYw4TER0poTpkXUF4gsL7cRW13AkpieVcglpk0Vr3JixCnLPtu1K5d7ZIHtZIzE6Wp0mTbHtGsgl61+WoWmX/fn+O+2L3/uW614aEfek86yRGFO5s0qiCvthCxEElgxxA1MnTxEHmWVr18ogtWmtJkSdPbtkkXWovjlSuhNh0K4JCYfJ0KRKaQ/34OKXBs0HLwGIrw7l7rtEZKRqQvEunGhcRvhWTfqBMaxFcAPhvRZeF1zaxPn6Ff0eIkfeZLUHS2CbFOG+t4zKa9LHfe6EULH4RJ9pNxPKy9cPPtTpZMKpZvgEognhDH8R2fUnA/nkLdoU7mPXZhHFnwOC7k+p4iF8dE774V3ckss9iD4fLyMqi998mO38pL/60N7AYYYLvhRKpIPwcZ05ziLoxegckRxiGzaFCO/Tva6D57yC+P9wJ+4jRhs3qlGd/mN/HveoEHGpl94aH1G4xTXSL66r3CYRusLK5BK0ZUuF1dXU6xXBVO/C9cGxgYe+YOk6Y1KonRdzhhYoB+d6e6lina2vrbSfXH+VfTcUVVAAACAASURBVPWn33VD6dZGuePnpNvIMSW+WK+X/k7pRoRv7YqKkVFF83njpk22ZvN6216905a/uMy9MDAUbdm6xf5+9522U3P99HPPt3/7+H9YyaSJVla7w7YLB3JkB8Bh/ZmXX7Ct0vWjN3X9tBrcrO969bMDv2XNG1QKW0W4UyUhjh5dahXKqL9LuleiZyqb6/RMIFa45Oysrvaxdw5TczJLuDV22AgrLRhui+Tit1peLGUYSBc/bp3a0mOKDMHMvHgokIBRc/hYqy9wk2GEHGx+MEcxRnftrNAfVQyPdv3fN+KGW1Qi7gYrIDnY6ICHu0UV9ZwWvUqMTpnwW8o22MaVq2UBG2PHTT/KCrT6SSttxcNH2bGTptlTC56xlYrnhUBCKrKzsuzaG//k+pIXKtbbNFnLZsktIFUAW7z4OXtq6bNWNHqks9G7KrfbJW9+p+J4s2z00OHOvj8+/xErrGuzOWec6gOOS0qLEKFDq9IUseIjC4baY7Kc71y7SSmzsm2yrN8vL3vR5s9/yN558WW24pWVdu3119k/lGl755ZtNn5ksU1Tu5nQozVYa9atte//5P/sM+/6kCMpPAL6rtLhJfb2i95st93zd/vJj35g+ZnZ9tzW9XbeyafZacfPkwVX+RZFCFxkV7tix+I0cejZUgUwcD6wGlFAHH/6h2z3VbiAVCmzIzKxm8e5Gzg8nzCaPfy1a5Kyjww+YygzeapFyJis8UaM45x2tGoSeRSSfsOVQ7D0orNs4Sd25UDww1MJzaCAeJb6ZT0bLb5eOEfXnApcYHwNvSWvBsIWfsMlcg6s+O0EjR/Rs7E3LxyvP8cCQPn+YIAvTYebgjNljqOigZOHuyM8Ly6SYiGgfCiC6xTDJ8arcD2U7RUkHOkSSRkf3vQmSNIBn1rhj1Qn7dquKKNv/eh7kqC0gIrjZLuJAlGfd15wqR1xynHqmuaL5g6IjyE0FY4IblfzGVXOe97zPjf+/fzqXyptnXScVTvs7EsutCKpjY6YcoQ9IXz59e+vsqSaRjv+xBPtblmN/3LXLXbF29/r0k6KuNQ//vl6X7Bf0dyePXWGzTlits4lAS5bYhtkOS+aOMbzg27atMHOP/kMy88utDnyZ/yb7v1dRtFVCxfbSHmAoBsHtk0sPGliWkSMWcwKldIP/+eVL6+0b//kO96X4+bOtfmPP2Z/uf0W+7ws5KNHF9vq1avtZ1f/wt7z7veIOCZbrsSADHHSs0aNt49c8Db71S032Fd+/L+OdxWyzh9/wgl2+klnOudISGS6+g8Xi10jXbCmTx7MwAhEC04wpImYi74wPgyMjyUD9CpHkzNewX+h6zFWr06x/jKpiHPaZtt2bbMxE8b6IDvlTqDQuysbmX+DsrE89vwCudGUyKn0ZAkUQk6taoQPLl27wpa88IIdPWe25Q0tsgcXPS4jzCibOWaCLVj4jFbBDHcMHpGZK2KnVad2l68mVXU1vqpOnTrZ5kyaKUSQ/6E4Kla1tWtWKQRuihWNL7UHZR0vlM/VZSec4T51+JS9JIv30qUviEiPsOPnnqjd08rtRVmxj5x4hB0hnUeV6nju+edlfa6xYSOG2pnHnSoAEg+QbGXiZhfKRaijsU2O1KfYi2XrbWX5Rjvr2BNsUuEouW8k2csb1tjmlStdjMnT5Jo5c6aNGqKtRCUeYH1bL0PS28+9yIaKs96u/IZ3PfaAJlCpnTT7WPn5iaRrwGKOzbkIR83ocGznYCqGo0Ybs7XUNtgR444SUdCUcAzWPcmaruflp8vw+kSUuF3Wvzrdr9D+NM+veME2blgnDln5QiVmzZl6pM2ZON11uSQWo7B2jTVtYvJBMLomlK450aBovx61L6HJ1N9HfulvQvZ6J1Y7cBnR0CuJ6vP+cK7ZD8NK17zL+nCdNrlGQSepmhtdd3WD7NS+OZg+9RLOJcj6hmW863p4OMnoDSfIvE6BHFH9wCLwLmF0wt24ngBz2aZtXflKLc7tsjoPF/yItqfB4s41n2olOj74zKPKplTnuQZQZbgkIIkjT6ErR02dakO1C8D9Tz1pBUoh97Z5Z6ld7fbcmpW2bMVLNu/Y42xscYkamGovSvJZLYMMC9XEyZNs2uQjLVf1bWyssselw++U98Wpx5wgKpJhj730rCVL8jpG6eMu+e8rFQ1zvF1x8btsw/IVri6aO/cEGXkKnItulJFx0QsKId2507m+aROmyPByhOUqGgi3nmVrV0rttcKK84ts1qzZdudj823U8EK7UBnr10uveefiJ+ykKTPshIkzbZ1i6Bc+97SIWacdL+fyFhHRZ+Tqlylgnnniqba2eqs9t+R5G6nIrBPVhmdkaUfS+6gyN5FGr05gfX7zalv20kviAOXFUjxSRtw5lqP3WVxuf+huF7UvOfks7X2UJtxcq/KfE9E/0o6dNsNju11a8InaZuVlCp2Vgay4SNsy+PhHY+zjHCNLGHb+R9zuQyRhGSGQHdr0aZdEz3Wb19vEKVIeq7E4bzpL211Gv7+4zzRCUczmYXAr6O/ScAjWd4tme5JmOTHW6Mt8mmlVIAkAoYVY9+Bs0BmiD4yfiUU7dHxEgKTrPvXA4tOqTH2IFKhXmST6H9qZ5ptXgVUtEu3RCbregpVP5YIoJPOAwMB5ksyjU4poeC/aC/dEuSARGWiY1LTRRRZ1Mkd9yBJgarU3C/HcOKezUVqr6gGdcHDOjEQsXFIwGDBoJOOAo6HtcJAedqc6fBgDrmlgEgfPlyfhWezc32nbJUKlC55jR2sHyw4S2GqddWIYynV0puvEdKk57aI422Ws+vMjd9u1d9+sqKHtXl+r2Fs2e8to7vQs4f/5jo9ou4M3qZ+MG8RI5fgkw9UnLJTAhTZ7BIuuhzbTRl7Qt49paLOq8HNuBdGZMoNRx/W83u9gkCH5QJuu0Q3gzCKIQzhj5u5i4nJcR8xkVr1OtCg3rlPncL/qrcYODhneQ8+pXBbuDjmS75Jx4ENf+aQV5RTYdz79FRur3R2TpOMiJM5dBCTZMNdDSjquBUkHODgxjZgEauFO4BXpZRg4iOTWnZvkj7jNSsaOd+d6iKQTXr0LsaYu5nwrmEYfdO46UKlB0PfhiI3PaJrKz0IVor5jsMlgMVVfHCY+FyI9nM5VjdrcrjmZ7IkmGBMivni+Awd21YOxrFouaCd+8t12urbN+NbHP29FimrK0ARpFR7QR8bPuVj972GHjI7ajESE4RUmBWkD+OP0Tx9aRLwgN9lqK1b5Runbs+HwdA2n9DSNKWW6Gk7fTFQMe0kqr00EGs42S3AGNu0qCwxMl1oL7q8F4wzvqlwWXecPVQ7+tJ2oSbTAtyIhgdeCU70YgSSMtSoTbjJ2KKdapKf1a9eJURprRbkjNNTCG27ERz9EknkTvDbihyJEZUYzAASDN4vddNQAAx2xafKeDyZumgaPptFNpj6owTiQ6IK5DGNAmeh/ENGZnBhPEJ3QJ8LkQryYUNTrmW64B4HTYLleT8DOoW26EXMewdeOwto0QCATBFHlaQFo1YCBWL7fia8uAju6BArWysSkjXhmv82zDki1Bedn+pIJouobgoeCOltX0dPQ51Tvc0Ae/03/VCfCF++GakWUVCZ1Bc5JExO8132Qyrk3/U48HNlVfuwfWS/dTqFE/S7lM10JUIq+JeKpnCEiDBAl8QR20+P32I9u+I2XM27kaJsz61grkmP9NmVrXvTSEltetsm+8YdfysE9y06fMUeGBC0qMhAkafVn8ildhLcXqYAdCpmE9JRopmYhMdZcJ2IaQ895CSI7YNU3dSpdqlBUOFhy0WGRICTMKHXe3xHxUF7JPEWhAHtE52otmUgCkJRU6bo6ZWiDQMPdyoPXe4w1FPgSCRJWCnGLIoaEU2LJTWPRUjOa5ZL2sjgN9HiTp0y1WrnY1KgNeYwT+wahS1OLmPFwnPSTeYP+Nw0yoPKTxfnFh4NcR/eV8Ds3J1f66VdsjCY544N7DGYEFl42JfNy9B5zng5AkNF8MP/g2DHegZjoZlNVBsQNaYM5AsNAMhhfyr27EFhGQe+JSFCeq4L0TVNxRWpRvZoGYJ3Xm6/Jmi0qnO1bb2hc6KsInqayi8nMP09QQd/0G9cbyoM4UwGiP30H9+gDulsWecYAAyX3BHbvF/iHRd8ZHLU1Q9cYc+YRYwNzRDsxyqBeCAYzET29x/zFKJiuexki/vQzzs7lc1sEFcMkRr0Q9KLnWEz1F6uZ6A/tod2MBdtq4GYY21381qsccJI9iSRTGqrAt/5PIxmFfkDhyXrDJKYBPadF3xocSPq4iMbT+tZ4R40N5wwEeiCAxbMcDTpXv534QHR8YKJP9Eh3IboQcxLRAhgRoPA+lVEnB18YHSDCDALtgUiySlIGnFETeKL7sUTn7+qcL4gZBw7MHK6v0rfjbvTNNQaOS35PH+939BtA85tneI/28BBlRz8dCWgD55SReMD5Jh5N8jMjegCC5FFSXUfUKJ3jj+cZxYWYq7V/zHX//Kv2emm0E6Wq+J+Pfc6mkdVbrxImubBCOx0qumjb1kqbv2SB/E/nOgfWJnYUsW7+s0/byjVr3QhRqj1mTj/hJDta4h0ZdiAgzyjDzw23/cXSZR390he/JD3yYntMuifi/2fJh/T8N51jE7VXOFvEorDfIvXGU1LHLFjyrNXod6E8CU6cM1c7MB4va63QXIiB8n+dCPj9Et+WS3/MwlBaOsbOkuV13uRZ8n4Qeqr9195+k81fvFDK/Kl2mfxvH3nsYVuycrncaNLtPEVgnXYUuuEhdtUff2ePLF9k1dpVcfn2Tfbpn37Tzpt9on1c1tx6bQvx9LLnFVjwnK2TnyB5Bo6UK9pFilMfP6pEdQVjnc81zQrq9bEUnAMfFwYA6PtCIN0XOSWTBR/CIH2MeT56x9/Tw45u0W++fW7qA+GI7zlB0DW+SWcGMSJMEOIDx6jlwOcpBM3nEyc6eJ7WUrdXo/N0Raz98uvftTxlkCcPp+vqRDziucyzfOJYaYqgr0GNEdWjwrjGYkuZcdnMN37zAX+Zy25I1TncMfjGfONdcB8faXAdXT0H79EOh62e51v//KA8yohxkL3TKZcDrptFgAAB90TT4e2I2hbTCYxgbeJQMzRHA4WLHgiv9Pt/X8MNLaJTrCbRK2w6hdd5Bv5QUdH9ltbrIg2LCRy/YwJCFb46AYzonZiYhkGFUwn34knIY7zHEXfcf+sTA8onAoADUJzoBefU9OE5uHZ+uxijbyeYmnnuiqCZm1guZcbl8g6TkjJwzaAv/lv/hTJCm6jLV7To3cDlhmd1ydsfT1Z+004YWOp1WOs317hH+X0ObnCPien/4NThOeKW9nnDFehMHlQKqxQVsVHJA3A9eudFb7NjSiZrVdfCJwU5qepOKJlm/+8jn/OkuficwY3UaUm57TFFTPzteqvetctGpymzjUTs5+RS9dcn7rV3XHqZfVb7yWSrEztbau0pbf6VLv3XjffdZrf/7Q7n3OsVVvaAiNx6WXC//b5PCWmSrFK+cz/8/c9FeJ9SoIFULCL2LfJZvfeZ+bbo9LPt6x/4lFKbpdkrlWX2jd//zJ6Wk3OJDHQk0nhOCRHufPQ+++4Vn7O3zD3NuSQsnw+tX2Kb0hvshauX25b1m+To36FIq3p7Yvnz9rkP/rtd/KazlAG9Vl4U2jEvK8UaFMWyXQmEd1RX+QZnV2sf7xvvuVM6lJBWLVuDu+y5xfbAfEVPffbLduq0Y5yzY7CYvwxUv+PkIyJLvbhC56g1IRxxo+f5Gc8DinOiGRXkxesDQYyJBcSEw+ekrrOIO8fGc1FBjmu6xns9iFt4VfcohErElald87SlBQtjLL1RXkyQKSue4zEehDdDuykpXpN5joPneCZmeMABmsY5UiFlh3OWF/3pPJ73fMeMAs30dvCJjngh8dyXugYOOu7oN/d8QYlQgNc49/r0HLjr8NR1HgnGTuSPGGd4I+pEXGGvbww38dPhlhAw2HEc5P7HPs8tIpIUBQse1oXdlJhwOaGf3mc6FQOOczrKasgnTaMULL8BqHTUO6vn6KgTqugTnzMZYsIUXwOIMWD4jn3rmAQxwfQ2xGWqmy6madQBOGJ/3Ca2JECnA8Fl0OO28HxcBgSWFY5vLzO6x7PxEU+keOB5l8KAQXzwm8nS44hnbXQxjEYQ3xgHdk3E0ok7ki/oPUfS34KEZkjfliG3h42vrPbktLimzMOJWeILSNYpZXenOB8iP04ZM83OmXS0lXZmumJ81eb19nNtD7uprdpOv+hcu/E319qt11xvl112uVWJBbjmnpsV877QRSZchXZ1audCfR6QYeJr//0t++Y3vm3TjpllLVlJdrsS61Y31WkcOhQmd48nPSHG92v//XW74aob7DOf+k/5b3ba9Y/cY/cvX2jb5YX3+7tvEme30KbPOMKu+8Gv7Mbv/9q+9B+fte1KNvzTP16tTEL1LhY3qC31Sg/4vFzIxh8xxX57zR/sh//3E5t05FTboWf/fN8dtrO22v7zE5+1M846W+PXYbPGT7Y7v3uVff29V1qSfFzvufMuT/v2zU9+yf75ixvtnh//3t513sXafiJTscqLHMaBme81eL2HTeeMZ7a8HPiBHplwS3R0mfpmfiFVdC2mjF00GZgb/lEV8See+3zzHNwjhId56Tijc5gKPpxTrl+L7rHYob/DuwK/2FQVnKyFjvGPxV7EWOZwPI9VhNcRh386t5fQbnAz1CvdoUhIhhY+PvSL6+BO3E7q9hBSAdDvR3jl9/XhAE8dn/U7EQ+gEe52Fj3HFHf3Hn0cV1VWpkRDwkwTReK4DF7r+lCHJOIsZZ5Cn+tHVG4/J+GS/se7p6e4zRIZISvaCwCeo3T52+UjVSBHUJzJAWwwrneV0+8PimGgvZH6pqy4TdwLzsmBFDdH/hu+6ujDYPFOP3jfVRflxQfv8CwTxevl/egaz3APLpMjzvzCM7GOBqunvxC1l+doA0fcdk4pO7Fe7w8XdXAfosTBde97dC8mlHEZPEN8K/ejrncR23DNoaay0TuFgvyLSxqB5nY5rmtyZCSTl0e9iNoatzBUi0FFPER6UCtUs6WqCCp6xpEpOUKcZDmzS5cKwVUp7rRN4ACUQEtzk+S9fz7/pG3Wpl6jh46wfzv7HTYhfbhgnGQfPPNSJR14XBm/19ijS562c4460fVmpAJrE2Dff8F77awJxwnW0p1d3GwfevGLcvXqtK2y8FtJit394lO2PbvDLpwx1948XrpPtWDcUWfZpE8VyU92l00bWmpVO3baM9oOoi5viI2Qm8nG9WuU5EG1yz0E0byscqctXb3G5s46WkRayCoMG6F+ffySd2tvmxFWoszpHzztErty9Qu2rHqT1Whj+hnaBzxLPWhR6jUSSbh5jzkv7rdGg0e+0wXPPmEjBIIZ48bZJ977Ufu3914hi7HcbpgwjIq+GAt0bJCZoK+OBkDX3VgkGCcreXCjPB2yBGOMfu7jSQH+TPfh40q5Cde5H8+deGi5xpxEyvOIIf3GGMO7jB/3XS8evasuRGUEXWFApqg0jS3dRjbkCG/7zx5tc0IdLvdoH9e9Hv8LbeBCXDftiM9dXywqE7eb7Xy9nlC1l8/jcT+5F2ARHqDP/IJ7RUgG/jBDPAMOIbLzG7zkORYTxz/9H+L+CRIgO1G7gkS0JbIMValusBHexEDmHX2gbqHp3a3pG3FDC6MDwMEc58gHcZMSPwAOIhKCoj3hwT38jNvBY3QiPnzCREdMROL78XnCIz1+JpYT3+iv7P6uxd2n/vh+PHnjsuJJm1hp/Gx/dfNc7+uJ/e6vnN595vkYJollxZMU0Y2Jxjhsk5hYUjJGg4wBrHfN3eduZUYbL6KXLrUJTr8N0pU1yKhRqImSIqKYpnskVejQvWYRirBdhbYS1mpbVs7+Hp1WKLelCYrxxcqaJC6kMK9AEoZchaRA3ry1XAYRUSgouIhBlsLfJo0a554GWZqII4h8EqfaIY8GjDs76nfZTn06xLqXjikOXJA6nyfO+AxtEUFqrWyJ6Us2rJAovEvp05Lsn3IgXvr0IqcSTZK32rX1bLqMDps3ldmxs5QpSsYCdKUl8mfNl9EnV1MdHe7U4jFuSGiQsWdHPckdmL3BoDhEagaiRPLUQ/SG71OY603idu9+8F578AklTynMtXEjxtrbTjzXzpo9zzKy8wVGYTjj1AVi9TlxoKNJhZFzuPwVt+7calnaxrRdfQ+xOz2msZ/0nnu7H83uqngmcY7G7/RoSkJBe5qLvVvVX3m9n4nnqvchsS4uJJz3xuXe5xHIehffdR7jRWKb4roTy4q58W64YOiEQOIJoPmpAmpq6mz86NLIABq1s6sBiT3qbk4/hpv4ZtwksepSfqN8h68kXBAXgP6L220/B2/sIwQc+gKyTz5GXz/iEWEFrNlZIwIwfY+l8g6RB+gGj5ggNy5NmnZxlk9Kd3jp1BM8HG5Ii8iGJISdIqgvbl4jP9EqmzhqjI3Qtgy4T2RqfqVJXIcfbROys3KTOxOCR9uw9kJ4YgIkzbhi8N1Jy/vAfY/zFbcOVwFn7OITESlasVpVZooIZpPaRi9d7wQ3K4KbKQ4gtbHTLpHR5/K5Z+q6snirrXgUpInIH1FU4oCCQHZCPOFmvb/BYtqmecsWHENw/ZL5mD1SyJqDUYTQNRJLJClYgc3MPnf5B+14RUgtUEaoF+UDuLm+yp57cYmtkMFo/VmX2pfed6WghcUX7l499gHRfyxSvRCCfuTL53CtLOk+hD34pD0O2+ADA4QAwxATbOAeD0vMYDTVN8pgldfNWPQYtxjD4u/QiKKiol7idtS4UEHQgrF6FuQVWm11rWXkk20Z3iZR6BxgjwZfexUIREQxgVByBS4Y6xybGKXKKb83cvYu0EdKZeA2MXv8FJs8QtEPVZvt+vtvtyNLxtvk/GLdl2+ajDlrGrbb/92s9HTPLrYL5fz/tc/9l80YO8nuefJhpbuvUwqrTZY/Nl+kr9PWVimzeEONGiNL94hiTyCMzI8Iiv8bse1OOhG1eMPVGZBSuWspSqpImZy0gZKtK1sv45A4TLkX1Ta1KsXcfTLwVNoJU6cr6cJkK8jKtwKluhslZ/mz5UCsZP5uyd3SVKM+JVtJZoEbbvDhQ5deIQf7HWor3CycK+4+GBzFhCuWP891XpAszvH5rJZ+NEdO38zmFhFLok7eJM4UR/Ty7Vvt1w/earc8+k+FyT5tH7r07TZe4jruO/GBe0nvw7FGmMo2vGmyojYp/DU7B/I6eBxICCRys90DpLHSGOMuRow5qkOYjKBIZEriltRzDHuPKFmAElUBXnY3PeVX0NsUybK4i9hKXertinIgO354l93NPTpa6j9EZ+LV87Uakqq3HxztATLU03BvkNfJ4ro+ev7bLFuKnMfldvOFX33Xfn3fLXbnC0/aVQ/cbp+RO8zjijkn2cfJisbIV+r842YfbSMKhkls3GG3PnqPrWvcYRtFoP76wF22tXyLFaVn2znHaj8blKKSfeBYU0SwSOIRYrYCh0n9STCOeqZIUVRvmjXXo12WLnvBHpHhZ5usy39f+oj98i8yDN19h2ezzyscZjMUNcHq/9izC+y5TStth/jAexY+Yh/+3L/bZ7/0edu5bbvHxieLK8VvsKqxxm544A5b11prC7R97e1PPWgdIr7HjJ1iEwpHug6OTPDJUmxtVp9WVlfYVukhH1rxvL3ry/9hV3znK/aSPAAaReByyZJTPMLVAsnyn8SNyheAPgeImHgdlILbTFZil1xrb9IiIQoZDKJ9Xh68cKAgIALoO79qwU6VREImpOGFw4U1IVjEx6MXRQxW754X+88n6ewJD7oKWkQxyVnUtUpiOWZI8T7rJA8UDN7Q5UZ4x+oY0C+Id4iIO2WwGKag/+AW3Hvd6wkVuD73j0BsVgTNu046X4R2iP3mlj/KleZlW6x49QwpspskkmL9H1s4wj71lvfam990rhOfo8YdaVe8+6P2m5uuURanu+3e++arREUedTTaiLw8++hl79ZeNMe6dwK7GWa0awKKKGA1x5EYF6sU1ZsikT6zgx0P0zzO9u1nXCRfxE32gDJuf/P737VmDEgYlWSJ/9B5b7Wz5SuJ9fVDlyhsrmKzLXlpmX34W19yURrVD7rE97z33Zr0RSJcWFbFSUrMHzN+gvq03G769/cqMYnU8ErAMFzcw8fOu1wZu5VhWkafYybPtMx/3GLVO6vts1/5vJ0kf8uvf+7LNlrO9c8sW2wf/vJnfKFoEnNcVb9D+th0e4fSkA2TNOVGUYGzX64lBj3cCY+pXUOVL2BT+SYRfO1Rjj4ZbhrkxdN68DigEHDM0H8wE0Tj1EsfWapclOTE5EZ8P/wIV/pbAkePHt2fuK1HEwR7Qn3Y4gAFaKNiQTOUiGLwOLAQCKRPSOUcShBTGUYIBMg9SYmBu329dt+WMB1wTUKPZ7Jq59mHz3iLzZ1xjLagWGbLFQ9cLT/GdBlNZit+/fSjjrdp4jhJQgVXSNjn204+X3kwJ9kj2mBr3WoZckRUxyoL/Lw5R9vscVNdb5kqS+5oEaHzZp8sB+VUG6YksHG8cl56lp0z+xTLUthjVpL2zhahGqvkq1/5wGfsDBlEFj33rFVKRC5QDP8Fx55ipyvhcbbSiOGoPKuwxH71qa/b/Yrtf15p8poVjTNy+Eg7WYlDTpwyx02ZRGi5PlRAy5SR5qv/9ll7SpzykhUv23Alk71EiUZOmjBL9UpXqYfOOOok++L7P6U8p0stJyndzp11nI3JyLEffvKLzrGuXP2KbVFGqTrpbieMG2unzTzGjtFGZRlqNwjmERwR5xjCISNsZNAcyyLFCNxwTr6yT613/7wk5YdEEvCADAjpnsSA3Q/r4J09QIChQOXhEWD6q2sks5IWcqlh4PB3d3TLe6VMogAAIABJREFUbt1P9B+7jfYk9pfRs3AjLXLBrqrdZpuU3WaCEGYIm1wNHgcMAqjwPD2YkJGQSsc9EaNd23dZW12LklpMkc6LDEC7H3BeiTkXrIBIBcRCI2XgoEw6NPR5rRIn0R9miwh4mKU4IN9GFy9oX2bxoWNjKlFZEUPi8dEBJstwM0TIn62EGITVkhSlTm4+lJWpR7GSow9oVD1sHiWPH89yz1ax+D3VKeqFfhG/TUQKeqNsEb0U3FPExUKHuM/2GGz2FGLIdUV9IO8gfafNygJqX/jLT+RfeYfN0b5J13/1p0puUqB32aRUWwPQVvkHJst9CEM/Xti0qVF6UPz98lADSB+JFR1NKn54eBGwNUWL6kpR3SkYr0Au+iQDkPss0mZ/w1EyfCLmAt9I9LDiz22NEquQdWm4MlihqkJXGQxZvDN4HAgI+GgIX5hAnZpLWyq0N5Y2Xhs3bKLmAQsdMysce1qs+mYm76fF7kKiWguUEGDNBkW2ogNidlFPv6th3IDBSdAPOPfyUkC6AEl+80vJA2TEKNH2qC6uOfxfvThPF6ZHcJYnzwXJQyAIxI0Tr+tEQ0QR3fUQ+Q5CeMBzch1ia8bZV7RPdIEUVCGZSK6IM5E80MxUudu0yXgDd4R7Tra+IMyQb5JRQGgzVY8TYS28zbSHOaN7hMQRwYvgmSnDD21lX5sWKS890YJbsNUilQ25oxR8REl0Qd3gAFfZ85nkIoj4qdIZ5IkCF6gtnSqrQ0Q5SeUN0Tc8hUdm6F25eYu4412oQrB+y5XJLd8qJ0NVpwpYxGVk6JxdHOFG+GOxiWd3gPxuBgAjllYO+ooebK1ixZ2LJNYYBWUvY8Grj+Lg3b2BQDwSAVM0TroAY5AmfXKNNucbM6rUZxAH38hne3P0dSZPfCuqNeQcJKBdTrza3qC5pkE+ZAqa1+RKT8n0iRo0LOjNONMs9MZEXqN705LBZ3pAQOuQEEwciyzPnopeho3OFgXyK2QwX47UYGvg9PYAuCheyx3WGRI+GYHAMlFQYUfzxpMcx48Rttl14C8DEep6MLjPeLydDmLt/VBdhMrFB/sr+2W95woanbqzvV9W1hiIHSylT1a9yKnupam/fkRfFBmc9AFKeLRd7B4kDkKOA3Bue6rlNSr2ozVNDtbyi1PdwM0zjfs8THDC8fZGDYVgR/0myIB6/JUoKgAkw2ATH/Gv0GXKiDsfPREXq/fIMAMi5ksN0dmyRok7tG+5Uo2xyVdIFBHe4RUkh97+g12VDv7YKwggAUAY4RKhQvxmbjTWKeu6tn7OFK3yOPWEMdqbgndjuOl+1aky4g2yvVa/cWPG2UtrXrJxeRnK7pGuMB9lZNHAkwIpVO5Drk/Ukr1pxeAzfSDgsfOutwoDDbJvlUvKSOXCxPXHk9++lqO/1/u7Rh1+fXc3ExrxKo/0uNXnuYQLfe6F8sPl8H9EUt0Vh5nG3tDHT5huHae3KAGyLNiI6j2avJtCE5oeP753T/Z6sZ9T98sj2kl/cMLkDd1cUWbjJk7sMtrE/ejn9cFLA4BApOnoepOxRGW1ceNGm4ru3P27o7mxD+WPHIlXRH9Hj9nCZGS4FU0hl48MKdUbpezPycXVQ1oZvNmZlt7KiOPgtL9yB6/tFQTcVKOFKY5+wWWFtP7jJo+PrKNY7AIi7lWBb7CHfHqiBdIkyxAxuuSUM+wcGWhI4UUyV+br633Exhlakp8rVdVGcZNsTSAxH6f3PenCXu/2H2r1Jy468eiTKQsWPVdRg2FW7Pu8KC8vj4WaRJBEueLiS1qpgw4MyqetDIYXW9X2Haoc/RAcD4qtcDiJjINbDzUoH0ztdcVyWGbYcW5rxRbXbWUoPDBY7UQgYDMP0wP9YuAJMLRAGJVlXOu9slC6zjJBuH5dIBSPTfCNxLE8zUpGlMi3VLHrkZ6Y8e0ewcN3LPfXALl4nYA3/MSXd/yYCa66CnNi3+E8TFtgdytcotb25ACDyEclnk9SE3Cotr0kIq2lQQFeWhGZkl1KUH9ZRfbmffcXJA6XcgRHRG6HrMTH2l01VjxslODPGER+XocpkWSKeTwPxg+3OLEwk9wkEEimSNd8fJ3mS48FjCaKmxmp8cNXj4gpRzrhDv57tJ2RHhS99sNgOf2BWsqgp91X25pblVRa/rEO8YHRJSJ1+iWSgVDyf7ApBmEbaoyIzZYB4z05KzYaXDQYaTer6wNi7zu93g8AegMV4UiOr4649aptleLeR4uLJJkZ8GfID18Ih1kZLNruqSbbCTHYbnHR4tzJt1tfXt8DQukf/eFfmSpn+2Jxk7uU3SjoU4lOCoqsQCYP3zHdXyMFJ4l/L3hSuXWbFStAgFh7ZyzQ4w8AxBhuesymeAKG7+6z7rJZtZOtKE8ps+T+sVN7/YLLYeWOnw82x/3V8cOxHDfcKLMO2a2rtLVn8YjRDLXGOGE1BNyH4cGEjZ3k0YbzidNjHazg8K1PpBYo1g6chMc1KUchsYoYRTnAoQFh8MHa4dejXVogcbNCl1+lnSPR/45Qij/UU86pD/AYpe2r+yy5Me4FfjAmfKoEEVqnIGu7/NFKi8fb1i2VakRcBAPO83CWA2zR4GsOAZyN2bOjvHyzolvGauABaDQGhzmMEFjiRMjRbGPG+ZTDlcYd8Q82GKmBKXIiRzIo0RaqmzZscI4HqcAd/nH6TNDtH2zNPxTa41uMCWfYaHDHjh2iT9oNEYs28AW8TJYBHP0abuIJFkhfAhWOblAXVwllG140TGztVhcfaEX4g1QedNN0AOD5F74SLUAxR46P3y5tlwD2FxYUurgwUMXzv7AX/7qqImKIl2K0fIS6mZwDRIYD2fhYfcLmdoW5hcpIVGDbtXc8EkO7Ipig7INq/N2PQKArMRMWj3kijQkDj9/vjq3bHcY5CjUNonbwZcWHeyBHH8MN1VJkmHyQwu4zr8DbJas2jsOi2mMlPrTW1itUrlkhXhKCxFW2K1SsnZVx8NgNBMhOwpa6GjQnjiGm2HeC1KdNvqftUu7XSZUxbvQ4gdzzhgdusgus+gFLdTge8STVN7MTd3QXv3tO3oMKMkjbBCWhm0yXn+vYUWOtfqe2ntA4I8u1sUej2h+TgZjWH6Q0/18O27CxLYoV+TUIKHg0+BbKEd3DTxtbCIaalppm7Qdeoq1XpMPXVsseRab3OrXnUUjzuG/Nr6ur6ytu77EIkNnFhLA5+Lix42zTxk3W3IhPkroj03dilMIeyzvMHvB1pvs/P3F6J04cMTtNCv5NmzcqOUKe/LuU/07Y75EC4aXDDFpvxO4q3FG+xuPGjLeNaze48ROxe1D+erWxZv7j9tXt+hXLzyRY9rtaZVa/ssomTZikOG1xkeQ47cFHBDnt1Wrp7x52gT46yf4eTLzm7g2i5L6vsgY4JzPfirXFaGXlNh9ows3aSec/ePQLAcbNTVtO+Bh6nWlJxJsF2G2R+iJDUUwlI0t9IULUZktfYNsVmB9e7bf8wYsHIwR6LnLIaHnZOdoaJceNDPgrYJaLn0r8pjeHO0cZVE1Bvu2GhfBBOl6i0UglUSH9/agRo7QAKVTaDWLdFDJGl4GgDRE3+0wk4ymISJ0iJ1nkhKIC5fUTQle7ewOuvoPH3kAguO07L+mD3aSNihoUG186UsYawTU2iuHM36WzYqT9ZCBDvjetGnxmf0MgEV2dFOoC0Wpji8dqK45axRfL2o0hR9d7a1EGR5nRgKIkqP4iOdthIwmMTeM6lLN0zIhSX3DgP5yZSwBe9xK0b6Pbr+Fmj0V4A9RkIS6NT5GOJVmfCWMnKUuNnGWlF/AMMEJkt9qJqHsmocHDIRBsXAFRPCKD8EJEbWWbqazYZpMFx3RxkmnK28gixKAjjrn/aTzoCYM/CNZDAwLBmMnAoT4R3yidWopUKxNLJljdTm1iQbJiqKlwxrM3dVPWQ6ODB7CVcIYQueAyJc0i+EI2eklZLQ1K5FjfbJNKJzk8U8n8hPoiwhEnjqisIJ4DaOPw4cOdRO/7Qb0+2M4DCcmTlfAiQwg+2dauWetKVTrBd6syRmOKHzwCBFjhAi4gZgM/AVNryOb1G22kNt/KSmOPQazZwS8yrIDhXd6LP4PwPLQgEMYtEEnnJEFajftQWWLZy2fzpk3aBVL7FzEflKrNGYzBwyGQKqsX/o9Rfh8ngHgKtMsXsnxTuY0qKtbWvdmCHfbswFTwTAhwCbRqoJzkwAw3YDRJBiOZ31XOOmUv41RxQHOOmmsrXn7ZBxmrU6YiRVrJyjp4OAQ88QEI4tyhX7HNm8uU6r/Q1RYp+os1VD0HtieJHEShQ3VCMe4hOQzMQ5vwZmjeUM/wtHHDeud3ugw5g4Psg0x+CFgL9k/qIKExKj3hz2rtuz5R+xcV5Ejd5wQy6C1jNrJHeGiEbfs6a9gNQC6OyHz7ckAgEZ9FHj1bs1wYJE63wRKD9VKsVNVttw2VG620RDoC5fZjb5YBtnFfGnZIPOukDp0iAy8D15ayzdquINtKlRSUHITaeSoQSVlygh6SN2JFNEtSxI1Evw6JTh/mjYyXNx85xzb9h3FBF3B+hkNqV/b37dWVVq59zCdOnIzS0jcIwDUofn9gYt+hD/xAFLWldbtCBOEgpZratL7MJpVMUr7OQhEgGYxFY7qIYuA+enQ8zsq0r9Bg640ByMHdSBpGXCuf9JNkkcbIzhaNBUoNxYbsldu22QjJ9GHbRnRqsakCF6IwSUKju3vVTbG5FjQ5+9qx1/f5XmuOThk8Twai/rt+RdfIVrOpbJNCPItsWD6ZRqSiYGc3MoCDOA6SgB7dzgthcQIqrqPsWnniOmM4ch6PU/iOz1gSHbLergRIJf6Oag7183yvm68vgPeu9t4gcVhyxN/87ofs9Hmv5xvxWXiM/+NPVHyvr+67Lj848J0vYRIk4APjX5QPR5RkZZvKbMyYMWGAwisio45dYSQSDXduxKAWvjngpg6to/fsCnMUJgyaEfZtJ8M8PSNTPFmxxoqpYEsGV/klMmG9C3uNoKioqBgIJ0mt/cykhMawt0dTa7PV1O+yLZVlVqKNo5K0I16yNmpC1dKuzDYpbBHgmczpFSgfJmx8TnGBEMR1vcbe/otehytIHCey+CAaIEa3tbeKUOquDFvl2nejIDffhuYPdQMNhi4yLQFaNmTtYA9WnaDbbZGDeYhLJXOMHtDkASpxCihHHf5pgUpN0e6EIrRhRz4caXXX1yOhKHX4dwBGh1ZgnJyDX2u4GPAv6E1j59uBKr3/RSDvWw1dSVwFImtogFo8nxgl1wB2Hd16wHDV++8/4eq9UA2dsvjA5emvlfj6Njn/S53UFV6o8YlGJypb8NeYk3yXRBzJGhvEbDgiFk6QnKayPzrx+tSztXKr9pTaaaXjxzITNBcCsRjiun0alEjcmSfxh9HGvT6xV13dOyh/0NKeRirBQ2CPVQ5IXR0dzcIb4NNhZRvLbZjSBo6UHjJo7SGdsepq/3fx1bdveNX69jAI6iQdGJpfaGnp0h2sXWXjJ4x3JGaLWhC5mY53bTbVXVk8PRnoPdTyqi18/W4Gbjm0PSTOJSUWm0ENYaMsyU8bNq33bRgKi5TaX7BqE9ftOC21RbMShe4Uguyq22H12hidiZGenu77yoBsEL/4AyuIOAAhBUlTtAiRtcR3OtQ7GRkZvq1pocbB41gFFDaiYp8iLINhPze1lLA4GqAJ6ckYogOSynHIjYMaTF+93f4f/fDlghP/3bNXgQCCrey+6ERQ8HCCmAIno/0YdZ1r1XXVtn37dqupq1Epij5LFeECgwEfMNQR5nV0znUcnlU2t9skLQD/3JxcG1pU5I7POJdrRPy91o4WGzFqhLaQGGKvrH1FztETRR3ERcFgODGMxydxVPh9yI2Sw8oh36PpYeEgmTfznLDNdDZPk1P36pXSQY6b6IwFUGA8DzSVwHAzAJ2k9+1VDxStbepUh5B/iIhDc3uTLV/1oo0eM9qy5UTbhuVbg86+KN1HtBokQqznEvOqdR4sNwMnTGv4JS4AIicC1dzWJHG61co3l9tI7W899P9v702gNEuq+86b+77vVZmVWV290N0g9qZpQEKArAUOI+tokDyyJPtYsjRHHNnHlmfMzBxGlpCOsRasxRK2ObIw2AiwZbAwxsMxm4Cmabrpbmh6rTX3fd+3+f9uvMjvy60qqyrzq8z6XmS9+r4v3nvx4t0b98bd4kZDgwin2GbnZm1oaMQWlhbF4LSndEWl1dRUWVV1pVVq+95SbecbJJMMEQb7SiCLeM5pRLDDuM3KnUW1t7A0awvKIj87M+OSaJkyNzUqv15H6ymfqAhUD1JisLqEIReGnxNjoPkTSX9BRwnUt4MGM0NlS1UN0p9LbbA+wQ8GuLS6aOOTYx7wjRbALpK1DdUaw+CnxspKyzJErofsJFjnmfpv0wme8cAEKkYsTWJhftHIVTg1Pa3f5JgstQpFNnRI66qtqfWM/3PC3ZX+S9Z1ptNKy/Usn8B4Gz53qtVB3d7Zh8zLHt9vcZjRQx/GohnmHcYzOWwXlDmp7+IVu+8l9/u4ZQsTwqgw2uIE87INyaHqMP6/CXX76o9HkvGod2ZPbd2JfXJNKslzl563otJi9+QVlIkwedGkxHckoDYW+GU2AK/+1ONxNkR00Rd6jpgIo1wTo5p2gjtzqlORACs2Nj4mVU2xXorrampV1nFJFMUaANyFJLMVHkRLSDGcyRoI4SuEQX1gb9gys2dXkaPOSoVzKVE4UV8mJiSlal04KnlFWYVWS3X6fsQuWSbzMxu6ByaZTGJHNACPCmMB8vwfZeEEHclg8tdhAk6YpDMuwQkmObc4a6MTozY9q+17VVOj5aFMaKWlYbICbq5sqxFYqn8h2J8/GKL+IqOKjgQmS8eFo5CnB5WSa8E/tLKuYGg0h8mJCVtaXrQKaQH19bXa+qHGnj//vDW3NFt9s5wUuxhlaC/CMhhKjgqyh98uKEnQ4pABqoz3EtEAk8eI/Bqrsyt2/7n7Hb6s9MNUweS+NVkEVG+jj8PqKZrakUiS/tb+5gymcKxIvWZd9+DYoE3OTGrGPG3Fmh2xPWBnY8wSn85vJ2pB7CQwSUec/sJmaMFWBSGgGvELdWF4aFAS47RVSkpcUEKQyooKa2qUqiWJATsVZOUS6DZVNwwZoEh7ENT2AoMM0kOsj9cFSTOSamYIOjlxi54Do56amtZ2m9MabgXWXN9sLY0tmqlLtTxSExgrfuiP364rsKWqRJUy2Dzjk4/XJ12OkEnYvDMoj93VIHNGogEnfYc3ks132UYmR21kfMQn89q6GmsQYyxifIqJhcHogPPrQwFffHPZM6m72kfEZ/gMuMp89832vHlhWkwCKXJmShOaskHV19ba/OK8lVeXWVtbu5WU0idwA15kRhGukKycbNg28AQVt8vqDyg6ZgQH7LMrK0s2NDDok0V36xmPg/T383Gow5lDxK6+J9WH/eq9il89OiaZ3VsNSIzcm0IgG7dPzkxY71C/z4w1mikhTPf6SoBhdnbyBgaMx4Q4D/vlD6M9kMu6akccSFJBIsF+CDHOzs/a5YuXfEasloqGfbC+oV4JiyWVOH41KJL7/PtWp4DA1ol9usrVmTv2uii0saOd5Da39wBzAXlZksvE6Lg2G5uTlN+meM1mq5J0iaPHXRtOjEHqj8xyr+cdp7rtkAkxu/SPMQVDAk+rMoGMTYzZyNiIJqwqqdK1shFW+jhEiixgW9j43v5ywFJQ9cb5ri/SlLj6aoVpNEg98arQTmwv4DFkudlqWR1FXmJ8TU3CLCdtbGpYaneJdZ/pkdOvwR0/5FAkDxKZonwZqzv8TlJhfIEXMUcYv+y1TAyTMnGcVrJp+ENFUYWvpgklgd2WBJWM7wjSQ371paWlI2KS24g3vIQbvmGAggPqJ4Pw+YvP29zSvPXccVaqpgYSjh2NQDyBPjsDiGPMJHmnsGQQh5TeT2Iae2QT1Hql75JdvnzFWppb7VTHaQW81uvaoHghMsPAYFQeKOvqcjZZHxLGBb9kCG0NnbBVbQhFCidRb5JAXan/5Dmcnp6yKu2MeUfPOQ9bKi2QRKWYWJeak/22D3ksHn5zgDN5eZcZZeNDGkdSZHLoHeq18alxq62tEY5a5Ogq92gLT7vl5g6kG9oI0kqccEKma9XH2c2Z5FUYk3C7ZafeknxoOEsK8ucEJhlHAc9hSNAfnG6Mk7nFCbvSe1nJZIatSU6fl9z1Ei1frdA1ODskaPDp4ugJKrwwmXJglGKQ5184r6Q51drAq0fvRtRHcDa6DXLbaM7Ne46Oklg86k+HCtcQvhIGQhgMrMoBEhuSqooU/rNWuGr8zS3O2YXLF62krESOnU4rLJWE49IkdyPH5AYYN/T6QiAMDkeJmw00649O99t3nnlazpEO7bfcLYmsxtkfNr9VSZh8Oq1AAwxq3lDfnUnSnkMJGjzAe28jut1vkCFPWqQgUQXpI7bOGeRFiBH6YqAyMGfk7Okb6PX9dboau1zdcWkfRq/PY80sHYD+Yv4FByJ7xK+LEQ2PD1vfUJ9sfG1W19hgJfJOs3wWBhlCclgNExZIuMkkCNDJKBS2dK2P6C0VAKRF+HJid3GTU6ZDugBARwxkYSJpB6bqfdGz3L6vez0esIDN91ZtaWVekzDMctTOaiIjYxQdhWpO2hJgNJlN5dUcUuzjzPSs3dlztzVIoCgg0xhmH4G2CAEqq2RGc6YyTjm7oX9zNUfmuAkWIebhhPvvfCtXd2TI9vgv2R8U9jAuFbxvuN+KyrRtbUeHFcvuwm0AKthrYJdB3uKTOoqrf1ljlMG4UyUMd11tINMG7Iqm9Meg5nIfv3F4c01o25/hD5XkKOLDPTCi2b2vv88Fj7vuvEtqQp034LGJ/g7cK3gwKNRUeBva1Hv4b39U0gd99YprlF0Xbb8JuTWUzLsDLlZ5+OSjH5whFs3j9fy9widmERjmiFK3kVSZdeVtzaSN0gvCKPxdAhG7fXLbo71VHVQmJ7bgeY13uoHTMBJfsJB5TV5Kj0a610iTFDk+PWa9w33a97rYTnedVuwhfRbOXV0N7w3Qg8wAU9K7OXPLSIkOMyCUwD3zyttefscbwKQjPDiVfe2O+yI+k+pgr4P5MR7BJdt6gFVJnXonnEsXLp631ZVVO9PVI4m4TZNXub8XWbkQMmjDC+ABHvoaR3qozJwPF2b/nw3QnWd3vwc1/jj9F+CH8SwIPOFuwVnnA8RlglMEzNTotM1Pz7vGxY6S9Jl70VzAh8sK/LcDVFfrzc5zN/P76Bw3B+lVFvyZ6flbWpWxdmLQhseGraJSzo3WZsVZlrv67Wqp/pwg1H5hovYxrrzOB3wY5LuYpA+wayDcmWRgEGDSrxZykLA2COFQ+2RfZ+0oa9dhIssrC+6QuXjlkiO8u/ucNh86Ja9xpTMiOhpwew0MHwRet+wa2SznZ7RNx4Dbhc6cOqskHNUCEXu2wDIl7TOYFbMRBjSQC/AOrIfBHoiHCeQwSsQkUI1EyReXcMX0wB6MBP63tLZglwcu24Kkr+a2FquQbZgltMXKsnQgaf0wOnxIbYSRT2NAQLZw3lLB7KPjQ3b+4ouilVLrPHWnvPFs1CcTiZa4ErwOgw1CSegIIz3S005a8Su2MfX9Op8Z02HyUK+0OAFapRBGhXSu9OChSZrl0DVLMrFhZ51X1rDm2g7raOr26AGKB937QDoe5egcNwd9v2S0M8M5mxTjQTJjkI8pXGZ4dMAKSpSvsrnJw1UIkGaABCcPxKBf2C+TdvYGbmbmP1i3QmM8A6pn+SDzL9JIkbblQ6WeX5m1SdmzZuenbVFOj7raBjutUJpyMcdCcmwikehv7/4crBfH5yrZK0Vkq4oZJN/lyOC49Si9V3VlrbzgCoJ2MGkCibZKH98QRpBaQhwbk5uuO0QmGckIyS8cMMhgNw224RUP57l45bw1NtdbXX29pxpw6VE4XVWHjrOHfi/8b2eSAcYbsrGiBazIwdAnSXlaZpIyBadXlFRai+JxKzUplJZoCxC9NzQWsMOEFpABlnazJGdne3Uhqw46ob3IIoVpNIuEGGmfIHpfOaZ/CBH0cWxkTPUbiqRo9v2bKksU+mblW/1xE5RL98ejHKHj5vpe0Ac5NiEBLzoykAjWN5dtamFcITRDNivbJTPc6c7TjnhUdZfqFFhKGIQzTyfO3chF2gmGwP37FTYKijKKWlFYBaFJtIkUCSceGujTaosRMcUaq6wu16qLWaupqnX7FmpbgWbuzSRA3m2ULsHCRHb3af+eHMMzSNJ6f+xErAgiPVWzCJCgdIJ9IRMWXmbeEzi6kuhnwAm0cxRwCEQJB9YTBW9+46Tp1XJYj0vt6tLkSjQBYww0MoGF3Qsj0ziGEN+zS5nRyWmEBdmR9eJIbMj0MCWkykl57DuaOmxcHuKVpRUFp9dZm1bxsDoIyXKdsSlYhF058Skjk4axGh4MzgLe9uyIV4LfkN0rsElh2rNxBC3MNQw1ubAwZ4P9g4r9XBKt1EjS7fIJ1m2sOk8+WjdHIZTw1GPEIOkPcZpH5Ljx9z1wibMPTAnmGKQ44K1ZUoOb5WEsnZtZkDNBoUOzWhKG7FlTW211zY1amaKF7pJkIoPNfjDsqZBNyvZgnvE6iIdBwiDkepC+urRmE2MTmpm1t7h4calWCLVIImmRV3FO6ucVeUc7tBFaaUW5EC07EMZ/WmCpgI+VoGzCGMKwOTA4jt2FYfAHBuSOgdWw9hwzx9mus8JZsdS7Cr12lACApA5gEJ0RziTDyp7De8EwiflklBA9quWF/ou2XLSimMI2X4HEaiPGB+o1trog1Qorx0dgORBItjPJAOKgNocXwX4qF5ytamnqlStXrLOtU8HodaKXORseHhLDWnA7a2WDPPqtrR6DGNVuIWdHHyIlbK/O9IFRjSQZJFEPPxKD6sCWAAAgAElEQVS+lxYlLSqcbHp6Buui1VTUaMFCh2I9WUoIYQgfHk0RQnqCHBG0rjiJHsVkeiAA73HRETpu9njataoi9PcaCY4vWJDUPkkJME2S+U7PTdrQ2JCtrGkTMl3D2uUSqRYsFytTIDB2Dmas4hJsM9HWwQwcgrzX5FXDMLusnHGzUiXZkoI0TJt4oUX4DUJscxJgjcG8oEje64khSSjjCuvptGJ55EPSAbxwYaCGxBTXetkTdp5ZBBRwwOw4BKuFhXnPWEMoSkVpjeYHOdsY9SIWJjsmm3BnlFIOiUkmYwRbMURPNARjAnMNq1Pqm+usslFxnk749CPgJmyHAaGG8RRsbycHF7tII4FukPr0HoJ7IRIZGpAmhr6+K9q+tlaxr+1iWDAnbJhKyTY/asMjw/4buuBAyqwor7ByLXQg+QzCCYlPYrIUYn8JnSIgPxwbtiiGuCTNwulIB9BmwiSkqlEZjchoxe6Q7i9IJFM0jjCS6G8C+zBIjiUibq3jZi+Q7BwF2b+dQsE/ahM2wmRFi8Ii1uQdX15Zdi/fmpjnkmZSkmUusR5an2taOx5j3+LSPcT6Yi2RJAkEG8dXasbDmA9jLdN6aV/+hMqAJJiozSPTgwo+HpUKd8YHGEwSd9KmG7s44B7B7rPX653UOpeJE1z4eNa78xt1DZgP9PfaXd33ui3M1W8xVbzfQRXnxojIQxLd1Jyn8hchr2PP1liYl2Pm/KXznhyiokoSUjGMORgCAhMRoTqzz+pPfKkTgphscsh0OZvDCO7raGIag6IT7OmXr1zWPtT11tqkyARAhnPTt1eVhqb16JFuEDqcbnQsa7XL6qqSq6gNxnmY+IIqjBAS1HYJI7J7kl+grETbjSgapZjVWr5sMJiqfCsFZ506HPb6ldhCTwKDBMa33nGza3DuGAaJBOOXAecEaTA4kBz+pIr7YN+u1GYMyFHd5ZpIJIF8good7GZFBEvD8HSJ36FneZBuQlhD8riPyz5Knj8kWve4u50Lwo8H996OTDKDKCdJSSprK6xIkRlCxIGXckR24y5tbFVX1ejMiNCtwCQdNeG/XSpdpt0Df4NBCi+hRa1uEg5ml+bsUt8la2zTUk/Zq1lNA0cI0ku0R4PbyCCDinjgZx6TC/dmktm1Yk56dRgV0RfYxZHwhgYGrLq8WhvMKQk2mIjhUhlySN4wqL0h+zd0pX/CGX+YVpx8qAMHXhuECA9vE86j3sBzuRSNLdgYfdT4zdmqND2PZ5ILjt0HWbWOhU0SyMB4IpvjMwPyAEYYVyzkowzIC7ZE6gPwHXv88hahYpcE9dvbTk47rr0+EJyjlEHg9aEvoSrY4fqHBpTFZ8UaTjW7DcdTWmm9b1FpYKzheQw/yPJ2ZJIZ2DuQKJJKSBLsQeWCyfqiMuaMT8ih0yZVS04C/eFM2CasHQZFoEkIVx6mqU5MyT6MV7dOKna5wsaY+Fi/7ElC8LbCFpgAwat3BgkTHDHCDkmyTUBy1B/bseCjNzl4Mt8Zxzg8pfry2jAvhdyUKXHK6MCoohSKtJLlDl0lR5Zw5h5oJhz9c/pxhsjPICQkVaGdeA5BhXZ5ZHK/f08EGhdghB+adfmBRrwkvfff298kMtfkwmP1cWwcNwGEGYRHZhnBy/ls5OENy5RwFcj2QQEyE8REiSMiCsR5ScbTNnwlZjPsXNg/SfGGl3RgdFChJIvWLuPzmupKZPckCS4hL67yeyPxSAZPVu9uj68RI+FtGNRICUgsLo0zwWCv0n4tly5dsvvvfqk7TMoV2OyMSIQL1RBLed1FTUe0+bSWqNfYIFekIj5/6QUlS2lXshQ5AsQ4w+onPRWbqDNJSjLFikmG3zHA+WQxSd4kwiLzjZpMbQggD15vxi/LSoE9k9aIUvIhZN/ZdY9wxiQS2NPW6imhJ5ABU8t14CrzeIbB1p1AO+xKkNXzHUwyPOU6nnXdA+jmbhiShnRsJMmbe5Wbv9v9DT7YwLIIcF1JH+ambHBi2Dq7u0XgPi3e/INu0xY2NzRxyVmwISfahfMv2Cte8lJ939Qa8Bo5EXRORFmsJafXLuAggXNCfJEGCVQhVGtJ6+NZ+//cC8/65FVSJQednA0ZbQTix0acFqT5Vc+IHxw3eLnrtRiAECGcKKxsIW40zvU4wSiebCItHt+ZQiIZCGgLSEf8edJaxXUNDg9a5+lOp9k14oDSsi8EnK3pvxI5vno0qTz74nP6LbaGKq6AZ1e9DlSyxJLkegjYQ4l0uOSq32S7b2putrJK9iePmgW9iMeBHnbbXxRjIQELUl2HUq2NyPk4pcgQwuh8VYwfARQwVf7SEiCAJJlCIxkN7sFzR4y2UJA09KI8pd09PWH5I/QZJth07OwDATfmS9ciqqCqutrj8C7LmeIqn7ZAALY3V2CQ8qYrdrZfCSoqyiuV97HOzR2kFs60njLJbDhHJyfM0kUAMcrunm67Ijvu7PKcJ8TOVpBS6G0fpa0axymTTGCCsZv1voQTkcLtdOcpDwyH+FAbgwf75sj8dr6b5HeovBAlYSPVCvRnAQYJlvlcE3PLtp3tB4udrBS7Mt5Wx41WeMwuTGsPoClr7mh1BwVtByGI/xnOHKFmv2fkU70HixNtIBsxWYXAQaHihptam+yigu6X1haTNHKJFAACdiIhnwC2412nPSl1WnyGxVsqOcX6RvqsrErB6DUV5DJl3ZQyE7GcKwXV1YZKIU4ZSYtFsjv6klGJlqdPn7KBkQEt35x0R5j/JQ62LafajkYDjbqB2AuqNuuTUbNZJ3/+0gXruaPHf4Mbn8hSnrgvatyxGOcNjXFUbuy5leyjpIO8mqSQ8x058boocoTsT2kJEAAmKeUno2F9c8W3wMVW03JKu9UJMts07JQSr0E3CROEqcHckCjFGE9p87cXLj8fNkJTcpBYYgRCdqO7SZMaWguBzxd6L1jr6bawDhv1PSu+iLiCEFsAx0y55v7IEpx8YBf4bp0rcuqMausKTzLDCiYXNndjYv/2bu8zJDdOmaTjWESoOMgrA1c8gQZSyqpUvED2YRCkgLoWMWQYWohJDKaK0ooy2SebtI3uxS1V3CUWlfiZ3fIWeboRGMmTeD6TRNqvVGAlskNWJ5JREufqV2WKh7WkNJ4N0l3f2egtrD4ya5fNjTjTedkng01eNspDWj2668EnsCJ13GQhrW+wzxNmFJaEAFtPGnoCkXrruhygFWGGOu1OAzG4Wu36N6u0ZXNa6+3xi6z4OFAh7tV8mdyE1stjR3M1e19J8aDtHujht+1FLsULUb5DpkwWbHrWr0kISZLN+uIy3NsWANfxYnnkuEEqzArh0QCBiEmMuyo1e2F1TtsuTFi9djAs0nrTIq3lRuPwFSMJQMNqjeuAbp5dSmRi/HMmRvgPh+BQpLW9HZLQX+x/wZY3FgIhCh8hlDkAKsiNSXyegM8GWHheV7Q2//neF62hvUVxlmStCQY2gtTD8wLLDMp20krKK/cdfVHKJoAcVxiZ2uuV3WpGK5cWlUQ6LMaAQNREPPZt7fY/kSeOm6g0JxgH/6Il7Fd4XNfEJL934WkFjJ/RgCnTsIG+0TcIRo4W7+0q3e0/NG7kDeFMmcPtgwRHyiOmXMVWWVunFUurNqwd/3AUYGtEoIEQM/QoxMhpQMYZdOZFBfSPz0/YgpwKldrmdUWrbFgTnllOuAc3dC7AkZb9IBAESdLHMZGFZbbdim19XosA1ln8nZYtCOSZ4yYhqIR242CYVVJQgpGJ7SOmDxUEKSYthw+B7tPdNqh18KTa8gwzBOhv43PIg0FNR60muJ8sNj2K64OwY8zf4fcs31qMTi6EAK3IEWOs0g6FFcqNOj415mr3lmF3j3kon6CVJ44bsBxUsy2KVBVhKmSmvnD5grV1aAOiZEmI72mD2//gS0Tyaczc1Lui2rHHzMj4iAiRrVtpLjhxAi0SziM2mawAmdO+5UKEr/kOKbY4n+dUe1MYCBpUoAcBHyeX/oq1He2qwqxaZdIYkBNHRo6Al9QDZnnmuMkmLjFIJUeYUqBzkQJrixUH6dl9kk2IsNcg0aTlcCGA2t2o/YpGJ0ZElNrilZATh3OGUZLii3xQSPp4tH3nTLcRKwaTyS5FyyEgBSkBeghHHPul5aVWWllqIwoJ8oTGvpYpk50r8+D8MWnkj+NGAwJHTAhkRpGTmqeJdEwSTWNjI3qcSyzRpBZy4B3CWEyb2AYBpPMKJWlly4sJbSEMvCFC/g/JkElzBtvcsGltsoZZuKK6wqV+4i636DqF641DIErqPjmhVQdpEhsyyZzqGuptUJmvVmSr93VOvvYeRpld8odJTk1NuWciD0qcNZlAwxrgRW1rubC8YLUNdV6XlqOHQHChaae81ha70n9FJOgyox7sWR9d9XPJUvgYUnKR5qbmxDaW4udwsZMktkgaxRlGpAdJpqurRQ8yb4xPj/syUKglRh5k+pA/TNJD2Q4X+CehtUBwJEnAKIs04xtJpeXIIeBQljRJpiDsk1Pzky6tBJVbeOGfGOTswqxnYaqtqd0ds+fiZFpuHAIsGcVhxgFG2FuejbmUbk75QVdEC23tLCft1zmuZdLaD+a3/+SFppkfTHILl2EGXFNICTsukkUGj/ZeS+RufBCmd+4HAdxnnnBBpo32jjZPRRfkFO4IUiQsc1jb9jZpyVyQMqlPy+FCAOZI4otEgk/MUUQcwChLtb89e92QhxJJKp/pg8zkecEko6AIASoy0kYU5lBRW+nbL/iqg3Qd1uHS4D6tObOTVEJUAZnE57U3zaomLFQ9ViqyJzZMc2Jq3Gq1tzlEG+Miw5al+0k0+zwwrd4HAsQAk+2CaIFgB/YtHzxZiDLOa9+iirpKj0JA0/JkJEG+CJ9Ubh37POI2qc4bxw1+GUeycMvsODo9qlCUykTRI+G9LkjVuCMf1ltqtfBQJpUbVW5ucd5Bj7Sypj1zZpdmlXJN05bWafsWtexnk+LmEHEDgwsLJXDWOO8To1RghxMJWzAj7Te1NotJDit1oBImg5/sHuSRB21ycjI/JEnHL1h2daLAN2lv1HpV92Krfq9EC9ljIv1+OBDAu+2Soa/EKbBObc07NjrmROlqt6pHpWq3tmn7U6WmC7xxG3keTkfSVq4KASas8rJyMciwx7ZLGHmMhvxQt+GPIkLUvOmZKV9ZQB5CVtYEj2oej4CrksvhnvQN7pNtMJBgqqtqbGJ60vd/9gDywnWbmZ2VhzWo2h5wnubxPFwkHKg1QuY2rU77dUMvIV4yi1HmEbmQ/CMvmCQs0jObiBCHR4eVR69hyxgdNIc8wvqBiORoLvJlhcIDtkdEE7YUqJTZY14q9oYnfl22pdVlzzaOx5UJDLtkqm0fDT72bzXEpVYqK9aI6CWEaiURIE4qAX/733/7nBkeHs4PJulxkDogylllO6nWOm23g8WVNW60TEsuIFDoO/NhC0PlLnRP6pzWzyvvj80vzliJfrO9AOo4ntZgx8xFz9JnZEOA5Z81NTWeDX5dzjXy9seYVq5DE8iH0obpJx9eFJJkNsSTGoKV8+Gtj+M7Rok9+YQQlWtyXLkiyWM4ODyg9cPsXYPUzzYDfGbeg695MWBvMeqCjzNI/UXKN7m4uOB0E/7yh0GChrxx3MAi8dCtrCwHe6SkynxE+C2mPSW+zuJ44n4QY1V1lVTsRVe1F5bnFfpT5wySS91OmRTuzL77Vr/Lbf/8wCndHLIo/ATWmC/y43bs5sHEHAzOpOUioUVFVcWuzNhBuszdAMh+0l7EH+uwEsRyUAaxV3vHhaDD62wfcqzJLtbqG8wgm3Lc8IcH3IPOE0Z6K/qfWGj2tb7txMd+cPd2ruMFvJ0dQ3G/tq+j2eu8VE9EqhCqShSKNTePOSR2Knd0cp2dPpLL6+vr80F7kVRCoLKkyQlt8lVRKyap7NZFmwok12fYpCF3+SMhfXzq6zhzdRRvqC/yVCA0eUwgGqZWjBWpS2XahbVQqXNWCV3SNRzk86YN9sFiuLLymd7zSaFNDgrn4+Hn9CP7CFfl7v9NdSxbOsQ+ua4IA3ZYnFRy3fWideEjZIMvwnbJeyYsxtfcJ8dh9BgQhVXjGabkOS6BmPBQogs4SjVOxLsRax32OJ0KtMUwOKLOWbluKUrgHpmcr/lVXRm4XQsIycbHXt/BTYnaLdbltBlcV+A6HNfDbG8GRsAd7xmTVXl1mc1oG1/MVWH/oEy2/pt5xkm5N29W3HhuSM2M87KtlFWKSeo3jJLBx9KsmKorN4gLS8E87ZeIYUPckuwrkBFE4TO4jsAsCrSWlrAZ3aNrkMHoLQTkfc/qcCTOWOW/sw9u3FF2Siw7zx/274w0ElpGumeVR4lSdM3IeUPaOoKZKdvf7rB7EtrjSdrQUZNlYHLE0UZXOszSJy8xONYzL+s3OCoR3MthIOBOv2OyN8CLiWCrTuMLvHmKNxh+gr9snIX3DHjyyU4nSSeHd5/v2uRVz9XzNVDWdOyBwiMBDLBnAqNnpE9bXJG6rfdwnGx1Ile9OZJXPHCjOG7yYl80BmpI97RppVrI7/nzfNVB7gtEiYThJKcYQIgDwoDYmK1LJFkyV5MebFXe+FWWiqmG62CUEJkTGu0kv+Nb8Du7xOuo8+87Sqy7VcM9bkhVWlRqo1p501SvrD85Kkw4MLrIIGFMm5o8YUybMgGsacwsK36TCXZdzgtfnYLUu1kiYEqqFLCXMQ3oLySBCB2HleEeLBBXLFGbK2Ky5Cl13OwDaJgrcwMMdj3LGsEzqaOAq71wmJw+1A+6ybNYZFFaXOoaDpEhPkvnWZmYmMgPJgleV1dXrbxcG0npj4WIt6xowKFIrotw5pT4d02UBGEiOxbrWBNxFeqaUhHnlOx0/+Phr1rbmQ57632vMuVpyRAKhAWj1ItE4oGgArGHtwsSZ5BwnEaTC7MlyH3oNifgQTLBk11WroQKK9rHproyJ8/lIVuwEwD4DmyWJdmuCS9kUiTgpbA0yBDlgnKJGCSq96xW/3/6K5/Xsspye+tr32BlZWFlELBnVKEZPPzYt6x/uN9+/C0/YpVauQJ3jCNuL0aHAFuW9IG+MJGClyKtDlvVDdxbpges6yT4PfLiErD6gPSoPlRUVNjy0rJVVmo73zwrxPbmhSQJole0rzZqtkuRsrXcqoL0tCGK1J6B9uxwr31GBPf09562lQWlBquqtte8+jX29h/8YWuvbbBR2YI+8OcftB/8wTfbm+59hTNOBi9SDpzRGQxsEn1d7cJg1/TJ4C7Wtcg/ED8EDzv1tGR+TtKPTxa5UGr3hzTqN/BAWlnXuu1SrefOVQmqMbASJCStLwtO85KWvvbtb9oXvv7Xdv7CeVvVBNbZ1WVvf+2b7Ede/qAYaKHNyFD5+5/6qDXX1ttDr37AKqQXbxYjTQZbIpk6nnj2KXviscftR1/3/VZVXiFGhy0W8wo6QQJzcKjv3g99LxVO0Bw2NFaLUecFm1X17XzvZVtTRp5X9Nzl27/mpKhPhTIX8E6MkyK937ImMcvdHJaT1zzIQ3Dc3DpucZAeHtI1DEsPYNagC/tpM0BvTWGb1TkNehjke//o/TY4Pmp3nT1npzs7bXx01D7yyY/ZCy8+b//kF94tyUGSVlmRM9QVSSjrEilW2BtZUkWhBm6QIUVgLpFpd0EIngSqUt5L9buE+tU1Kyku046DywrSFrrVJnbOIn3CRLP3HrwVEAEfBUpoQb+KchzU75sTuOimWEAB9WOf+5R95D9/wu3Wd529Q+zB7DntIPjEt79tF952wX75f/15W5IkuS5H02LJpo2vKmmzdthkjkI1RhrEpvoTP/kue+fb32ktdY3CBbZFnG+6RkywBNVbdUWo9tIkWNBAur4lbM/akG5ZDLVSTJvJb0y2wD/+1H+0jeUV+71/+P9YObDKCZJCNiafxLy3SJVR8c9JB47NQ1hxkxdMMtgkGa6BWW43QOcWH6hMS9KnPvpfP2mXBvvt53/25+wn3/IOayit9MQbf/jhD9rzT3/P+vt6raKp3lXxdaV0W9V9KyKyJ198xh554jEbmhizrjNd9mMPvdnONLRr7/BF69Pe4f/9K//TxsfHrE7q4Ou+71X2ype+wjd5WtK66W8+9S174skn/Dl3nj1rb3rwDXamsXXLWZJbSGSehkpTJEZVJCaRq8IYwH6IFLkkJvVs/xX72F/9F6tprLdf/aVfsdfd/XLZhzfsW9pu+Df+3R/bR7/+3+1VD77G7uk+ZyXLiieo2bSLk4P22U/9F2UuWrA3vPH77Y13v8yl+8986fM2eP6Svedn/76VatXKpBIIf/Xxh+3ZJ79jFWWl9vrXvs6+776XSXIuE3PWhKlJ8eFHHxb+Jq3trm77m2/4IUU2bNqf/uVH7cvnn7Iq4fK3/uyP7B//b79gDWrv6EtgjjByGCU2VcwI+Vja27VJYD68OEwSJMctSfl9qwqq1cTMjD3+1BPW1txi73jTD1mziKBWPLytrNL+0d/7ZfvT3/kDe8W9L/P+unfbDY9F9rXHHrH3/vZv2Nee+JatVZfYn3364/b+f/2HNrw4aYsi+X/8m/+XffbrX7QV+RYuaevW9/7Wb9jnv/ZF2ygutk9/+XP2mx/4F3ZxdMAKa8rtL/7rX9o//8Pft2Ex21tVwIN7vFHvMA/kMJnFphggtmEkWFThb3zvMZuSh/2NmjgeuvuVVi0m1bxRZA+evd/e/MYfsInFOXv024/rHi2l1PXjwyP27z/6YesdHbLPP/awvfdf/Y595/KLtiBJ8InLz9nnvvYlm9YWIVOSBn//ox+0f/5v/8iWa0rs/Nig/foH3m+ff+SrNiOJ/6vfedze87vC6bcekcawYh/79H+yX//d99m0lmhW1lbZnJxH68q9Wa6g+xyJkT4cYqJdT0giMK2xF3oelvHx8fyQJEF4oWZDbF5Y6raX3Cgw8ZkFYnaLa8uy8Sxbd+dpqyupkFBSZNUyAOFNbZJEuUqgnJh6cCio72Jya3KJVzXW2c/9wi/a2bvutvpT7dYryfHpp5+z8wN9VqbMRr1KRvDQ295sP/PTf8fqiivsO08+ah0KYVjUzoSPP/mkldVU2o/+zXfaK+96hf3ID7/dBi9fkTOr4pYOfSQ6JBV2qCzWkavioUYwSjFmQpHGJ7UxmZj2uZ4emS82rV47NBYuLFt5ZZHd29VtFYpZnRoZldlj1Zblqsbc8fd/6mftVedeZn/+15+1P/73/8b+21e/YL905u/ZPOaRUqnYmuQujVyxLzz6dbvvgVfZT/3Mz1vh0rr9v7/5f9snPvspe/VDD9mHP/UX0hSK7f/8lX9kd9x5t/23R75sz3zjEVufmLV3vP4t9skvfs7uau+0X/3pX7RqSb05KcgQbkJQ0SNJm8ZYzMeSN44bMM1G96srWg2M3cgZJQMu+8jNECDQx+Pm9OjV1ZUQxuP7fIcwkc1VGe8lCZbIflgkRinTl2L1ZFfU51p5sdSvJ+0jf/VJK5Nq2qc9YgohWr1Ujwjp5ffeb49/9Rv27u98VzbOLvv+Vz1gL73vfqsqLLEfev2b7JkXnrXf/r3fsUZtxPWql7zU3vLqB+WxzDBJ92bSsRwVlyL5p+cSYgKOcmWWJOwK04dUDLf1VSnBL3Grc/MLqpITTNEQZW4vlNdb6jWhPiVinAWYBHQ0aPnkmXZNcrr33o7TViTcXBob0FXrcubIgSaTCrGNl0cGJE0u2GPf+4798j/9VSteXrflKUmJJaUuLV4Y6LWW9jY71dhktWrrb8jZ845XPmQNwtmzo31WorbKXX4lAiJHkwjStf6iWWpdUmS+bpZXpy1ecmcEyhHh7fcY9yoHC3sWI4gMIXeMAdN7maSQU+0d1jvQbwPKkl7Tetq978UK3H34mcft/JVL9qbXvE5EvGHFkiJRDZd1/sMf/w/2lUtP26+86+ft5Z132b/9y4/YwIXLovZVqxAZ/bN/+E/t8e89ad969rv27MXz9sGP/JkNDw/Zr/zEz9lbH3ijtbW22aOXn7GvP/2UffEbX7VvPvIN+51/8B575dm7QwJiAS/3jBKHhqYOP3IXi+defrIMKbQHaaFLm1+h7j/1/DP2I294m5XKIUM0xJycM08p+gBBqvtMt386U5ftcV2u6RXhhjrwWiJ7I5lyWKCA15rvFZr8yqW6v/6+l9s73/p2X4FTpvOV8ui3FldblbzjRUtMgmJJmhQ3td/4smzG6zLBMEn69WqDyTVnTDISEWShl4NJFkgyzseSNytuQC7qVcgpeYtRLUbQIa/nG8QEV0Wgf/qxf2ffk8TQq+QO3xx80X73P37I/vXHP2IvnL/gZLEmDyhe37m5ORsb0948kkAefM0D1tjWqCzeY7YktX1Z7QxMjNj//Osv2R0KFfmFn/tF+yf/4P+wlo52e1rS47zSXX3z8W/aSH+/vfMHf8zeK8b44//Lj2sbi0m73N93ywDiEQc4pgQTJoJc2r2c5MXofPGjnv36l7/W2lpa7RvfftQ+8aXP2AvzY3Z+bky2xS/a1x952E5rUnvg1a/18CkcGpPTU/a9Sy/amBxmONOW5xbs7KnOAEsx21VJ/+WSBnvqWqy1rNpmxybsnq5zdq6rx8aGRmxKtq4qMeKe0102Pz1jzw332cDGvH36q/+fvef9/8wefeY77u3ekNNuVPGyU9I6WJ6aqwI+gFGwSmCWyJEUm6sXPOBzcNzkkSQphUXSSnQU+PR/CwohIEUizp95x0/IXjXgMXmPyyHQUFfvdrE1xcL93Xf9LXvtq15tvTpP/Fyp7GH1lTXW1dZhz3y3z/7kj/7ANmU66Dl3h329r98+84X/YW//Gz9sH/vUf7K/+vLnrevOO2xGK1imB0fsHT/2Ex5/+eSzT9tnPv85O/fYV61aSYefkwf9rAj4vnOKv8uhip0N8uBhDis7iF9lHXfOCpoFEpIkOJfdooQAACAASURBVD7b65vs137p3fa+P/mA/flHP2yf/OTHpfKWGZvTV51qsXf/7C/ZmaZTCt+aFz42pKIX28c/9Un7XOVn7bFnvmvdda32tgfe5NLehia1InYclIR/75k77W3f/2b7xOc+Y+/7wPvkMS+wy8++YH/7XT/t177rJ3/K3q9nvu+D/9I67zzravmrz9xtPfe+RF7xBauqq7Unn/ue/faH/qW992//79ZR35gDEGnqEkP2CcQ1sLBqKAcPPnaPwHEjzSCH09MtAgFq3OTCpD3b94zdcc8dQr7sfZshQnBdmQpQa3MVgeZL4XQsihlOyqHy6HNP2XPPPWez09NWV1trD77+9XZX2xmr0gAdmZu2D33yL+x+MbJ3PPQDNrI4a38lyWZ5csbe9MCD1qrYyi99+Ys2NzVtP/6j75RUuWBf+Ouv2LSytrDtwQMve4W99iXykktln1fG70eeflIE94wtSZ27R86IN77iNXa6KYQA+fShoXCUDDPMS9lqG89ctUXtmvikvLwvvf+lYugtGiU7nWuHP3DiumrU3GIxNVbbLCqQe0QB/I88+W27dPmyFays2l13nLPv04TVVFFttVoyuqycpP/mP39MgdXl9gMPvcG+/JUvy7i8YW956I12tyTFhdUle/ef/JY98tS37fPv/5AYa6vNilk+8t3H7MmnnrLq8kp7vdp72bl7/TWXBPOL2uP6kW8+ol08J+zcuXP21le/zlpKqrRmu8AefvG79rXHH7VG3fe3fugdVlcpL/eRF0n466y2IZR81fou9yrMrNtaa9skfUuiVL+3bJZH3pdb+wDU7bxhknMrs/bE+Sfs7vvu9hU3hQrvIFA210yStcIQ5jLxksQ+ari5h1djgQP2gLQBK1nw9cEsdNDSMA3aRZ1c1D0Ej5ciAek7voetNdz67rYwHayWyPZIEuVGEIfXJ8/ydeT8oiIHZSeT5LHrG8s2o+xML0hl7enusdamM6o9eiYJPOhPoZiUZ90RQworlkJWJc7HAjaAeZnbtIUHIYpc3d5/tVImgJfrmBczvDw5Yu/54O/ZJUUcfOI3/8B6mk/rOlRXDAt8ynapg1U13L+qVyUGlhL6Y3L8KPuQOrDJpnVC0oquoZ+o+bko9IzYcbbUKJAAcenFC3bP6XusvlxSbJ4xyWUt/MgLdZuchewlzPrtMDRzMdT2fgbER4YXmJPyEYn4QmH4w7SQNDkgWGhCjm5lnSFlF/7NQJggLfgf1Y4TDo4Erk+4XcL3YJac87XgIsoSMQKYAcxyTbfRD9wOuSE9+rK70P+VRa3brtBeN3PzZk27rzmKmgRSYdmmfgBTYAy8gTOwgwHyB3xgUvAynDnl+iR5BUyNs2VS18HZqILGP/ThP7f+587bG177gDWV1/gk7HhFbdU0yD3AH28x0zTbJFB4Bt841A1fs00f3CGkZzOV5qrQR8aJH/pOZvJS2cLzsSBJ5gWTZGQSJ1lSXGLLUjsrFIt4q4qHnqhDkSH6Psf6DWFGSY+RicQXmSKSYlCHGbz8QIrkPPcyork+EBH/h2+B8Hh3roUK+SiC2PmpG3MVbrMfrJ0BiemAk8pSqZeaxHJVovTtMGfC0CdSvjNE6pJPz+OZ/EbiA8zcy7UwEy0SFRGJlemikvIqe8tb32Zvlg3y/p5z1l6qPWLwWGvywpQBQwTX3BeXYcff8XkwxiVJqo5XleAuiVjNEatUXxkt9JmoC++HTDbe8TwreeO48WGpf1VyYCwuLFq5ArgD24lDMbKVox8BjLMgoXgXdEBEJBMIEh5E6DFp+heZJEyOddykT/O5Xf+wqDqhOvGFmT8O4khShJTQxoooEtWeX2UiO6QlEsoWi0OsqU0Ydy4Kj9lJZ6zoIANQnbaRHZ3M3eofZ4aCgU82HPoNE6Q+wp6vMb8lkRHEVfrKIOoDigR73YlNU1EImyWF9uCrHrRSOaBIi1CqwPF1AsCVLk2h6f7dYS3JHpOLT5DCn2sN+h6fhRRJ6jwu9VRuMCydpy5nxaVXmXskHZeXofMkgyT5yFk/bvGD8mbFjWeT1qBtrm5R6Ma41ddpYBYiO4BxJ4ucFZ5Gb5wZ+g8UZ5+3E6khEC3nGZoUliW6o8GvC4wmZPZJKrxuNwGR0JbCY7RmQlfw5HAlhMgzXMrMUYGx0NP4TNjNOi+nFDyN7Q02PaEM2C7FiPHo01Nw6HQgUP0fX3Hry4133JPbJvBHWsuGLUCOYPH0ZDqJNOjLGHWl35s8Gsa2hBwq/btG9UC3UOEyvMdiRcikQ2vIY1s4UltBZg4vFOXDiFNqwzjRPWrTsz55D3NUEvjKJGnr8+uim2a9u0wFCVxCTyKEctSnW/QYQp/ARR4UZ0tWK2llUSsqIMAwZCPjyS3C49MYdNlDn/qtc8l3fntvd3Qx1nkbSTtb35O6KCWBYG6PhMdvrs0lg+SZsWy9o6Qz1tTjSa0s1za/4iSb+u1vrIuO0tMeYbCzT9n9jN93wj7eG+sj3IEvDJf3c+lfFfEcv7PxsyXB7qiPbW7BSG35fXt17MjqJPEqqJ1g+/nZBeEmY54K8mWu+3NkL3rNhtlWNy+YJAOukDx9rIFWkG8M96E+DsZrQiu94NAhABOcm5212ppazxjf3NBsY0oXh3QW8ZIdmhWZzKF3JG1wFwTwAZL0d0HOtErZWjMYCTSTL3QzynjcBZ3bsAK1EiR7EgU5cFjFki9IPl7ozIa6ZBJJktMK1q7XOmj2HGppbrPJ8QlPThuIMp8Uu+OEKUn3shWvyqFGIHmJUrpF1pjNLI9Tj4+qLx0dHfnBJNFVIEiWlNWJIKcmJwMRsgLHDU5HBeK03WwIuJNJkPegdTRqfa4pYLu8tMLdSRVyqFG/ptVEZEEqIuzJ1W+uTWGZKwjACJHgZ2fnrL5GCR48kz81YZILVvT8QEjeSZKQaItyOM7OzHnGbpDuxOc2yrQcOQQ8UYMKziryFAruMMFqqXNkQSrWhmCkS2MFDOYRUpjlOlv5kcPgBDzApzLxwzmtAiMpCrjYMqh6/4XFPKGZPHLcBHUbxFYpaHlFagQqNxOjz44pj8wJ6QbPtcBN8gRR4bi2rqgnFZUSQbCnCiuhmuuabFyJOwi+Bi9uk0zxkxP8bD1EdEJ41IyWxVYrbG5bDlZnjjryRLSv1VLhvLBJ+vJ0HUglxLlVKNHsvNYvo4L7ygcIMi1HCwF5XbBvMS3xCfNjNUN7S5ur3x6mpaNdksvI0LDyOSp9GFlwhKNs7KT88mjR5K3jUNN6+jKlc4vZfzIOtIiN/MBE3qjbPvm51BiCYE63dtr05LTPkDDIfE0omgNyyzyCyciX+BCwrVRiy0oBp79yOQUyc1TYOZFs6SuyVa751gHbLWDpdHbIWNsWXxSkRCA+2D9g3UqC4hu1+dLX7ZAPguTtzyjzxnHjOIZFKvNPqUK0G5VpZl3hkiuLqwoK1sKyghDqe8jDL21uJwRY3aMkEGx3OzWmTa/qW628qMIdA84odRQXlFpbU5tNjE9pZRKrXMJKF9S7IhF00a0K7tz5Lif9t2BZqGj6QiWsUEikEv6G2MhNbYq2tqI9IRfWrb66UWCHeHQk+Am8kt8xIvSkA+Lq/c8bSTIDhgTTmgDbpOZ5rjhRZyqdXH2gHNZZMnWTBZy8keNj40pke1pNR+rjq1RrEW9zk5xrip9E5c46e1jdSNtJIMBSWDJJsV8PnwSPk1tzZmrWGpVfM1BGiEbYJjPe/gLk1hghtjovbJI7qQIVormx2RaVTZpwkwJfn5ZHmN8JkBz9dvuiwDw/Oy+HQI17s7cxSZ3DPllWrN0jFWA+Oz3rv+Mk5uuj8sRhcJQo8eWhDkdsxCGNG0AmHI5JanJiUhvIMYEpGkGroaCNbftu55FUUV2N4yrPCoMAJlkmW1h9bYONj0qaTOWVnIyCQsF+XSueJhQw3t7SgS9NkNcQxC7mRZ/o3arvaD2leNYp0TBEGgq247hmeqsy/XJDEHAemUw4QDXsHimPtraSIEtWTUWNq9q+DTMT1TbbcP7I92yZkh9MMsFpzJEHUeI8aJFaNzk+qfkykwYKhhm8rRnivKFRmOc3ZRsx3KtNdIHgviDpHdjX19R7yI+njXDnQCDa4FwrtEplniF+ckZZ2NmyEHpmgmNTqrTcPAS2hEEB1mVFtmgQHmYF71Mt2hRNeCkkObVsjyFnKc8MNJFPlJE3jhuQm60heIoqDQqkyRrtHTMh2yRBzazrdpUQO6VTbVpuBgLAGMaGrSvMU5uyd8lhI3twoddlG/+TmUyOGZioL1OUSWRSuOG30KI9Y7TuPk83pLoZPOy8N2OxgEGS0VK2Ypxpwg1JTetqGpxBsvVx8G6Dm8gaE6a6s9Hb9Hde7ZaYPfvxHeQXa6/l7q4eGxkOSRVKFRcWi8dWpuWGIQApAWNU5DW5T5l8ZmenrZQ9q7Xp2f4mDjFOMchS7XFdX91gVZImp0W8SDruWIBbpuWGIRAZZGR1fPqf4Dot88bZrrPyesMUUTKTicuf5vJm8n+GZd5wR07IjSUlZALNmxKQHPHtKoTGAPaXhroGGxoe1havmczYqc/75gaGTzKJMO7SiP6GBgd921Z++5psbJE+F4VYSL6xBC4xS7rN7MypLhscGgzhQIqbTPFyc3iJd2eiT4UAMcjRsRFfZFGlDc+CnVhXbskJkUEGJkkb+SJC5JHjJqHWrPGFGkgwM5+d7QSXKy5PAcyuWGQR+OEMyfxrxQ39kv7wmJKsdmxESxCrGiUZkp/PNyvdYqIZ6JDgNkiKLFMs1h+e7tMtp21Ue1V7CrWQuddvcTkHXrzl+AmyToaU8w/uB33jyORgloT9TMujfUrOMlLMbqcWMOWQ3vqLsD/os07ydXnjuAnojeqD0C1iY88bgpjLtLdydUm1dYtRjg4ME6one2VwDgR7TQiTKEzVvKuOdeATdnDBxsVGEYIh9kUdG8uKixwatTs7X2IVRTVK4l2m/Ya0/2CgPW83Omw2CpWfW5wPm2TRRqm2mRCTbOy05alFW5tfUuAzExk2ZqnzMEcFQTPZ+XcVnhw2rcgXWeeqaNl1EjAxvFlYsa6tcAkinxwZt6baRqssKXc4+qSThZuwgj7sLgoVYUnOFxU0jxw3u8ZKUhFHQoG1NbYiQmpGnXLmueaMMhDefnen9ftBgGlJpJRIk4NDA3auW/uda2LK2Lr2uncHvOFzmqPYqe9M1xnr7+/39Gnr7PbiTBkHHNmEaEv3irhx8vCX4m4v+IY6z+ojoLFMdGlhSYmP5637VLc7agBnga+mSQsQyCvHzdVRzsxZ6E4cAmlXl1atxL2vUdVwoSgtV4GAb0+g81swk5pdLIaGGQPm1VjX7Gevt7Ad8Ibaqq+tt6b6RhseGXaVcE3L57TNlrzdyJR6sjNIJKRg/7ze5+TT9XizkfoxLw0NDNq5rnO2xjYawFAOs+2xIPkEmd3vWlpamjdS8+6331GDnYxdFDvbu2ygr9/V7mDrgrCvn7iv+cDb8oIAK+yEJZLGSf1PIpGe02c9HdpB4AiT3SowXkmMSItI962N7ba2vG4TkxNur8RrHjY7C6tGPPjZjxRf+w0vh4wG96bskEhJbS3tVltV7yaQAqng4CiN7MhAr6pKuU73A2Y+1QfS1sb02melQatw6qrqbHJo3DbXNOMipCRHPsHket91XdumbiroG/XYzZGrIkI5W85IjWPyOUhEVZRCXSZEJeSfPosUNoTdsVKRCN2nemxidMLbJ/jZ0935Q5FjXe/2krLJAIewrDNhfIAHK5LANaaVZqWyx7cqyUiRkly4XVfmkGCvT9lCMowsbxw38YX3/0yM1Ro8SCx4+ebn521jhRlXyhxL49Lg8v3BxxnBx5PqCl44a8aHxrSXdp1iHeudMJHKt0mJ+7TmgeSRxYXZy38TNsRftXZVPNPWZb1X+lxqhPvi6GH/a98DO4tR7vOIvKqG6a1LEgeGmCXY53xjVdvdzi16VEcxO4LjJNO4B3ZExqUzTGaInDrF6qO0OAQwVjNQsHcRyHzfXffaxQsXlPdwxRlnapS81kARGYog2WhtcmLCpZVOJUkAnniyNz2JyEHKfjKgGKUknmIdjQolapGNc7BvMCRg0C0bMEn82gXBO56RKQ/yzNv7GhwyvpxTONkUg3zumRfsjjN3KbKjXPjB9h5xA9QSVeD2BsmB325Y8dMHHbkHbvTEXijph8FCpI+vStDnvffcZ/19Aza/NO9LFtNyFQgIZiWyOw6Pjtjy4rL1yBtdWiwngOC4IenysPaqwe5I2Nbp1tPe/riSZbAXToZBRvX7Kn3Np1PCC4skSjTxLy0v2cXeS3bvS16miatcHJOgfgHDbbgM+sgkU4k8DpHUcZNFLBltGhtYiYerlEsC6uk8YxODo4onw/sXbtieACPE7IXYvfyhPjfu+8GHPNmSVsYnxj3jeE/3WcGPpCHBnhjU5f0kxKvDbOc6+qC0hxReZzq6lepuXeu7pwOh63nB6RBxEuh+u5ofJSU+T1aJbCwZhrs679YJncS0kXG+hOWhK2KQY9oWo1umilpl+AkB/fq/iOQiiV3D9ex8G8m7wLitAseNdvU8iEn96g3dDmeBQmSUnjuPjNgbq5KE1m1uYdaGxkespqPZipSEk4GFiISNx1eB+NBK5mE36txeZXtISEKinntQENABBGbEqEiSSwq0yrJKV7ND1CJrsRN43Bif3AVMVuV4wLg4wsLqoo1Mjij5xYq1tDR7WBA7MRYrkWwSFOTYcdnIVQREJw56jcf95JRstp4NyvidxUgF0oh8Elfl2uaKO742lzdsUKE+p5o7lH2pQZJ4pb/93gUY7Xdu7ztu59re3t5U3d4PwThrSKhAPr0aJYglI03vpUvB4+2pu2R/k60yDjaGVuQF+7V5cuvj24U3hDkWZE0Sk5IgFxbmrUMptsrLyhMpJk4dh//WwBw7G8ygXKtE2pvbbV2revBE+jlpAkFehFnIcbFLDji6vh3+22ZajL3ej4WFWNWwTmxNKjZzwoZCpq6I0E9p8mqsaUwkyKv1cr/Wr3bP7XsOx00qSSb43SVJIquwEZVLi5goN2xubcmeee4Z6z7bY2UV5e4pZKYm9X2GRd6OkiRxiKE4oUJ8Mj8QgjOg1TQbCv+5s+tuwSkwrlKFUvmabSaZOA8fpoCitp1dS9rXjiyOm9W1Fesd7HXvbENbkwykYISrkGhDSjYUyYCn2JmTzxAcDlkFzQfTh3u0Badnn33O7rnjHqsp03JQB4rkZ61gSsvBIMAqr5RJJrBytTHRt2MAczDVUC+mIMlpVcHLDL4XL523hkYla6itss1ikZ64Bso3BJjxFB4MCcf/Kt4rTBZIaYFJFoSg7rEJD83pPNUphlmiwRTCdDzcBzNEErZz6O/oemcS9hMUaVezwdGVgV5b3Vy1ipZqz2pDWFJI7queZ3MUn9hOVsnK7eHqdHyDbW9CdiV5shcU4jM2NuqB/NWyQcIgmfOLFXPKxJ6Wg0HAtZPUJrkfsLC3kYCX8/wnRigmyYBckSpzse+yh5u0n+6wjSLVIlF6Kq9MuntnKSdwPEY7I2/udlcYELscynuNxL2ysGyjo2NWqzhIVmzAQ0vlLY1SI/eH9GhHJFXDJB2uYCPYJvnmk5uY3/DEiPVODVhLa4tSf1X5ZewfDRP1FHmuNujjhOEmm0ny9gzOVRIRJ3Zwx5syL40q49La0ppyQ95hFcXajdKX2JLIOHnhE/be/q63qCwsLKRM8uqw3zZHix6DCk4MM4NzZGLYBkeHrKu7y0rKpWLCE5JZeovRnMABSd8pMHlkZJhkjNNmJ70xZY3pPn1GTgCptbrUiVCEGrYfTSDq88MRvfwWk+RZMDxnkVt/KODjC1PWO3DZE/zW1tc6Y2Tnu3XhELOAm0iOiIcnEDiSjy2I+isHzYUM8Aw7NrXr7+/zde5tjW2qKPTVTkiPabkxCOC4SSXJ64Gdr7yBHMlDE7zf88vzdv7yi1ZXXy/JpdVWJF2iasJocC6E63cw2+t5Zo6vjcwd6SQmIRZLsUKFiV6U46q0uMzOnrnDyorKZfvSag3e0cFyK6WUxEYJ31BfMX14Fidx9hcvPaf3WLHOzk4rkGlEnjg/V6SdGoO3O8cAvonHZY8i+LuGms8PSNCskx8cHLDuzh5rqGrYMn8wE3g0hsMmlCOaum7izY7vrWELkig2HN9+HpueaSy6TVJ05slfIcbVjWUnwit9V2xGoUJtZ05bVZWyOxN6wUyf2DmPzUscsCOs0EBCxAEzPjYs6XHEzp0558kQigvIjCLpEdFZ50skoW0TGnNMhdnMw9klk5nKmkK4NmzFpuYm7PyV81bfVG8dHaeFQ3CnLitM6CQVLMMUwAvbK5I7e2Vx0fp7+xQsXmTneu5QTsgaOdIwd7DtgILFBQoyJXETIfewSsKz0nIwCKSOm4PBaddVMD+XWJSui1ReqD0kmZ1ZmLHzfRetuLTE2trbrLSs1Bkpa4qdb2RLmKrxtc7IYOGk2gncJaxBhoyz537OZbhP+JXNHnZ1U3fTt8w9XEFPkfpCLZ557Ki0DEGFDaHERbxmblbxoUND1qC9Zljn6ytoCH3SX5AgdWegu7DmN3Zh+yN3d+wQavZ/c53hndkvWh8bBYp1LVizRcVT9g5dscmZKevq6rLyqgq8GFs9cUzovi37HlnVdX/BloMnm7FkXjD0A3jdTNGEqib82YA0mVyxoWLGoIAbZGQmXfz160rwMTkyZgsz83amo0up6JAeWT5LkopgfyQCwTdOS7oenIv8zAGCbgYcx+jecW1El6rbh4aQoOjNr83Z+OS4jbBniAixobnBSsU0N+XcgZEWahD7WlpN8c5gNWTdlpmwKqxM8h3rd5Qb4rlIpGGAYy0sdCa7f1kXscAos0mCsBA3B7gdS8QmBuKhTvpHFhjsrovzC55XEzvkKUleTVXNagXjf+zL/s88Nmci36LTmgjWyT+pY3puykbGh21R4Vz1rQ1WW1PrTCV4wYGLICY4ALWwHpwJ0RvJmnCyGKaYKOaX3WUvRrQXvpLrxJGRzKNl1aMkxCTXhI9iGB2Pl/NsdUOS8fiULcwuWHN9s7U3dGiLC9Kc0Y5kR09snJbDgkDquDksSCbtMNOvbC47E1pcXrSh0UEbmxyz6tpqa25pcskSJuXbE8iYDo9jdg/MErYXCMZZZzYDdC4aiS4hWEQ496bsX9adgEMJd+sXFTriSiFyNSLJbiiVPwNiXCm0YNPtWp3R0KCtRfVX6ur1CSO+bUwyONxI1Itghho+OTtlAyMDtrKyYh3tp6yyutIKSwAEuAmydtACIuwT+DszigewvTYe9sdQPCOGjBlHiHCJnlGRxKFGmX95eVkT17h2jpxS8uEm62hT4L4C6Vlh41u/Cj9IoGzVm5bDg0DquDk8WHpLQaZgawEIJ9gvIcjR0VHrH+lXEK/U8I4Wq6xRcgEybsMWIQyCsJO+wChJGktW71CZUY2zGSX3ru+KCdn+QptkxEmknITEnQm4Q0kPXCdprT4nxyaNbCe1VbXWoTRxdcqpGVTPIFFBuBDwiSpxkknUZVagBP4WPPZrhGtpklmQTa934IqWns5ZkyayejnggpnERWuBKZkc/GZKNhzUlv+M2LtxCAXtQSNIkqNvUCfmh9NgVdnDey/3enb2Vm0x0t7aLhuwYlLpCdInqrV3ge9hLN14L9I7d0IgddzshMhN/oY5OlA1WHHmEJsH4/QM2nLkzM7PWt9Qr00vjTvD7NEex2WV5cmKnQypIb2hem3FtW3rVyBSyDKs9Nmn034ZTFLPTiSfUAUhbtqY0pmNK1CW3I9NWq7W2dntSYfJn4m4RUxkkB4jI9/nOcey2qGT9AymGEpwXPA9MTdokuEcgehrwhfMcnJG23doYkPyb25pEZ/cbubY9roCaMiJvq12149strrrZFKxKSl3U+OkrKhMtuAFGx4c9mxK7BbZc6bHc3MWkTncmSGvEFvVNCgnG2ONku5Psx+Eb6w+ddzcGNyufhdUl0UV7uSRxBIVX4KHltbn3RPOBllLUqOI3yPbSL3U2/IKZfGGdEWbMDcn9xgEnRA+55E2PXjbpQfRTsKgA1HTAZhbeCrSyNzsnM3OzBlqG8sIG7VfTHNTs1VruVppsrUCz3PmjKRJidzlIFR+dajk+GxkknwiDVKcs/j3UBt+hd8ulwdmKUa1tLJko0qaMaqgdKIYysu1o2Z1tTVqlVWUqIGs34v+HhlWAi/HD/VJCeBTrZ/Xf5HR0Sfx8vnFeZuSGr26tGKL2pirqqxKEn1IRlHKrpL+J7zInr1tcEW8uLScPJwxkZZDg0DquDk0UO7fkKveWQVvMuuNoQ4kAILSF0QkC0uyB5JqTFumFpVJnSpVstqSYifQ8lKtZpGdjF3ukBhghKzPxYNLSJI/A2asY0WpysgbuCpbG/a2NXlBqa/UypMGeUAr9Mk2CG67EpH5xghbNs/ASE5q2FI2nEOQT6wJ77UTS85bnNHA1mCUcpQk6/WdbSq8a2ll0RaWF2xmdtomhJ8y2ZWL5BUnz2BZWZmVCj+Fsi+DE46w3URwzjG5rQmf67IvupKvT3Cy7LhZFq5WbGlpydtprGtV9qQqN3mUlpS5TZJkxa5MM3F5N7PswpFBgnsu8ZdDizlhtmPv9/EtqePmCHAT5AvGbRjFO5lkPM+nJyEgnlKD2+2T6s/q6qrCVZZsQcS5JOfPsqQaCA2i4noY64YYq6+TlrRC+840xTyLZauCsTrxKolBWakkoIpqEbS8n05uHGK0SI5OVaEmgIGnB1ILTDLT0/AukSqPAGhH0GRmatrihNueEphOdhWTDHE4SO7hu6/JT8K3uB5Zc0U4mZf3f0mT2rJwsqTEGkx0JGXmcHNL1tpoh7cOtAXHi44SMVXwU1lVqTplB3fzBnteYysOcIeBInQgRAAABL5JREFUe05OHxUUtZRBkX7qR+Ylk2tgmCcLT0nHj+1H6rg5AtRkJJhksO4ayKpPzGUQo0fd6NO9zDhz3KGAyivDvV8YbILhpow322UT1Lasd8C4X5isrggqGk4ArsAJEBi3HuPL1IL0qXP8C5dkERqdzhwhi87JUuOA1G52EeMHshGvqxIcuT2WEsAiBhnNHdQrZMoZqFqOvAgmqh+kKIuNONScyYI3YBvS29KSC31Jp+LkyXm+F22G4G+uIfTHGW0Ww8NBxIiIZWvi8i5nvWnW162L0y83DIHUcXPDoNv/xih/bbsiob0wnLePYieKhB6CBJPZ6sDPcdpvceoJFfp/l8PACdBJMTBAXVOIOJI8AJmRkpFwE9JS21ndU2X8lXleuPdkUd+2d0qgFljeFgi3arcBgBuTV/WvWfBhG4qtlVSccy0g/G3dpPoQBB6mKR7i0j441p9DFUarhhMl2vux00kXx8UWdrxPkUlm2s70Pen0yUKTv/txLqnj5jhjJ+1bCoEUArccAjhuTpYOdctBlnYghUAKgXyCQIWiTVImmU8YT981hUAKgeuCQBoCdF3gSi9OIZBCIN8g4Lk68+2l0/dNIZBCIIXAQSEwMDCQMsmDAiu9LoVACoH8g0Bqk8w/nKdvnEIghcB1QKC8nL2b0pJCIIVACoEUAntCYEKJYNKku3uCJq1MIZBCIIVAshAgBUQKgRQCKQRSCOwNAVbcpOr23rBJa1MIpBBIIWCVlcqYlcIhhUAKgRQCKQT2hgCZm1ImuTds0toUAikEUggoh2jquEmHQQqBFAIpBPaFgGdw2vdseiKFQAqBFAJ5DoHUcZPnAyB9/RQCKQSuDoHUcXN1+KRnUwikEMhzCLCXUapu5/kgSF8/hUAKgf0hMDk5ma642R886ZkUAikE8h0CqeMm30dA+v4pBFIIXBUCfX19qbp9VQilJ1MIpBDIawhUVVVZ0a/92q/9Ohukl5SU2PT0tO8PzIbc1PF9ZmZmq255eXlb3fz8vG+2Hq+jjZutY99p9pHmubG9nXVzc3O+x3G8DuPq7Oys71l9kDruZWdB7on3XquOyHv6xL7X8d5r1TG6eEb2dTvryHyMSB+vAwc763juzrqd15HSaWpqyq/jAEZXq+OZO6+72Tpgk/1c2ttZx/sD6+zrbqYOXIB3xl1831zUMc6gh+zn3kgdYwNcxnuhvavVFWl/dWhzcXFx67rrrcum93jvteqy+cJevGJn3U5ewXvdSN2N8BTe6Vr8Yy+eshf/oM+FMDkOCAZA8RnrGOT71XHuatft1V6sy743u44OZfeF6/aq29nn2B4vubO9ver2ekb2dRDtXs+ljusgfOAS+7df3dX6wjNoY6/nZreXfR3PpQ+xfzCb2Jd43UHr4jNie7EvB22P53BP9nOz62g39iX7GdRd617a3es6+naj9+7XHnDIfg+ecZC6/dqjPvt9Y3vURXrKrovw2+u5kRb36t9+7e31jJ10nN2/+Izs9vaq2+s94nXQ017PuN66bHrfee9+PCrS2F59yW4vmxb34x87+QK/EaLSVGlO5mlJIZBCIIXA3hBIQ4D2hktam0IghUAKAYdAyiTTgZBCIIVACoGrQOD/B3Fti3pDuQgPAAAAAElFTkSuQmCC;" parent="1" vertex="1">
                    <mxGeometry x="55" y="3380" width="155.74" height="160" as="geometry"/>
                </mxCell>
                <mxCell id="27" value="&lt;h1 style=&quot;font-size: 26px;&quot;&gt;&lt;font style=&quot;font-size: 26px;&quot;&gt;Other relevant terms OOA, OOD,OOP&lt;/font&gt;&lt;/h1&gt;&lt;p style=&quot;font-size: 26px;&quot;&gt;&lt;font style=&quot;font-size: 26px;&quot;&gt;- Customer requirements for a specific product&lt;/font&gt;&lt;/p&gt;&lt;p style=&quot;font-size: 26px;&quot;&gt;&lt;font style=&quot;font-size: 26px;&quot;&gt;- OOA ia an analysis phase to these reqs&lt;/font&gt;&lt;/p&gt;&lt;p style=&quot;font-size: 26px;&quot;&gt;&lt;font style=&quot;font-size: 26px;&quot;&gt;&lt;span style=&quot;white-space: pre;&quot;&gt;&#9;&lt;/span&gt;- Outpu: analysis models (use cases, obkject conceptual model, technolgy independent)&lt;br&gt;&lt;/font&gt;&lt;/p&gt;&lt;p style=&quot;font-size: 26px;&quot;&gt;&lt;font style=&quot;font-size: 26px;&quot;&gt;- After sw analysis , we design the system (OOD)&lt;/font&gt;&lt;/p&gt;&lt;p style=&quot;font-size: 26px;&quot;&gt;&lt;font style=&quot;font-size: 26px;&quot;&gt;- consider: hardware and software platforms, availablity, scalability, budget, etc.&lt;/font&gt;&lt;/p&gt;&lt;p style=&quot;font-size: 26px;&quot;&gt;&lt;font style=&quot;font-size: 26px;&quot;&gt;- then, development &amp;amp; testing the system using OOP paradigm&lt;/font&gt;&lt;/p&gt;" style="text;html=1;strokeColor=none;fillColor=none;spacing=5;spacingTop=-20;whiteSpace=wrap;overflow=hidden;rounded=0;labelBackgroundColor=none;fontSize=25;fontColor=#FFFFFF;" parent="1" vertex="1">
                    <mxGeometry x="10" y="4400" width="820" height="530" as="geometry"/>
                </mxCell>
            </root>
        </mxGraphModel>
    </diagram>
</mxfile>